G04 #@! TF.GenerationSoftware,KiCad,Pcbnew,(6.0.2-0)*
G04 #@! TF.CreationDate,2022-05-10T15:32:32+07:00*
G04 #@! TF.ProjectId,kb-lone,6b622d6c-6f6e-4652-9e6b-696361645f70,rev?*
G04 #@! TF.SameCoordinates,Original*
G04 #@! TF.FileFunction,Paste,Bot*
G04 #@! TF.FilePolarity,Positive*
%FSLAX46Y46*%
G04 Gerber Fmt 4.6, Leading zero omitted, Abs format (unit mm)*
G04 Created by KiCad (PCBNEW (6.0.2-0)) date 2022-05-10 15:32:32*
%MOMM*%
%LPD*%
G01*
G04 APERTURE LIST*
G04 Aperture macros list*
%AMRoundRect*
0 Rectangle with rounded corners*
0 $1 Rounding radius*
0 $2 $3 $4 $5 $6 $7 $8 $9 X,Y pos of 4 corners*
0 Add a 4 corners polygon primitive as box body*
4,1,4,$2,$3,$4,$5,$6,$7,$8,$9,$2,$3,0*
0 Add four circle primitives for the rounded corners*
1,1,$1+$1,$2,$3*
1,1,$1+$1,$4,$5*
1,1,$1+$1,$6,$7*
1,1,$1+$1,$8,$9*
0 Add four rect primitives between the rounded corners*
20,1,$1+$1,$2,$3,$4,$5,0*
20,1,$1+$1,$4,$5,$6,$7,0*
20,1,$1+$1,$6,$7,$8,$9,0*
20,1,$1+$1,$8,$9,$2,$3,0*%
G04 Aperture macros list end*
%ADD10C,1.150000*%
%ADD11RoundRect,0.150000X-0.150000X-0.575000X0.150000X-0.575000X0.150000X0.575000X-0.150000X0.575000X0*%
%ADD12RoundRect,0.075000X-0.075000X-0.650000X0.075000X-0.650000X0.075000X0.650000X-0.075000X0.650000X0*%
G04 APERTURE END LIST*
D10*
X331580000Y-96465000D02*
G75*
G03*
X330112753Y-97072753I1J-2075005D01*
G01*
X333655000Y-98540000D02*
G75*
G03*
X333047247Y-97072753I-2075005J-1D01*
G01*
X331580000Y-100615000D02*
G75*
G03*
X333047247Y-100007247I-1J2075005D01*
G01*
X329505000Y-98540000D02*
G75*
G03*
X330112753Y-100007247I2075005J1D01*
G01*
X114685000Y-118170000D02*
G75*
G03*
X114077247Y-116702753I-2075005J-1D01*
G01*
X112610000Y-116095000D02*
G75*
G03*
X111142753Y-116702753I1J-2075005D01*
G01*
X110535000Y-118170000D02*
G75*
G03*
X111142753Y-119637247I2075005J1D01*
G01*
X112610000Y-120245000D02*
G75*
G03*
X114077247Y-119637247I-1J2075005D01*
G01*
X79575000Y-61510000D02*
G75*
G03*
X80182753Y-62977247I2075005J1D01*
G01*
X81650000Y-59435000D02*
G75*
G03*
X80182753Y-60042753I1J-2075005D01*
G01*
X83725000Y-61510000D02*
G75*
G03*
X83117247Y-60042753I-2075005J-1D01*
G01*
X81650000Y-63585000D02*
G75*
G03*
X83117247Y-62977247I-1J2075005D01*
G01*
X96125000Y-98590000D02*
G75*
G03*
X96732753Y-100057247I2075005J1D01*
G01*
X98200000Y-96515000D02*
G75*
G03*
X96732753Y-97122753I1J-2075005D01*
G01*
X98200000Y-100665000D02*
G75*
G03*
X99667247Y-100057247I-1J2075005D01*
G01*
X100275000Y-98590000D02*
G75*
G03*
X99667247Y-97122753I-2075005J-1D01*
G01*
X330465000Y-118150000D02*
G75*
G03*
X329857247Y-116682753I-2075005J-1D01*
G01*
X328390000Y-120225000D02*
G75*
G03*
X329857247Y-119617247I-1J2075005D01*
G01*
X328390000Y-116075000D02*
G75*
G03*
X326922753Y-116682753I1J-2075005D01*
G01*
X326315000Y-118150000D02*
G75*
G03*
X326922753Y-119617247I2075005J1D01*
G01*
D11*
X87240000Y-56337500D03*
X88040000Y-56337500D03*
D12*
X89240000Y-56337500D03*
X90236000Y-56337500D03*
X90740000Y-56337500D03*
X91740000Y-56337500D03*
D11*
X93740000Y-56337500D03*
X92940000Y-56337500D03*
D12*
X92240000Y-56337500D03*
X91240000Y-56337500D03*
X89740000Y-56337500D03*
X88740000Y-56337500D03*
M02*
