%TF.GenerationSoftware,KiCad,Pcbnew,(6.0.2-0)*%
%TF.CreationDate,2022-03-20T22:32:52+07:00*%
%TF.ProjectId,kb-lone,6b622d6c-6f6e-4652-9e6b-696361645f70,rev?*%
%TF.SameCoordinates,Original*%
%TF.FileFunction,Soldermask,Top*%
%TF.FilePolarity,Negative*%
%FSLAX46Y46*%
G04 Gerber Fmt 4.6, Leading zero omitted, Abs format (unit mm)*
G04 Created by KiCad (PCBNEW (6.0.2-0)) date 2022-03-20 22:32:52*
%MOMM*%
%LPD*%
G01*
G04 APERTURE LIST*
G04 Aperture macros list*
%AMRoundRect*
0 Rectangle with rounded corners*
0 $1 Rounding radius*
0 $2 $3 $4 $5 $6 $7 $8 $9 X,Y pos of 4 corners*
0 Add a 4 corners polygon primitive as box body*
4,1,4,$2,$3,$4,$5,$6,$7,$8,$9,$2,$3,0*
0 Add four circle primitives for the rounded corners*
1,1,$1+$1,$2,$3*
1,1,$1+$1,$4,$5*
1,1,$1+$1,$6,$7*
1,1,$1+$1,$8,$9*
0 Add four rect primitives between the rounded corners*
20,1,$1+$1,$2,$3,$4,$5,0*
20,1,$1+$1,$4,$5,$6,$7,0*
20,1,$1+$1,$6,$7,$8,$9,0*
20,1,$1+$1,$8,$9,$2,$3,0*%
%AMOutline4P*
0 Free polygon, 4 corners , with rotation*
0 The origin of the aperture is its center*
0 number of corners: always 4*
0 $1 to $8 corner X, Y*
0 $9 Rotation angle, in degrees counterclockwise*
0 create outline with 4 corners*
4,1,4,$1,$2,$3,$4,$5,$6,$7,$8,$1,$2,$9*%
%AMFreePoly0*
4,1,34,0.539142,0.394142,0.545000,0.380000,0.545000,-0.380000,0.542091,-0.387023,0.539183,-0.394101,0.539154,-0.394113,0.539142,-0.394142,0.532183,-0.397025,0.525059,-0.400000,-0.345813,-0.402541,-0.359972,-0.396724,-0.365871,-0.382599,-0.363699,-0.377313,-0.368760,-0.369759,-0.367711,-0.364454,-0.414942,-0.174744,-0.481229,0.014483,-0.564791,0.196743,-0.661662,0.364831,-0.664142,0.365858,
-0.665002,0.367933,-0.666846,0.369219,-0.667839,0.374782,-0.670000,0.380000,-0.669140,0.382076,-0.669535,0.384289,-0.666303,0.388925,-0.664142,0.394142,-0.662067,0.395002,-0.660781,0.396846,-0.655218,0.397839,-0.650000,0.400000,0.525000,0.400000,0.539142,0.394142,0.539142,0.394142,$1*%
%AMFreePoly1*
4,1,29,0.525059,0.400000,0.532183,0.397025,0.539142,0.394142,0.539154,0.394113,0.539183,0.394101,0.542091,0.387023,0.545000,0.380000,0.545000,-0.380000,0.539142,-0.394142,0.525000,-0.400000,-0.650000,-0.400000,-0.664142,-0.394142,-0.670000,-0.380000,-0.664142,-0.365858,-0.656922,-0.362867,-0.654793,-0.350168,-0.650383,-0.347024,-0.555389,-0.178305,-0.474263,0.003005,-0.410150,0.191006,
-0.364766,0.379236,-0.365041,0.380579,-0.365871,0.382599,-0.365592,0.383267,-0.365853,0.384541,-0.363693,0.387815,-0.359972,0.396724,-0.345813,0.402541,0.525059,0.400000,0.525059,0.400000,$1*%
%AMFreePoly2*
4,1,37,0.319736,0.407785,0.429772,0.357533,0.521194,0.278316,0.586594,0.176551,0.620674,0.060484,0.620674,-0.060484,0.586594,-0.176551,0.521194,-0.278316,0.429772,-0.357533,0.319736,-0.407785,0.200000,-0.425000,-0.275000,-0.425000,-0.292678,-0.417678,-0.300000,-0.400000,-0.298085,-0.395376,-0.302439,-0.388639,-0.301267,-0.383185,-0.346957,-0.185029,-0.412116,0.013042,-0.495042,0.204357,
-0.592189,0.382099,-0.592678,0.382301,-0.593020,0.383126,-0.597072,0.386095,-0.598748,0.396955,-0.600000,0.399978,-0.599427,0.401360,-0.599990,0.405006,-0.595222,0.411514,-0.592678,0.417657,-0.589869,0.418820,-0.588682,0.420441,-0.584339,0.421111,-0.575001,0.424979,0.199999,0.425000,0.200000,0.425000,0.319736,0.407785,0.319736,0.407785,$1*%
%AMFreePoly3*
4,1,30,0.525059,0.400000,0.532183,0.397025,0.539142,0.394142,0.539154,0.394113,0.539183,0.394101,0.542091,0.387023,0.545000,0.380000,0.545000,-0.380000,0.539142,-0.394142,0.525000,-0.400000,-0.650000,-0.400000,-0.664142,-0.394142,-0.670000,-0.380000,-0.664142,-0.365858,-0.655245,-0.362173,-0.655309,-0.362083,-0.652804,-0.346982,-0.648525,-0.343921,-0.554181,-0.175756,-0.473638,0.004780,
-0.409952,0.191928,-0.364797,0.379387,-0.365041,0.380580,-0.365871,0.382599,-0.365592,0.383267,-0.365853,0.384541,-0.363693,0.387815,-0.359972,0.396724,-0.345813,0.402541,0.525059,0.400000,0.525059,0.400000,$1*%
%AMFreePoly4*
4,1,37,0.319736,0.407785,0.429772,0.357533,0.521194,0.278316,0.586594,0.176551,0.620674,0.060484,0.620674,-0.060484,0.586594,-0.176551,0.521194,-0.278316,0.429772,-0.357533,0.319736,-0.407785,0.200000,-0.425000,-0.275000,-0.425000,-0.292678,-0.417678,-0.300000,-0.400000,-0.298083,-0.395372,-0.302440,-0.388630,-0.301269,-0.383178,-0.346960,-0.185023,-0.412119,0.013046,-0.495044,0.204359,
-0.592190,0.382099,-0.592678,0.382301,-0.593020,0.383126,-0.597072,0.386095,-0.598748,0.396955,-0.600000,0.399978,-0.599427,0.401360,-0.599990,0.405006,-0.595222,0.411514,-0.592678,0.417657,-0.589869,0.418820,-0.588682,0.420441,-0.584339,0.421111,-0.575001,0.424979,0.199999,0.425000,0.200000,0.425000,0.319736,0.407785,0.319736,0.407785,$1*%
G04 Aperture macros list end*
%TA.AperFunction,Profile*%
%ADD10C,0.100000*%
%TD*%
%ADD11C,4.250000*%
%ADD12FreePoly0,180.000000*%
%ADD13FreePoly1,180.000000*%
%ADD14FreePoly2,0.000000*%
%ADD15FreePoly1,0.000000*%
%ADD16RoundRect,0.250000X0.350000X-0.250000X0.350000X0.250000X-0.350000X0.250000X-0.350000X-0.250000X0*%
%ADD17RoundRect,0.140000X-0.170000X0.140000X-0.170000X-0.140000X0.170000X-0.140000X0.170000X0.140000X0*%
%ADD18FreePoly0,0.000000*%
%ADD19FreePoly3,0.000000*%
%ADD20FreePoly4,180.000000*%
%ADD21FreePoly3,180.000000*%
%ADD22C,3.302000*%
%ADD23C,1.701800*%
%ADD24C,3.987800*%
%ADD25RoundRect,0.254000X-1.016000X-1.016000X1.016000X-1.016000X1.016000X1.016000X-1.016000X1.016000X0*%
%ADD26RoundRect,0.140000X0.140000X0.170000X-0.140000X0.170000X-0.140000X-0.170000X0.140000X-0.170000X0*%
%ADD27RoundRect,0.140000X0.170000X-0.140000X0.170000X0.140000X-0.170000X0.140000X-0.170000X-0.140000X0*%
%ADD28FreePoly4,0.000000*%
%ADD29RoundRect,0.200000X-0.537500X0.000000X0.537500X0.000000X0.537500X0.000000X-0.537500X0.000000X0*%
%ADD30R,1.475000X0.400000*%
%ADD31R,0.600000X1.550000*%
%ADD32C,0.400000*%
%ADD33R,1.200000X1.800000*%
%ADD34C,4.000000*%
%ADD35C,5.300000*%
%ADD36O,2.500000X3.000000*%
%ADD37C,2.500000*%
%ADD38R,1.100000X1.800000*%
%ADD39RoundRect,0.150000X0.587500X0.150000X-0.587500X0.150000X-0.587500X-0.150000X0.587500X-0.150000X0*%
%ADD40RoundRect,0.250000X0.450000X-0.262500X0.450000X0.262500X-0.450000X0.262500X-0.450000X-0.262500X0*%
%ADD41RoundRect,0.150000X0.150000X-0.512500X0.150000X0.512500X-0.150000X0.512500X-0.150000X-0.512500X0*%
%ADD42RoundRect,0.250000X0.475000X-0.250000X0.475000X0.250000X-0.475000X0.250000X-0.475000X-0.250000X0*%
%ADD43RoundRect,0.250000X-0.250000X-0.475000X0.250000X-0.475000X0.250000X0.475000X-0.250000X0.475000X0*%
%ADD44RoundRect,0.250000X-0.425000X0.537500X-0.425000X-0.537500X0.425000X-0.537500X0.425000X0.537500X0*%
%ADD45RoundRect,0.250000X-0.262500X-0.450000X0.262500X-0.450000X0.262500X0.450000X-0.262500X0.450000X0*%
%ADD46RoundRect,0.250000X0.250000X0.350000X-0.250000X0.350000X-0.250000X-0.350000X0.250000X-0.350000X0*%
%ADD47RoundRect,0.140000X-0.140000X-0.170000X0.140000X-0.170000X0.140000X0.170000X-0.140000X0.170000X0*%
%ADD48RoundRect,0.218750X0.218750X0.381250X-0.218750X0.381250X-0.218750X-0.381250X0.218750X-0.381250X0*%
%ADD49R,1.524000X1.524000*%
%ADD50O,1.524000X1.524000*%
%ADD51RoundRect,0.150000X0.150000X-0.587500X0.150000X0.587500X-0.150000X0.587500X-0.150000X-0.587500X0*%
%ADD52C,3.048000*%
%ADD53RoundRect,0.135000X-0.135000X-0.185000X0.135000X-0.185000X0.135000X0.185000X-0.135000X0.185000X0*%
%ADD54RoundRect,0.250000X-0.450000X0.262500X-0.450000X-0.262500X0.450000X-0.262500X0.450000X0.262500X0*%
%ADD55RoundRect,0.250000X0.262500X0.450000X-0.262500X0.450000X-0.262500X-0.450000X0.262500X-0.450000X0*%
%ADD56RoundRect,0.250000X-1.450000X0.312500X-1.450000X-0.312500X1.450000X-0.312500X1.450000X0.312500X0*%
%ADD57RoundRect,0.325000X0.205000X0.000000X-0.205000X0.000000X-0.205000X0.000000X0.205000X0.000000X0*%
%ADD58R,1.060000X0.650000*%
%ADD59RoundRect,0.218750X-0.381250X0.218750X-0.381250X-0.218750X0.381250X-0.218750X0.381250X0.218750X0*%
%ADD60R,1.400000X1.200000*%
%ADD61O,4.500000X8.500000*%
%ADD62RoundRect,0.250000X0.250000X0.475000X-0.250000X0.475000X-0.250000X-0.475000X0.250000X-0.475000X0*%
%ADD63RoundRect,0.150000X-0.625000X0.000000X0.625000X0.000000X0.625000X0.000000X-0.625000X0.000000X0*%
%ADD64Outline4P,-0.775000X-0.150000X0.775000X-0.150000X0.775000X0.150000X-0.775000X0.150000X0.000000*%
%ADD65Outline4P,-0.150000X-0.775000X0.150000X-0.775000X0.150000X0.775000X-0.150000X0.775000X0.000000*%
%ADD66RoundRect,0.135000X0.135000X0.185000X-0.135000X0.185000X-0.135000X-0.185000X0.135000X-0.185000X0*%
%ADD67R,1.700000X1.700000*%
%ADD68O,1.700000X1.700000*%
%ADD69C,5.080000*%
%ADD70R,2.000000X2.000000*%
%ADD71C,2.000000*%
%ADD72R,3.200000X2.000000*%
%ADD73C,0.650000*%
%ADD74O,1.100000X2.200000*%
%ADD75O,1.300000X1.900000*%
G04 APERTURE END LIST*
D10*
X352425000Y-169068750D02*
G75*
G03*
X357187500Y-164306250I0J4762500D01*
G01*
X357187500Y-71437500D02*
X357187500Y-59531250D01*
X283368750Y-54768750D02*
X352425000Y-54768750D01*
X95690000Y-54768842D02*
G75*
G03*
X96880626Y-54768796I595313J0D01*
G01*
X311943750Y-169068750D02*
G75*
G03*
X307181250Y-169068750I-2381250J0D01*
G01*
X95692892Y-50277104D02*
X95690000Y-54768842D01*
X357187500Y-71437500D02*
G75*
G03*
X357187500Y-76200000I0J-2381250D01*
G01*
X52387500Y-59531250D02*
X52387500Y-71437500D01*
X96880626Y-54768796D02*
X126206250Y-54768750D01*
X52387500Y-76200000D02*
G75*
G03*
X52387500Y-71437500I0J2381250D01*
G01*
X88106250Y-169068750D02*
X73818750Y-169068750D01*
X335756250Y-169068750D02*
G75*
G03*
X330993750Y-169068750I-2381250J0D01*
G01*
X73818750Y-169068750D02*
G75*
G03*
X69056250Y-169068750I-2381250J0D01*
G01*
X311943750Y-169068750D02*
X330993750Y-169068750D01*
X278606250Y-54768750D02*
G75*
G03*
X283368750Y-54768750I2381250J0D01*
G01*
X69056250Y-169068750D02*
X57150000Y-169068750D01*
X52387500Y-164306250D02*
G75*
G03*
X57150000Y-169068750I4762500J0D01*
G01*
X357187500Y-147637500D02*
X357187500Y-76200000D01*
X335756250Y-169068750D02*
X352425000Y-169068750D01*
X86287104Y-49277108D02*
X94692896Y-49277108D01*
X85287108Y-50277104D02*
X85287108Y-54768750D01*
X84096482Y-54768796D02*
X57150000Y-54768750D01*
X52387500Y-152400000D02*
G75*
G03*
X52387500Y-147637500I0J2381250D01*
G01*
X57150000Y-54768750D02*
G75*
G03*
X52387500Y-59531250I0J-4762500D01*
G01*
X357187500Y-59531250D02*
G75*
G03*
X352425000Y-54768750I-4762500J0D01*
G01*
X95692892Y-50277104D02*
G75*
G03*
X94692896Y-49277108I-999996J0D01*
G01*
X202406250Y-54768750D02*
G75*
G03*
X207168750Y-54768750I2381250J0D01*
G01*
X84096482Y-54768796D02*
G75*
G03*
X85287108Y-54768750I595313J0D01*
G01*
X126206250Y-54768750D02*
G75*
G03*
X130968750Y-54768750I2381250J0D01*
G01*
X52387500Y-152400000D02*
X52387500Y-164306250D01*
X357187500Y-147637500D02*
G75*
G03*
X357187500Y-152400000I0J-2381250D01*
G01*
X92868750Y-169068750D02*
G75*
G03*
X88106250Y-169068750I-2381250J0D01*
G01*
X52387500Y-76200000D02*
X52387500Y-147637500D01*
X86287104Y-49277108D02*
G75*
G03*
X85287108Y-50277104I0J-999996D01*
G01*
X307181250Y-169068750D02*
X92868750Y-169068750D01*
X357187500Y-152400000D02*
X357187500Y-164306250D01*
X207168750Y-54768750D02*
X278606250Y-54768750D01*
X130968750Y-54768750D02*
X202406250Y-54768750D01*
D11*
%TO.C,D131*%
X295270000Y-126520000D03*
D12*
X292603000Y-127320000D03*
D13*
X292628400Y-125720000D03*
D14*
X297835400Y-125720000D03*
D15*
X297911600Y-127320000D03*
%TD*%
D16*
%TO.C,D20*%
X300040000Y-88380000D03*
X300040000Y-85080000D03*
%TD*%
%TO.C,D70*%
X161930000Y-145580000D03*
X161930000Y-142280000D03*
%TD*%
D17*
%TO.C,R80*%
X196390000Y-144770000D03*
X196390000Y-145730000D03*
%TD*%
%TO.C,R18*%
X296400000Y-68570000D03*
X296400000Y-69530000D03*
%TD*%
D16*
%TO.C,D40*%
X195260000Y-107490000D03*
X195260000Y-104190000D03*
%TD*%
D11*
%TO.C,D143*%
X335750000Y-145570000D03*
D18*
X338417000Y-144770000D03*
D19*
X338391600Y-146370000D03*
D20*
X333184600Y-146370000D03*
D21*
X333108400Y-144770000D03*
%TD*%
D16*
%TO.C,D84*%
X71430000Y-164580000D03*
X71430000Y-161280000D03*
%TD*%
D22*
%TO.C,SW56*%
X140335000Y-116363750D03*
X146685000Y-118903750D03*
D23*
X137795000Y-121443750D03*
X147955000Y-121443750D03*
D24*
X142875000Y-121443750D03*
D25*
X136779000Y-116363750D03*
X150241000Y-118903750D03*
%TD*%
D22*
%TO.C,SW33*%
X303847500Y-99853750D03*
X297497500Y-97313750D03*
D23*
X305117500Y-102393750D03*
D24*
X300037500Y-102393750D03*
D23*
X294957500Y-102393750D03*
D25*
X293941500Y-97313750D03*
X307403500Y-99853750D03*
%TD*%
D22*
%TO.C,SW72*%
X84772500Y-137953750D03*
D24*
X80962500Y-140493750D03*
D22*
X78422500Y-135413750D03*
D23*
X75882500Y-140493750D03*
X86042500Y-140493750D03*
D25*
X74866500Y-135413750D03*
X88328500Y-137953750D03*
%TD*%
D11*
%TO.C,D96*%
X138110000Y-69370000D03*
D18*
X140777000Y-68570000D03*
D19*
X140751600Y-70170000D03*
D20*
X135544600Y-70170000D03*
D21*
X135468400Y-68570000D03*
%TD*%
D16*
%TO.C,D41*%
X176200000Y-107490000D03*
X176200000Y-104190000D03*
%TD*%
D26*
%TO.C,C9*%
X199380000Y-159350000D03*
X198420000Y-159350000D03*
%TD*%
D27*
%TO.C,C93*%
X293040000Y-165420000D03*
X293040000Y-164460000D03*
%TD*%
D11*
%TO.C,D158*%
X321470000Y-164620000D03*
D12*
X318803000Y-165420000D03*
D21*
X318828400Y-163820000D03*
D28*
X324035400Y-163820000D03*
D19*
X324111600Y-165420000D03*
%TD*%
D17*
%TO.C,C55*%
X209300000Y-106670000D03*
X209300000Y-107630000D03*
%TD*%
%TO.C,C34*%
X324090000Y-88980000D03*
X324090000Y-89940000D03*
%TD*%
D23*
%TO.C,SW7*%
X257492500Y-64293750D03*
X247332500Y-64293750D03*
D22*
X249872500Y-59213750D03*
X256222500Y-61753750D03*
D24*
X252412500Y-64293750D03*
D25*
X246316500Y-59213750D03*
X259778500Y-61753750D03*
%TD*%
D17*
%TO.C,R68*%
X156150000Y-127080000D03*
X156150000Y-128040000D03*
%TD*%
D16*
%TO.C,D37*%
X252410000Y-107490000D03*
X252410000Y-104190000D03*
%TD*%
D17*
%TO.C,C69*%
X214550000Y-127080000D03*
X214550000Y-128040000D03*
%TD*%
D16*
%TO.C,D79*%
X148920000Y-164580000D03*
X148920000Y-161280000D03*
%TD*%
D17*
%TO.C,R36*%
X208540000Y-88980000D03*
X208540000Y-89940000D03*
%TD*%
D22*
%TO.C,SW81*%
X103822500Y-157003750D03*
D24*
X100012500Y-159543750D03*
D23*
X105092500Y-159543750D03*
X94932500Y-159543750D03*
D22*
X97472500Y-154463750D03*
D25*
X93916500Y-154463750D03*
X107378500Y-157003750D03*
%TD*%
D16*
%TO.C,D13*%
X166690000Y-69300000D03*
X166690000Y-66000000D03*
%TD*%
D11*
%TO.C,D110*%
X138110000Y-88420000D03*
D12*
X135443000Y-89220000D03*
D21*
X135468400Y-87620000D03*
D28*
X140675400Y-87620000D03*
D19*
X140751600Y-89220000D03*
%TD*%
D29*
%TO.C,U3*%
X204907500Y-153287500D03*
D30*
X204907500Y-153937500D03*
X204907500Y-154587500D03*
X204907500Y-155237500D03*
X210632500Y-155237500D03*
X210632500Y-154587500D03*
X210632500Y-153937500D03*
X210632500Y-153287500D03*
%TD*%
D23*
%TO.C,SW70*%
X128270000Y-140493750D03*
X138430000Y-140493750D03*
D24*
X133350000Y-140493750D03*
D22*
X137160000Y-137953750D03*
X130810000Y-135413750D03*
D25*
X127254000Y-135413750D03*
X140716000Y-137953750D03*
%TD*%
D17*
%TO.C,C72*%
X157410000Y-127080000D03*
X157410000Y-128040000D03*
%TD*%
D27*
%TO.C,C7*%
X243540000Y-152340000D03*
X243540000Y-151380000D03*
%TD*%
D17*
%TO.C,C40*%
X209800000Y-88980000D03*
X209800000Y-89940000D03*
%TD*%
D16*
%TO.C,D28*%
X147640000Y-88390000D03*
X147640000Y-85090000D03*
%TD*%
D17*
%TO.C,R67*%
X175190000Y-127080000D03*
X175190000Y-128040000D03*
%TD*%
%TO.C,C76*%
X57380000Y-127080000D03*
X57380000Y-128040000D03*
%TD*%
%TO.C,C73*%
X138350000Y-127080000D03*
X138350000Y-128040000D03*
%TD*%
D16*
%TO.C,D72*%
X123820000Y-145110000D03*
X123820000Y-141810000D03*
%TD*%
D23*
%TO.C,SW37*%
X228917500Y-102393750D03*
D22*
X221297500Y-97313750D03*
X227647500Y-99853750D03*
D23*
X218757500Y-102393750D03*
D24*
X223837500Y-102393750D03*
D25*
X217741500Y-97313750D03*
X231203500Y-99853750D03*
%TD*%
D11*
%TO.C,D117*%
X280990000Y-107470000D03*
D18*
X283657000Y-106670000D03*
D19*
X283631600Y-108270000D03*
D20*
X278424600Y-108270000D03*
D21*
X278348400Y-106670000D03*
%TD*%
D11*
%TO.C,D148*%
X228600000Y-145570000D03*
D18*
X231267000Y-144770000D03*
D19*
X231241600Y-146370000D03*
D20*
X226034600Y-146370000D03*
D21*
X225958400Y-144770000D03*
%TD*%
D17*
%TO.C,C67*%
X252660000Y-127080000D03*
X252660000Y-128040000D03*
%TD*%
%TO.C,R76*%
X272590000Y-144770000D03*
X272590000Y-145730000D03*
%TD*%
%TO.C,C50*%
X304570000Y-106670000D03*
X304570000Y-107630000D03*
%TD*%
D16*
%TO.C,D7*%
X280990000Y-69280000D03*
X280990000Y-65980000D03*
%TD*%
D31*
%TO.C,J2*%
X89000000Y-65375000D03*
X90000000Y-65375000D03*
X91000000Y-65375000D03*
X92000000Y-65375000D03*
D32*
X87750000Y-69250000D03*
X94000000Y-69950000D03*
D33*
X93600000Y-69250000D03*
D32*
X87800000Y-69950000D03*
X87050000Y-69250000D03*
X93200000Y-69950000D03*
X87800000Y-68550000D03*
X94000000Y-68550000D03*
D33*
X87400000Y-69250000D03*
D32*
X93950000Y-69250000D03*
X93200000Y-68550000D03*
X87000000Y-68550000D03*
X93250000Y-69250000D03*
X87000000Y-69950000D03*
%TD*%
D16*
%TO.C,D10*%
X223830000Y-69280000D03*
X223830000Y-65980000D03*
%TD*%
D22*
%TO.C,SW54*%
X184785000Y-118903750D03*
D23*
X175895000Y-121443750D03*
X186055000Y-121443750D03*
D22*
X178435000Y-116363750D03*
D24*
X180975000Y-121443750D03*
D25*
X174879000Y-116363750D03*
X188341000Y-118903750D03*
%TD*%
D17*
%TO.C,R45*%
X324990000Y-106670000D03*
X324990000Y-107630000D03*
%TD*%
D24*
%TO.C,SW6*%
X271462500Y-64293750D03*
D22*
X275272500Y-61753750D03*
X268922500Y-59213750D03*
D23*
X266382500Y-64293750D03*
X276542500Y-64293750D03*
D25*
X265366500Y-59213750D03*
X278828500Y-61753750D03*
%TD*%
D11*
%TO.C,D119*%
X242890000Y-107470000D03*
D18*
X245557000Y-106670000D03*
D19*
X245531600Y-108270000D03*
D20*
X240324600Y-108270000D03*
D21*
X240248400Y-106670000D03*
%TD*%
D16*
%TO.C,D30*%
X109540000Y-88380000D03*
X109540000Y-85080000D03*
%TD*%
D11*
%TO.C,D111*%
X119060000Y-88420000D03*
D12*
X116393000Y-89220000D03*
D21*
X116418400Y-87620000D03*
D28*
X121625400Y-87620000D03*
D19*
X121701600Y-89220000D03*
%TD*%
D23*
%TO.C,SW74*%
X350361250Y-159543750D03*
D22*
X349091250Y-157003750D03*
D23*
X340201250Y-159543750D03*
D24*
X345281250Y-159543750D03*
D22*
X342741250Y-154463750D03*
D25*
X339185250Y-154463750D03*
X352647250Y-157003750D03*
%TD*%
D16*
%TO.C,D81*%
X128580000Y-164580000D03*
X128580000Y-161280000D03*
%TD*%
D22*
%TO.C,SW16*%
X351472500Y-80803750D03*
D24*
X347662500Y-83343750D03*
D22*
X345122500Y-78263750D03*
D23*
X342582500Y-83343750D03*
X352742500Y-83343750D03*
D25*
X341566500Y-78263750D03*
X355028500Y-80803750D03*
%TD*%
D11*
%TO.C,D123*%
X166690000Y-107470000D03*
D18*
X169357000Y-106670000D03*
D19*
X169331600Y-108270000D03*
D20*
X164124600Y-108270000D03*
D21*
X164048400Y-106670000D03*
%TD*%
D17*
%TO.C,R24*%
X182100000Y-68570000D03*
X182100000Y-69530000D03*
%TD*%
%TO.C,C88*%
X111710000Y-144770000D03*
X111710000Y-145730000D03*
%TD*%
D34*
%TO.C,H9*%
X98160000Y-65490000D03*
%TD*%
D17*
%TO.C,C53*%
X247390000Y-106670000D03*
X247390000Y-107630000D03*
%TD*%
%TO.C,C56*%
X190200000Y-106670000D03*
X190200000Y-107630000D03*
%TD*%
D16*
%TO.C,D58*%
X133350000Y-126480000D03*
X133350000Y-123180000D03*
%TD*%
%TO.C,D29*%
X128580000Y-88380000D03*
X128580000Y-85080000D03*
%TD*%
D23*
%TO.C,SW12*%
X162242500Y-64293750D03*
D24*
X157162500Y-64293750D03*
D23*
X152082500Y-64293750D03*
D22*
X160972500Y-61753750D03*
X154622500Y-59213750D03*
D25*
X151066500Y-59213750D03*
X164528500Y-61753750D03*
%TD*%
D16*
%TO.C,D74*%
X71430000Y-145110000D03*
X71430000Y-141810000D03*
%TD*%
D11*
%TO.C,D149*%
X209550000Y-145570000D03*
D18*
X212217000Y-144770000D03*
D19*
X212191600Y-146370000D03*
D20*
X206984600Y-146370000D03*
D21*
X206908400Y-144770000D03*
%TD*%
D22*
%TO.C,SW75*%
X318928750Y-154463750D03*
D24*
X321468750Y-159543750D03*
D23*
X316388750Y-159543750D03*
D22*
X325278750Y-157003750D03*
D23*
X326548750Y-159543750D03*
D25*
X315372750Y-154463750D03*
X328834750Y-157003750D03*
%TD*%
D22*
%TO.C,SW39*%
X189547500Y-99853750D03*
D23*
X190817500Y-102393750D03*
D24*
X185737500Y-102393750D03*
D23*
X180657500Y-102393750D03*
D22*
X183197500Y-97313750D03*
D25*
X179641500Y-97313750D03*
X193103500Y-99853750D03*
%TD*%
D11*
%TO.C,D159*%
X297650000Y-164620000D03*
D12*
X294983000Y-165420000D03*
D21*
X295008400Y-163820000D03*
D28*
X300215400Y-163820000D03*
D19*
X300291600Y-165420000D03*
%TD*%
D17*
%TO.C,R50*%
X229730000Y-106670000D03*
X229730000Y-107630000D03*
%TD*%
D16*
%TO.C,D3*%
X339420000Y-69280000D03*
X339420000Y-65980000D03*
%TD*%
D17*
%TO.C,R21*%
X239260000Y-68570000D03*
X239260000Y-69530000D03*
%TD*%
%TO.C,C30*%
X142610000Y-68570000D03*
X142610000Y-69530000D03*
%TD*%
%TO.C,R38*%
X170430000Y-88980000D03*
X170430000Y-89940000D03*
%TD*%
D16*
%TO.C,D18*%
X336860000Y-88380000D03*
X336860000Y-85080000D03*
%TD*%
%TO.C,D55*%
X190500000Y-126480000D03*
X190500000Y-123180000D03*
%TD*%
D22*
%TO.C,SW11*%
X180022500Y-61753750D03*
D23*
X171132500Y-64293750D03*
D24*
X176212500Y-64293750D03*
D23*
X181292500Y-64293750D03*
D22*
X173672500Y-59213750D03*
D25*
X170116500Y-59213750D03*
X183578500Y-61753750D03*
%TD*%
D35*
%TO.C,H1*%
X81650000Y-61510000D03*
%TD*%
D16*
%TO.C,D52*%
X247650000Y-126480000D03*
X247650000Y-123180000D03*
%TD*%
D17*
%TO.C,R81*%
X177350000Y-144770000D03*
X177350000Y-145730000D03*
%TD*%
D11*
%TO.C,D136*%
X200020000Y-126520000D03*
D12*
X197353000Y-127320000D03*
D21*
X197378400Y-125720000D03*
D28*
X202585400Y-125720000D03*
D19*
X202661600Y-127320000D03*
%TD*%
D17*
%TO.C,R33*%
X265680000Y-88980000D03*
X265680000Y-89940000D03*
%TD*%
D27*
%TO.C,C12*%
X243740000Y-161620000D03*
X243740000Y-160660000D03*
%TD*%
D24*
%TO.C,SW15*%
X61930000Y-64330000D03*
D23*
X67010000Y-64330000D03*
X56850000Y-64330000D03*
D36*
X59430000Y-59530000D03*
D37*
X65630000Y-61730000D03*
X64430000Y-60330000D03*
%TD*%
D27*
%TO.C,R90*%
X220280000Y-165420000D03*
X220280000Y-164460000D03*
%TD*%
D11*
%TO.C,D88*%
X290510000Y-69370000D03*
D18*
X293177000Y-68570000D03*
D19*
X293151600Y-70170000D03*
D20*
X287944600Y-70170000D03*
D21*
X287868400Y-68570000D03*
%TD*%
D17*
%TO.C,C32*%
X66460000Y-68570000D03*
X66460000Y-69530000D03*
%TD*%
D16*
%TO.C,D76*%
X332100000Y-161920000D03*
X332100000Y-158620000D03*
%TD*%
D23*
%TO.C,SW27*%
X133032500Y-83343750D03*
D22*
X141922500Y-80803750D03*
D24*
X138112500Y-83343750D03*
D22*
X135572500Y-78263750D03*
D23*
X143192500Y-83343750D03*
D25*
X132016500Y-78263750D03*
X145478500Y-80803750D03*
%TD*%
D17*
%TO.C,R31*%
X303780000Y-88980000D03*
X303780000Y-89940000D03*
%TD*%
D16*
%TO.C,D57*%
X152400000Y-126480000D03*
X152400000Y-123180000D03*
%TD*%
D11*
%TO.C,D99*%
X347660000Y-88420000D03*
D12*
X344993000Y-89220000D03*
D21*
X345018400Y-87620000D03*
D28*
X350225400Y-87620000D03*
D19*
X350301600Y-89220000D03*
%TD*%
D17*
%TO.C,R15*%
X353590000Y-68570000D03*
X353590000Y-69530000D03*
%TD*%
D11*
%TO.C,D127*%
X85720000Y-107470000D03*
D18*
X88387000Y-106670000D03*
D19*
X88361600Y-108270000D03*
D20*
X83154600Y-108270000D03*
D21*
X83078400Y-106670000D03*
%TD*%
D11*
%TO.C,D95*%
X157160000Y-69370000D03*
D18*
X159827000Y-68570000D03*
D19*
X159801600Y-70170000D03*
D20*
X154594600Y-70170000D03*
D21*
X154518400Y-68570000D03*
%TD*%
D17*
%TO.C,R29*%
X341890000Y-88980000D03*
X341890000Y-89940000D03*
%TD*%
D23*
%TO.C,SW82*%
X86042500Y-159543750D03*
X75882500Y-159543750D03*
D22*
X84772500Y-157003750D03*
X78422500Y-154463750D03*
D24*
X80962500Y-159543750D03*
D25*
X74866500Y-154463750D03*
X88328500Y-157003750D03*
%TD*%
D17*
%TO.C,R25*%
X163060000Y-68570000D03*
X163060000Y-69530000D03*
%TD*%
D38*
%TO.C,SW1*%
X350420000Y-128820000D03*
X350420000Y-122620000D03*
X354120000Y-122620000D03*
X354120000Y-128820000D03*
%TD*%
D16*
%TO.C,D5*%
X319090000Y-69280000D03*
X319090000Y-65980000D03*
%TD*%
D39*
%TO.C,U2*%
X204927500Y-166100000D03*
X204927500Y-164200000D03*
X203052500Y-165150000D03*
%TD*%
D17*
%TO.C,R43*%
X56140000Y-88980000D03*
X56140000Y-89940000D03*
%TD*%
D16*
%TO.C,D71*%
X142880000Y-145110000D03*
X142880000Y-141810000D03*
%TD*%
D11*
%TO.C,D134*%
X238120000Y-126520000D03*
D12*
X235453000Y-127320000D03*
D21*
X235478400Y-125720000D03*
D28*
X240685400Y-125720000D03*
D19*
X240761600Y-127320000D03*
%TD*%
D22*
%TO.C,SW8*%
X230822500Y-59213750D03*
D24*
X233362500Y-64293750D03*
D22*
X237172500Y-61753750D03*
D23*
X228282500Y-64293750D03*
X238442500Y-64293750D03*
D25*
X227266500Y-59213750D03*
X240728500Y-61753750D03*
%TD*%
D17*
%TO.C,C59*%
X133090000Y-106670000D03*
X133090000Y-107630000D03*
%TD*%
D23*
%TO.C,SW71*%
X102076250Y-140493750D03*
X112236250Y-140493750D03*
D22*
X110966250Y-137953750D03*
D24*
X107156250Y-140493750D03*
D22*
X104616250Y-135413750D03*
D25*
X101060250Y-135413750D03*
X114522250Y-137953750D03*
%TD*%
D17*
%TO.C,C23*%
X275950000Y-68570000D03*
X275950000Y-69530000D03*
%TD*%
%TO.C,C70*%
X195510000Y-127080000D03*
X195510000Y-128040000D03*
%TD*%
D16*
%TO.C,D73*%
X90480000Y-145110000D03*
X90480000Y-141810000D03*
%TD*%
D11*
%TO.C,D163*%
X119060000Y-164620000D03*
D12*
X116393000Y-165420000D03*
D21*
X116418400Y-163820000D03*
D28*
X121625400Y-163820000D03*
D19*
X121701600Y-165420000D03*
%TD*%
D17*
%TO.C,R58*%
X67820000Y-106670000D03*
X67820000Y-107630000D03*
%TD*%
D40*
%TO.C,R2*%
X93810000Y-62352500D03*
X93810000Y-60527500D03*
%TD*%
D17*
%TO.C,R46*%
X305920000Y-106670000D03*
X305920000Y-107630000D03*
%TD*%
%TO.C,R64*%
X232360000Y-127080000D03*
X232360000Y-128040000D03*
%TD*%
D23*
%TO.C,SW83*%
X56832500Y-159543750D03*
D22*
X59372500Y-154463750D03*
D24*
X61912500Y-159543750D03*
D22*
X65722500Y-157003750D03*
D23*
X66992500Y-159543750D03*
D25*
X55816500Y-154463750D03*
X69278500Y-157003750D03*
%TD*%
D27*
%TO.C,R96*%
X55960000Y-165420000D03*
X55960000Y-164460000D03*
%TD*%
D16*
%TO.C,D21*%
X280980000Y-88380000D03*
X280980000Y-85080000D03*
%TD*%
D17*
%TO.C,R51*%
X210670000Y-106670000D03*
X210670000Y-107630000D03*
%TD*%
D41*
%TO.C,U1*%
X89540000Y-63027500D03*
X90490000Y-63027500D03*
X91440000Y-63027500D03*
X91440000Y-60752500D03*
X90490000Y-60752500D03*
X89540000Y-60752500D03*
%TD*%
D17*
%TO.C,C86*%
X156940000Y-144770000D03*
X156940000Y-145730000D03*
%TD*%
D16*
%TO.C,D63*%
X295270000Y-145110000D03*
X295270000Y-141810000D03*
%TD*%
D24*
%TO.C,SW41*%
X147637500Y-102393750D03*
D23*
X142557500Y-102393750D03*
D22*
X145097500Y-97313750D03*
X151447500Y-99853750D03*
D23*
X152717500Y-102393750D03*
D25*
X141541500Y-97313750D03*
X155003500Y-99853750D03*
%TD*%
D16*
%TO.C,D54*%
X209550000Y-126470000D03*
X209550000Y-123170000D03*
%TD*%
D17*
%TO.C,R28*%
X67810000Y-68570000D03*
X67810000Y-69530000D03*
%TD*%
%TO.C,C85*%
X175950000Y-144770000D03*
X175950000Y-145730000D03*
%TD*%
%TO.C,C45*%
X114530000Y-88980000D03*
X114530000Y-89940000D03*
%TD*%
D11*
%TO.C,D89*%
X271460000Y-69370000D03*
D18*
X274127000Y-68570000D03*
D19*
X274101600Y-70170000D03*
D20*
X268894600Y-70170000D03*
D21*
X268818400Y-68570000D03*
%TD*%
D17*
%TO.C,C84*%
X195030000Y-144770000D03*
X195030000Y-145730000D03*
%TD*%
D23*
%TO.C,SW9*%
X219392500Y-64293750D03*
D22*
X218122500Y-61753750D03*
X211772500Y-59213750D03*
D23*
X209232500Y-64293750D03*
D24*
X214312500Y-64293750D03*
D25*
X208216500Y-59213750D03*
X221678500Y-61753750D03*
%TD*%
D17*
%TO.C,C10*%
X199300000Y-152940000D03*
X199300000Y-153900000D03*
%TD*%
D24*
%TO.C,SW69*%
X152400000Y-140493750D03*
D23*
X157480000Y-140493750D03*
D22*
X156210000Y-137953750D03*
D23*
X147320000Y-140493750D03*
D22*
X149860000Y-135413750D03*
D25*
X146304000Y-135413750D03*
X159766000Y-137953750D03*
%TD*%
D11*
%TO.C,D141*%
X92870000Y-126520000D03*
D12*
X90203000Y-127320000D03*
D21*
X90228400Y-125720000D03*
D28*
X95435400Y-125720000D03*
D19*
X95511600Y-127320000D03*
%TD*%
D31*
%TO.C,J3*%
X186640000Y-157865000D03*
X185640000Y-157865000D03*
X184640000Y-157865000D03*
X183640000Y-157865000D03*
D32*
X182440000Y-153290000D03*
X188640000Y-154690000D03*
X181640000Y-154690000D03*
X187890000Y-153990000D03*
X182440000Y-154690000D03*
X188590000Y-153990000D03*
X188640000Y-153290000D03*
X181640000Y-153290000D03*
X187840000Y-154690000D03*
D33*
X188240000Y-153990000D03*
D32*
X187840000Y-153290000D03*
D33*
X182040000Y-153990000D03*
D32*
X181690000Y-153990000D03*
X182390000Y-153990000D03*
%TD*%
D17*
%TO.C,C83*%
X214090000Y-144770000D03*
X214090000Y-145730000D03*
%TD*%
D11*
%TO.C,D137*%
X180970000Y-126520000D03*
D12*
X178303000Y-127320000D03*
D21*
X178328400Y-125720000D03*
D28*
X183535400Y-125720000D03*
D19*
X183611600Y-127320000D03*
%TD*%
D11*
%TO.C,D155*%
X80960000Y-145570000D03*
D18*
X83627000Y-144770000D03*
D19*
X83601600Y-146370000D03*
D20*
X78394600Y-146370000D03*
D21*
X78318400Y-144770000D03*
%TD*%
D17*
%TO.C,C41*%
X190750000Y-88980000D03*
X190750000Y-89940000D03*
%TD*%
%TO.C,C48*%
X347390000Y-106670000D03*
X347390000Y-107630000D03*
%TD*%
D22*
%TO.C,SW18*%
X307022500Y-78263750D03*
D24*
X309562500Y-83343750D03*
D23*
X304482500Y-83343750D03*
D22*
X313372500Y-80803750D03*
D23*
X314642500Y-83343750D03*
D25*
X303466500Y-78263750D03*
X316928500Y-80803750D03*
%TD*%
D27*
%TO.C,R95*%
X75040000Y-165420000D03*
X75040000Y-164460000D03*
%TD*%
D17*
%TO.C,R65*%
X213290000Y-127080000D03*
X213290000Y-128040000D03*
%TD*%
D24*
%TO.C,SW24*%
X195262500Y-83343750D03*
D22*
X199072500Y-80803750D03*
D23*
X200342500Y-83343750D03*
D22*
X192722500Y-78263750D03*
D23*
X190182500Y-83343750D03*
D25*
X189166500Y-78263750D03*
X202628500Y-80803750D03*
%TD*%
D16*
%TO.C,D42*%
X157160000Y-107490000D03*
X157160000Y-104190000D03*
%TD*%
D11*
%TO.C,D100*%
X328610000Y-88420000D03*
D12*
X325943000Y-89220000D03*
D21*
X325968400Y-87620000D03*
D28*
X331175400Y-87620000D03*
D19*
X331251600Y-89220000D03*
%TD*%
D17*
%TO.C,R26*%
X144010000Y-68570000D03*
X144010000Y-69530000D03*
%TD*%
%TO.C,C75*%
X88350000Y-127080000D03*
X88350000Y-128040000D03*
%TD*%
%TO.C,R57*%
X91630000Y-106670000D03*
X91630000Y-107630000D03*
%TD*%
D16*
%TO.C,D25*%
X204790000Y-88390000D03*
X204790000Y-85090000D03*
%TD*%
%TO.C,D75*%
X334650000Y-161920000D03*
X334650000Y-158620000D03*
%TD*%
D17*
%TO.C,C28*%
X180700000Y-68570000D03*
X180700000Y-69530000D03*
%TD*%
D16*
%TO.C,D66*%
X238120000Y-145110000D03*
X238120000Y-141810000D03*
%TD*%
%TO.C,D39*%
X214310000Y-107480000D03*
X214310000Y-104180000D03*
%TD*%
D27*
%TO.C,C6*%
X246070000Y-152340000D03*
X246070000Y-151380000D03*
%TD*%
D22*
%TO.C,SW44*%
X83185000Y-97313750D03*
D23*
X90805000Y-102393750D03*
D24*
X85725000Y-102393750D03*
D22*
X89535000Y-99853750D03*
D23*
X80645000Y-102393750D03*
D25*
X79629000Y-97313750D03*
X93091000Y-99853750D03*
%TD*%
D17*
%TO.C,C61*%
X90280000Y-106670000D03*
X90280000Y-107630000D03*
%TD*%
D42*
%TO.C,C17*%
X78660000Y-81527500D03*
X78660000Y-79627500D03*
%TD*%
D17*
%TO.C,C71*%
X176450000Y-127080000D03*
X176450000Y-128040000D03*
%TD*%
D16*
%TO.C,D44*%
X119060000Y-107480000D03*
X119060000Y-104180000D03*
%TD*%
D17*
%TO.C,R86*%
X67810000Y-144770000D03*
X67810000Y-145730000D03*
%TD*%
%TO.C,C79*%
X290260000Y-144770000D03*
X290260000Y-145730000D03*
%TD*%
D23*
%TO.C,SW31*%
X337820000Y-102393750D03*
D22*
X346710000Y-99853750D03*
D23*
X347980000Y-102393750D03*
D24*
X342900000Y-102393750D03*
D22*
X340360000Y-97313750D03*
D25*
X336804000Y-97313750D03*
X350266000Y-99853750D03*
%TD*%
D17*
%TO.C,C65*%
X290780000Y-127080000D03*
X290780000Y-128040000D03*
%TD*%
D43*
%TO.C,C5*%
X208970000Y-160220000D03*
X210870000Y-160220000D03*
%TD*%
D44*
%TO.C,C13*%
X201690000Y-153570000D03*
X201690000Y-156445000D03*
%TD*%
D11*
%TO.C,D156*%
X61910000Y-145570000D03*
D18*
X64577000Y-144770000D03*
D19*
X64551600Y-146370000D03*
D20*
X59344600Y-146370000D03*
D21*
X59268400Y-144770000D03*
%TD*%
D11*
%TO.C,D165*%
X80960000Y-164620000D03*
D12*
X78293000Y-165420000D03*
D21*
X78318400Y-163820000D03*
D28*
X83525400Y-163820000D03*
D19*
X83601600Y-165420000D03*
%TD*%
D17*
%TO.C,R85*%
X86850000Y-144770000D03*
X86850000Y-145730000D03*
%TD*%
D16*
%TO.C,D26*%
X185740000Y-88380000D03*
X185740000Y-85080000D03*
%TD*%
%TO.C,D11*%
X204780000Y-69280000D03*
X204780000Y-65980000D03*
%TD*%
D17*
%TO.C,R79*%
X215450000Y-144770000D03*
X215450000Y-145730000D03*
%TD*%
D11*
%TO.C,D151*%
X171450000Y-145570000D03*
D18*
X174117000Y-144770000D03*
D19*
X174091600Y-146370000D03*
D20*
X168884600Y-146370000D03*
D21*
X168808400Y-144770000D03*
%TD*%
D27*
%TO.C,C100*%
X57290000Y-165420000D03*
X57290000Y-164460000D03*
%TD*%
D17*
%TO.C,C60*%
X113990000Y-106670000D03*
X113990000Y-107630000D03*
%TD*%
D16*
%TO.C,D32*%
X329890000Y-107480000D03*
X329890000Y-104180000D03*
%TD*%
%TO.C,D64*%
X276230000Y-145110000D03*
X276230000Y-141810000D03*
%TD*%
D45*
%TO.C,R7*%
X209027500Y-157630000D03*
X210852500Y-157630000D03*
%TD*%
%TO.C,R3*%
X352457500Y-114600000D03*
X354282500Y-114600000D03*
%TD*%
D17*
%TO.C,R72*%
X56130000Y-127080000D03*
X56130000Y-128040000D03*
%TD*%
D27*
%TO.C,C95*%
X152680000Y-165440000D03*
X152680000Y-164480000D03*
%TD*%
D22*
%TO.C,SW78*%
X154622500Y-154463750D03*
D24*
X157162500Y-159543750D03*
D22*
X160972500Y-157003750D03*
D23*
X162242500Y-159543750D03*
X152082500Y-159543750D03*
D25*
X151066500Y-154463750D03*
X164528500Y-157003750D03*
%TD*%
D11*
%TO.C,D93*%
X195260000Y-69370000D03*
D18*
X197927000Y-68570000D03*
D19*
X197901600Y-70170000D03*
D20*
X192694600Y-70170000D03*
D21*
X192618400Y-68570000D03*
%TD*%
D17*
%TO.C,R83*%
X139250000Y-144770000D03*
X139250000Y-145730000D03*
%TD*%
D27*
%TO.C,C92*%
X316830000Y-165420000D03*
X316830000Y-164460000D03*
%TD*%
D23*
%TO.C,SW26*%
X162242500Y-83343750D03*
X152082500Y-83343750D03*
D22*
X160972500Y-80803750D03*
D24*
X157162500Y-83343750D03*
D22*
X154622500Y-78263750D03*
D25*
X151066500Y-78263750D03*
X164528500Y-80803750D03*
%TD*%
D16*
%TO.C,D48*%
X322570000Y-126470000D03*
X322570000Y-123170000D03*
%TD*%
D22*
%TO.C,SW46*%
X337978750Y-116363750D03*
X344328750Y-118903750D03*
D23*
X335438750Y-121443750D03*
X345598750Y-121443750D03*
D24*
X340518750Y-121443750D03*
D25*
X334422750Y-116363750D03*
X347884750Y-118903750D03*
%TD*%
D22*
%TO.C,SW50*%
X254635000Y-116363750D03*
D23*
X252095000Y-121443750D03*
X262255000Y-121443750D03*
D22*
X260985000Y-118903750D03*
D24*
X257175000Y-121443750D03*
D25*
X251079000Y-116363750D03*
X264541000Y-118903750D03*
%TD*%
D11*
%TO.C,D125*%
X128590000Y-107470000D03*
D18*
X131257000Y-106670000D03*
D19*
X131231600Y-108270000D03*
D20*
X126024600Y-108270000D03*
D21*
X125948400Y-106670000D03*
%TD*%
D16*
%TO.C,D24*%
X223840000Y-88380000D03*
X223840000Y-85080000D03*
%TD*%
%TO.C,D45*%
X100010000Y-107480000D03*
X100010000Y-104180000D03*
%TD*%
D11*
%TO.C,D113*%
X61910000Y-88420000D03*
D12*
X59243000Y-89220000D03*
D21*
X59268400Y-87620000D03*
D28*
X64475400Y-87620000D03*
D19*
X64551600Y-89220000D03*
%TD*%
D11*
%TO.C,D140*%
X123820000Y-126520000D03*
D12*
X121153000Y-127320000D03*
D21*
X121178400Y-125720000D03*
D28*
X126385400Y-125720000D03*
D19*
X126461600Y-127320000D03*
%TD*%
D11*
%TO.C,D122*%
X185740000Y-107470000D03*
D18*
X188407000Y-106670000D03*
D19*
X188381600Y-108270000D03*
D20*
X183174600Y-108270000D03*
D21*
X183098400Y-106670000D03*
%TD*%
D46*
%TO.C,D16*%
X69110000Y-72700000D03*
X65810000Y-72700000D03*
%TD*%
D17*
%TO.C,C89*%
X85470000Y-144770000D03*
X85470000Y-145730000D03*
%TD*%
%TO.C,C20*%
X333130000Y-68570000D03*
X333130000Y-69530000D03*
%TD*%
%TO.C,R40*%
X132330000Y-88980000D03*
X132330000Y-89940000D03*
%TD*%
%TO.C,R73*%
X341640000Y-144770000D03*
X341640000Y-145730000D03*
%TD*%
D16*
%TO.C,D69*%
X180980000Y-145110000D03*
X180980000Y-141810000D03*
%TD*%
D27*
%TO.C,C99*%
X76350000Y-165420000D03*
X76350000Y-164460000D03*
%TD*%
D11*
%TO.C,D162*%
X138110000Y-164620000D03*
D12*
X135443000Y-165420000D03*
D21*
X135468400Y-163820000D03*
D28*
X140675400Y-163820000D03*
D19*
X140751600Y-165420000D03*
%TD*%
D24*
%TO.C,SW5*%
X290512500Y-64293750D03*
D22*
X287972500Y-59213750D03*
X294322500Y-61753750D03*
D23*
X285432500Y-64293750D03*
X295592500Y-64293750D03*
D25*
X284416500Y-59213750D03*
X297878500Y-61753750D03*
%TD*%
D11*
%TO.C,D107*%
X195260000Y-88420000D03*
D12*
X192593000Y-89220000D03*
D21*
X192618400Y-87620000D03*
D28*
X197825400Y-87620000D03*
D19*
X197901600Y-89220000D03*
%TD*%
D17*
%TO.C,C49*%
X323580000Y-106670000D03*
X323580000Y-107630000D03*
%TD*%
D16*
%TO.C,D35*%
X290510000Y-107480000D03*
X290510000Y-104180000D03*
%TD*%
D17*
%TO.C,C36*%
X285980000Y-88980000D03*
X285980000Y-89940000D03*
%TD*%
D47*
%TO.C,C14*%
X245280000Y-164960000D03*
X246240000Y-164960000D03*
%TD*%
D16*
%TO.C,D19*%
X319090000Y-88380000D03*
X319090000Y-85080000D03*
%TD*%
D11*
%TO.C,D86*%
X328610000Y-69370000D03*
D18*
X331277000Y-68570000D03*
D19*
X331251600Y-70170000D03*
D20*
X326044600Y-70170000D03*
D21*
X325968400Y-68570000D03*
%TD*%
D17*
%TO.C,C35*%
X305030000Y-88980000D03*
X305030000Y-89940000D03*
%TD*%
D11*
%TO.C,D142*%
X61910000Y-126520000D03*
D12*
X59243000Y-127320000D03*
D21*
X59268400Y-125720000D03*
D28*
X64475400Y-125720000D03*
D19*
X64551600Y-127320000D03*
%TD*%
D17*
%TO.C,C27*%
X199750000Y-68570000D03*
X199750000Y-69530000D03*
%TD*%
%TO.C,C90*%
X66440000Y-144770000D03*
X66440000Y-145730000D03*
%TD*%
D16*
%TO.C,D36*%
X271410000Y-107480000D03*
X271410000Y-104180000D03*
%TD*%
%TO.C,D46*%
X71440000Y-107490000D03*
X71440000Y-104190000D03*
%TD*%
D11*
%TO.C,D146*%
X266700000Y-145570000D03*
D18*
X269367000Y-144770000D03*
D19*
X269341600Y-146370000D03*
D20*
X264134600Y-146370000D03*
D21*
X264058400Y-144770000D03*
%TD*%
D23*
%TO.C,SW48*%
X290195000Y-121443750D03*
D22*
X292735000Y-116363750D03*
D24*
X295275000Y-121443750D03*
D23*
X300355000Y-121443750D03*
D22*
X299085000Y-118903750D03*
D25*
X289179000Y-116363750D03*
X302641000Y-118903750D03*
%TD*%
D42*
%TO.C,C3*%
X213550000Y-155190000D03*
X213550000Y-153290000D03*
%TD*%
D48*
%TO.C,FB2*%
X104272500Y-65490000D03*
X102147500Y-65490000D03*
%TD*%
D27*
%TO.C,R92*%
X132160000Y-165420000D03*
X132160000Y-164460000D03*
%TD*%
D45*
%TO.C,R5*%
X353227500Y-143830000D03*
X355052500Y-143830000D03*
%TD*%
D17*
%TO.C,R75*%
X291640000Y-144770000D03*
X291640000Y-145730000D03*
%TD*%
D24*
%TO.C,SW64*%
X247650000Y-140493750D03*
D23*
X252730000Y-140493750D03*
X242570000Y-140493750D03*
D22*
X251460000Y-137953750D03*
X245110000Y-135413750D03*
D25*
X241554000Y-135413750D03*
X255016000Y-137953750D03*
%TD*%
D11*
%TO.C,D114*%
X342900000Y-107470000D03*
D18*
X345567000Y-106670000D03*
D19*
X345541600Y-108270000D03*
D20*
X340334600Y-108270000D03*
D21*
X340258400Y-106670000D03*
%TD*%
D22*
%TO.C,SW55*%
X165735000Y-118903750D03*
D24*
X161925000Y-121443750D03*
D23*
X156845000Y-121443750D03*
X167005000Y-121443750D03*
D22*
X159385000Y-116363750D03*
D25*
X155829000Y-116363750D03*
X169291000Y-118903750D03*
%TD*%
D27*
%TO.C,C91*%
X340660000Y-165420000D03*
X340660000Y-164460000D03*
%TD*%
D17*
%TO.C,R47*%
X286880000Y-106670000D03*
X286880000Y-107630000D03*
%TD*%
D22*
%TO.C,SW51*%
X235585000Y-116363750D03*
D23*
X243205000Y-121443750D03*
D22*
X241935000Y-118903750D03*
D24*
X238125000Y-121443750D03*
D23*
X233045000Y-121443750D03*
D25*
X232029000Y-116363750D03*
X245491000Y-118903750D03*
%TD*%
D17*
%TO.C,R84*%
X113040000Y-144770000D03*
X113040000Y-145730000D03*
%TD*%
D16*
%TO.C,D15*%
X128590000Y-69280000D03*
X128590000Y-65980000D03*
%TD*%
%TO.C,D53*%
X228600000Y-126480000D03*
X228600000Y-123180000D03*
%TD*%
D43*
%TO.C,C2*%
X353150000Y-140710000D03*
X355050000Y-140710000D03*
%TD*%
D22*
%TO.C,SW3*%
X332422500Y-61753750D03*
X326072500Y-59213750D03*
D23*
X323532500Y-64293750D03*
X333692500Y-64293750D03*
D24*
X328612500Y-64293750D03*
D25*
X322516500Y-59213750D03*
X335978500Y-61753750D03*
%TD*%
D17*
%TO.C,C37*%
X266950000Y-88980000D03*
X266950000Y-89940000D03*
%TD*%
D49*
%TO.C,X1*%
X86680000Y-74010000D03*
D50*
X89220000Y-74010000D03*
X91760000Y-74010000D03*
X94300000Y-74010000D03*
%TD*%
D17*
%TO.C,C81*%
X252140000Y-144770000D03*
X252140000Y-145730000D03*
%TD*%
D22*
%TO.C,SW59*%
X59372500Y-116363750D03*
X65722500Y-118903750D03*
D23*
X56832500Y-121443750D03*
X66992500Y-121443750D03*
D24*
X61912500Y-121443750D03*
D25*
X55816500Y-116363750D03*
X69278500Y-118903750D03*
%TD*%
D16*
%TO.C,D61*%
X315600000Y-145110000D03*
X315600000Y-141810000D03*
%TD*%
D11*
%TO.C,D124*%
X147640000Y-107470000D03*
D18*
X150307000Y-106670000D03*
D19*
X150281600Y-108270000D03*
D20*
X145074600Y-108270000D03*
D21*
X144998400Y-106670000D03*
%TD*%
D22*
%TO.C,SW17*%
X326072500Y-78263750D03*
D24*
X328612500Y-83343750D03*
D22*
X332422500Y-80803750D03*
D23*
X323532500Y-83343750D03*
X333692500Y-83343750D03*
D25*
X322516500Y-78263750D03*
X335978500Y-80803750D03*
%TD*%
D17*
%TO.C,C39*%
X228830000Y-88980000D03*
X228830000Y-89940000D03*
%TD*%
D24*
%TO.C,SW67*%
X190500000Y-140493750D03*
D22*
X187960000Y-135413750D03*
D23*
X185420000Y-140493750D03*
D22*
X194310000Y-137953750D03*
D23*
X195580000Y-140493750D03*
D25*
X184404000Y-135413750D03*
X197866000Y-137953750D03*
%TD*%
D24*
%TO.C,SW40*%
X166687500Y-102393750D03*
D23*
X161607500Y-102393750D03*
X171767500Y-102393750D03*
D22*
X170497500Y-99853750D03*
X164147500Y-97313750D03*
D25*
X160591500Y-97313750D03*
X174053500Y-99853750D03*
%TD*%
D23*
%TO.C,SW43*%
X114617500Y-102393750D03*
D24*
X109537500Y-102393750D03*
D22*
X106997500Y-97313750D03*
X113347500Y-99853750D03*
D23*
X104457500Y-102393750D03*
D25*
X103441500Y-97313750D03*
X116903500Y-99853750D03*
%TD*%
D16*
%TO.C,D59*%
X114300000Y-126470000D03*
X114300000Y-123170000D03*
%TD*%
D51*
%TO.C,Q1*%
X352420000Y-119237500D03*
X354320000Y-119237500D03*
X353370000Y-117362500D03*
%TD*%
D11*
%TO.C,D157*%
X345280000Y-164620000D03*
D12*
X342613000Y-165420000D03*
D21*
X342638400Y-163820000D03*
D28*
X347845400Y-163820000D03*
D19*
X347921600Y-165420000D03*
%TD*%
D11*
%TO.C,D154*%
X107150000Y-145570000D03*
D18*
X109817000Y-144770000D03*
D19*
X109791600Y-146370000D03*
D20*
X104584600Y-146370000D03*
D21*
X104508400Y-144770000D03*
%TD*%
D17*
%TO.C,C62*%
X66430000Y-106670000D03*
X66430000Y-107630000D03*
%TD*%
%TO.C,R34*%
X246640000Y-88980000D03*
X246640000Y-89940000D03*
%TD*%
D11*
%TO.C,D138*%
X161920000Y-126520000D03*
D12*
X159253000Y-127320000D03*
D21*
X159278400Y-125720000D03*
D28*
X164485400Y-125720000D03*
D19*
X164561600Y-127320000D03*
%TD*%
D11*
%TO.C,D139*%
X142870000Y-126520000D03*
D12*
X140203000Y-127320000D03*
D21*
X140228400Y-125720000D03*
D28*
X145435400Y-125720000D03*
D19*
X145511600Y-127320000D03*
%TD*%
D11*
%TO.C,D112*%
X90490000Y-88420000D03*
D12*
X87823000Y-89220000D03*
D21*
X87848400Y-87620000D03*
D28*
X93055400Y-87620000D03*
D19*
X93131600Y-89220000D03*
%TD*%
D22*
%TO.C,SW60*%
X339566250Y-137953750D03*
D23*
X330676250Y-140493750D03*
X340836250Y-140493750D03*
D24*
X323818250Y-148748750D03*
X347694250Y-148748750D03*
D22*
X333216250Y-135413750D03*
D52*
X323818250Y-133508750D03*
D24*
X335756250Y-140493750D03*
D52*
X347694250Y-133508750D03*
D25*
X329660250Y-135413750D03*
X343122250Y-137953750D03*
%TD*%
D43*
%TO.C,C4*%
X203270000Y-161060000D03*
X205170000Y-161060000D03*
%TD*%
D11*
%TO.C,D118*%
X261940000Y-107470000D03*
D18*
X264607000Y-106670000D03*
D19*
X264581600Y-108270000D03*
D20*
X259374600Y-108270000D03*
D21*
X259298400Y-106670000D03*
%TD*%
D17*
%TO.C,C78*%
X309310000Y-144770000D03*
X309310000Y-145730000D03*
%TD*%
D11*
%TO.C,D161*%
X157170000Y-164640000D03*
D12*
X154503000Y-165440000D03*
D21*
X154528400Y-163840000D03*
D28*
X159735400Y-163840000D03*
D19*
X159811600Y-165440000D03*
%TD*%
D11*
%TO.C,D144*%
X304800000Y-145570000D03*
D18*
X307467000Y-144770000D03*
D19*
X307441600Y-146370000D03*
D20*
X302234600Y-146370000D03*
D21*
X302158400Y-144770000D03*
%TD*%
D16*
%TO.C,D9*%
X242890000Y-69290000D03*
X242890000Y-65990000D03*
%TD*%
D22*
%TO.C,SW35*%
X265747500Y-99853750D03*
D23*
X256857500Y-102393750D03*
D22*
X259397500Y-97313750D03*
D24*
X261937500Y-102393750D03*
D23*
X267017500Y-102393750D03*
D25*
X255841500Y-97313750D03*
X269303500Y-99853750D03*
%TD*%
D22*
%TO.C,SW25*%
X180022500Y-80803750D03*
D23*
X171132500Y-83343750D03*
D22*
X173672500Y-78263750D03*
D24*
X176212500Y-83343750D03*
D23*
X181292500Y-83343750D03*
D25*
X170116500Y-78263750D03*
X183578500Y-80803750D03*
%TD*%
D22*
%TO.C,SW49*%
X273685000Y-116363750D03*
D23*
X271145000Y-121443750D03*
D22*
X280035000Y-118903750D03*
D23*
X281305000Y-121443750D03*
D24*
X276225000Y-121443750D03*
D25*
X270129000Y-116363750D03*
X283591000Y-118903750D03*
%TD*%
D24*
%TO.C,SW2*%
X347662500Y-64293750D03*
D23*
X352742500Y-64293750D03*
D22*
X345122500Y-59213750D03*
D23*
X342582500Y-64293750D03*
D22*
X351472500Y-61753750D03*
D25*
X341566500Y-59213750D03*
X355028500Y-61753750D03*
%TD*%
D22*
%TO.C,SW21*%
X256222500Y-80803750D03*
D23*
X257492500Y-83343750D03*
D24*
X252412500Y-83343750D03*
D22*
X249872500Y-78263750D03*
D23*
X247332500Y-83343750D03*
D25*
X246316500Y-78263750D03*
X259778500Y-80803750D03*
%TD*%
D17*
%TO.C,R70*%
X118050000Y-127080000D03*
X118050000Y-128040000D03*
%TD*%
%TO.C,C19*%
X352160000Y-68570000D03*
X352160000Y-69530000D03*
%TD*%
%TO.C,C63*%
X336010000Y-127080000D03*
X336010000Y-128040000D03*
%TD*%
D11*
%TO.C,D94*%
X176210000Y-69370000D03*
D18*
X178877000Y-68570000D03*
D19*
X178851600Y-70170000D03*
D20*
X173644600Y-70170000D03*
D21*
X173568400Y-68570000D03*
%TD*%
D16*
%TO.C,D60*%
X71440000Y-126480000D03*
X71440000Y-123180000D03*
%TD*%
%TO.C,D22*%
X261930000Y-88390000D03*
X261930000Y-85090000D03*
%TD*%
D53*
%TO.C,R13*%
X260940000Y-154490000D03*
X261960000Y-154490000D03*
%TD*%
D16*
%TO.C,D68*%
X200020000Y-145110000D03*
X200020000Y-141810000D03*
%TD*%
%TO.C,D31*%
X71430000Y-88390000D03*
X71430000Y-85090000D03*
%TD*%
D17*
%TO.C,C77*%
X340300000Y-144770000D03*
X340300000Y-145730000D03*
%TD*%
%TO.C,C57*%
X171200000Y-106670000D03*
X171200000Y-107630000D03*
%TD*%
D16*
%TO.C,D34*%
X309520000Y-107480000D03*
X309520000Y-104180000D03*
%TD*%
%TO.C,D77*%
X309560000Y-161920000D03*
X309560000Y-158620000D03*
%TD*%
D17*
%TO.C,R54*%
X153510000Y-106670000D03*
X153510000Y-107630000D03*
%TD*%
D22*
%TO.C,SW73*%
X65722500Y-137953750D03*
D24*
X61912500Y-140493750D03*
D23*
X66992500Y-140493750D03*
X56832500Y-140493750D03*
D22*
X59372500Y-135413750D03*
D25*
X55816500Y-135413750D03*
X69278500Y-137953750D03*
%TD*%
D54*
%TO.C,R11*%
X267120000Y-157417500D03*
X267120000Y-159242500D03*
%TD*%
D17*
%TO.C,C74*%
X119300000Y-127080000D03*
X119300000Y-128040000D03*
%TD*%
D11*
%TO.C,D90*%
X252410000Y-69370000D03*
D18*
X255077000Y-68570000D03*
D19*
X255051600Y-70170000D03*
D20*
X249844600Y-70170000D03*
D21*
X249768400Y-68570000D03*
%TD*%
D46*
%TO.C,D2*%
X210890000Y-163050000D03*
X207590000Y-163050000D03*
%TD*%
D11*
%TO.C,D135*%
X219070000Y-126520000D03*
D12*
X216403000Y-127320000D03*
D21*
X216428400Y-125720000D03*
D28*
X221635400Y-125720000D03*
D19*
X221711600Y-127320000D03*
%TD*%
D17*
%TO.C,R48*%
X267830000Y-106670000D03*
X267830000Y-107630000D03*
%TD*%
D27*
%TO.C,R91*%
X151340000Y-165440000D03*
X151340000Y-164480000D03*
%TD*%
D24*
%TO.C,SW47*%
X314325000Y-121443750D03*
D23*
X309245000Y-121443750D03*
D22*
X311785000Y-116363750D03*
D23*
X319405000Y-121443750D03*
D22*
X318135000Y-118903750D03*
D25*
X308229000Y-116363750D03*
X321691000Y-118903750D03*
%TD*%
D17*
%TO.C,C58*%
X152150000Y-106670000D03*
X152150000Y-107630000D03*
%TD*%
D11*
%TO.C,D166*%
X61910000Y-164620000D03*
D12*
X59243000Y-165420000D03*
D21*
X59268400Y-163820000D03*
D28*
X64475400Y-163820000D03*
D19*
X64551600Y-165420000D03*
%TD*%
D22*
%TO.C,SW14*%
X116522500Y-59213750D03*
D23*
X113982500Y-64293750D03*
D24*
X119062500Y-64293750D03*
D22*
X122872500Y-61753750D03*
D23*
X124142500Y-64293750D03*
D25*
X112966500Y-59213750D03*
X126428500Y-61753750D03*
%TD*%
D24*
%TO.C,SW36*%
X242887500Y-102393750D03*
D22*
X240347500Y-97313750D03*
D23*
X237807500Y-102393750D03*
D22*
X246697500Y-99853750D03*
D23*
X247967500Y-102393750D03*
D25*
X236791500Y-97313750D03*
X250253500Y-99853750D03*
%TD*%
D27*
%TO.C,R93*%
X113130000Y-165420000D03*
X113130000Y-164460000D03*
%TD*%
D11*
%TO.C,D87*%
X309560000Y-69370000D03*
D18*
X312227000Y-68570000D03*
D19*
X312201600Y-70170000D03*
D20*
X306994600Y-70170000D03*
D21*
X306918400Y-68570000D03*
%TD*%
D16*
%TO.C,D78*%
X216710000Y-161920000D03*
X216710000Y-158620000D03*
%TD*%
D22*
%TO.C,SW65*%
X226060000Y-135413750D03*
D23*
X233680000Y-140493750D03*
D22*
X232410000Y-137953750D03*
D23*
X223520000Y-140493750D03*
D24*
X228600000Y-140493750D03*
D25*
X222504000Y-135413750D03*
X235966000Y-137953750D03*
%TD*%
D17*
%TO.C,R61*%
X289520000Y-127080000D03*
X289520000Y-128040000D03*
%TD*%
D16*
%TO.C,D49*%
X304800000Y-126480000D03*
X304800000Y-123180000D03*
%TD*%
D11*
%TO.C,D150*%
X190500000Y-145570000D03*
D18*
X193167000Y-144770000D03*
D19*
X193141600Y-146370000D03*
D20*
X187934600Y-146370000D03*
D21*
X187858400Y-144770000D03*
%TD*%
D23*
%TO.C,SW61*%
X299720000Y-140493750D03*
D24*
X304800000Y-140493750D03*
D22*
X302260000Y-135413750D03*
D23*
X309880000Y-140493750D03*
D22*
X308610000Y-137953750D03*
D25*
X298704000Y-135413750D03*
X312166000Y-137953750D03*
%TD*%
D17*
%TO.C,C54*%
X228360000Y-106670000D03*
X228360000Y-107630000D03*
%TD*%
D26*
%TO.C,C16*%
X263740000Y-165560000D03*
X262780000Y-165560000D03*
%TD*%
D45*
%TO.C,R8*%
X265867500Y-165100000D03*
X267692500Y-165100000D03*
%TD*%
D11*
%TO.C,D97*%
X119060000Y-69370000D03*
D18*
X121727000Y-68570000D03*
D19*
X121701600Y-70170000D03*
D20*
X116494600Y-70170000D03*
D21*
X116418400Y-68570000D03*
%TD*%
D47*
%TO.C,C8*%
X260960000Y-153330000D03*
X261920000Y-153330000D03*
%TD*%
D16*
%TO.C,D82*%
X109530000Y-164580000D03*
X109530000Y-161280000D03*
%TD*%
%TO.C,D1*%
X353730000Y-135020000D03*
X353730000Y-131720000D03*
%TD*%
%TO.C,D50*%
X285750000Y-126480000D03*
X285750000Y-123180000D03*
%TD*%
D45*
%TO.C,R4*%
X353217500Y-137830000D03*
X355042500Y-137830000D03*
%TD*%
D23*
%TO.C,SW30*%
X66992500Y-83343750D03*
D22*
X65722500Y-80803750D03*
D24*
X61912500Y-83343750D03*
D22*
X59372500Y-78263750D03*
D23*
X56832500Y-83343750D03*
D25*
X55816500Y-78263750D03*
X69278500Y-80803750D03*
%TD*%
D24*
%TO.C,SW57*%
X123825000Y-121443750D03*
D23*
X118745000Y-121443750D03*
D22*
X127635000Y-118903750D03*
D23*
X128905000Y-121443750D03*
D22*
X121285000Y-116363750D03*
D25*
X117729000Y-116363750D03*
X131191000Y-118903750D03*
%TD*%
D11*
%TO.C,D128*%
X61910000Y-107470000D03*
D18*
X64577000Y-106670000D03*
D19*
X64551600Y-108270000D03*
D20*
X59344600Y-108270000D03*
D21*
X59268400Y-106670000D03*
%TD*%
D17*
%TO.C,R55*%
X134490000Y-106670000D03*
X134490000Y-107630000D03*
%TD*%
%TO.C,C38*%
X247890000Y-88980000D03*
X247890000Y-89940000D03*
%TD*%
D16*
%TO.C,D51*%
X266700000Y-126490000D03*
X266700000Y-123190000D03*
%TD*%
D11*
%TO.C,D102*%
X290510000Y-88420000D03*
D12*
X287843000Y-89220000D03*
D21*
X287868400Y-87620000D03*
D28*
X293075400Y-87620000D03*
D19*
X293151600Y-89220000D03*
%TD*%
D11*
%TO.C,D98*%
X61910000Y-69370000D03*
D18*
X64577000Y-68570000D03*
D19*
X64551600Y-70170000D03*
D20*
X59344600Y-70170000D03*
D21*
X59268400Y-68570000D03*
%TD*%
D16*
%TO.C,D62*%
X313050000Y-145110000D03*
X313050000Y-141810000D03*
%TD*%
D11*
%TO.C,D92*%
X214310000Y-69370000D03*
D18*
X216977000Y-68570000D03*
D19*
X216951600Y-70170000D03*
D20*
X211744600Y-70170000D03*
D21*
X211668400Y-68570000D03*
%TD*%
D16*
%TO.C,D47*%
X325130000Y-126480000D03*
X325130000Y-123180000D03*
%TD*%
D17*
%TO.C,C29*%
X161625000Y-68570000D03*
X161625000Y-69530000D03*
%TD*%
%TO.C,C80*%
X271250000Y-144770000D03*
X271250000Y-145730000D03*
%TD*%
D55*
%TO.C,R6*%
X210912500Y-165880000D03*
X209087500Y-165880000D03*
%TD*%
D17*
%TO.C,R27*%
X124930000Y-68570000D03*
X124930000Y-69530000D03*
%TD*%
%TO.C,C43*%
X152640000Y-88980000D03*
X152640000Y-89940000D03*
%TD*%
D11*
%TO.C,D147*%
X247650000Y-145570000D03*
D18*
X250317000Y-144770000D03*
D19*
X250291600Y-146370000D03*
D20*
X245084600Y-146370000D03*
D21*
X245008400Y-144770000D03*
%TD*%
D11*
%TO.C,D126*%
X109540000Y-107470000D03*
D18*
X112207000Y-106670000D03*
D19*
X112181600Y-108270000D03*
D20*
X106974600Y-108270000D03*
D21*
X106898400Y-106670000D03*
%TD*%
D17*
%TO.C,R41*%
X113280000Y-88980000D03*
X113280000Y-89940000D03*
%TD*%
%TO.C,R42*%
X84670000Y-88980000D03*
X84670000Y-89940000D03*
%TD*%
%TO.C,R74*%
X310700000Y-144770000D03*
X310700000Y-145730000D03*
%TD*%
%TO.C,R82*%
X158300000Y-144770000D03*
X158300000Y-145730000D03*
%TD*%
%TO.C,C22*%
X294970000Y-68570000D03*
X294970000Y-69530000D03*
%TD*%
D23*
%TO.C,SW22*%
X238442500Y-83343750D03*
D22*
X237172500Y-80803750D03*
D24*
X233362500Y-83343750D03*
D22*
X230822500Y-78263750D03*
D23*
X228282500Y-83343750D03*
D25*
X227266500Y-78263750D03*
X240728500Y-80803750D03*
%TD*%
D16*
%TO.C,D33*%
X327340000Y-107480000D03*
X327340000Y-104180000D03*
%TD*%
%TO.C,D67*%
X219080000Y-145110000D03*
X219080000Y-141810000D03*
%TD*%
D17*
%TO.C,C64*%
X309820000Y-127080000D03*
X309820000Y-128040000D03*
%TD*%
%TO.C,R60*%
X308560000Y-127080000D03*
X308560000Y-128040000D03*
%TD*%
%TO.C,R23*%
X201140000Y-68570000D03*
X201140000Y-69530000D03*
%TD*%
D11*
%TO.C,D109*%
X157160000Y-88420000D03*
D12*
X154493000Y-89220000D03*
D21*
X154518400Y-87620000D03*
D28*
X159725400Y-87620000D03*
D19*
X159801600Y-89220000D03*
%TD*%
D17*
%TO.C,R19*%
X277350000Y-68570000D03*
X277350000Y-69530000D03*
%TD*%
D56*
%TO.C,F1*%
X192200000Y-153332500D03*
X192200000Y-157607500D03*
%TD*%
D27*
%TO.C,C11*%
X242370000Y-161620000D03*
X242370000Y-160660000D03*
%TD*%
D17*
%TO.C,R59*%
X334750000Y-127080000D03*
X334750000Y-128040000D03*
%TD*%
%TO.C,R69*%
X137090000Y-127080000D03*
X137090000Y-128040000D03*
%TD*%
D16*
%TO.C,D65*%
X257180000Y-145110000D03*
X257180000Y-141810000D03*
%TD*%
D11*
%TO.C,D85*%
X347662500Y-69375000D03*
D18*
X350329500Y-68575000D03*
D19*
X350304100Y-70175000D03*
D20*
X345097100Y-70175000D03*
D21*
X345020900Y-68575000D03*
%TD*%
D11*
%TO.C,D130*%
X314320000Y-126520000D03*
D12*
X311653000Y-127320000D03*
D21*
X311678400Y-125720000D03*
D28*
X316885400Y-125720000D03*
D19*
X316961600Y-127320000D03*
%TD*%
D16*
%TO.C,D80*%
X146360000Y-164580000D03*
X146360000Y-161280000D03*
%TD*%
D11*
%TO.C,D116*%
X300040000Y-107470000D03*
D18*
X302707000Y-106670000D03*
D19*
X302681600Y-108270000D03*
D20*
X297474600Y-108270000D03*
D21*
X297398400Y-106670000D03*
%TD*%
D17*
%TO.C,R62*%
X270460000Y-127080000D03*
X270460000Y-128040000D03*
%TD*%
D54*
%TO.C,R14*%
X81050000Y-79627500D03*
X81050000Y-81452500D03*
%TD*%
D40*
%TO.C,R1*%
X87140000Y-62322500D03*
X87140000Y-60497500D03*
%TD*%
D16*
%TO.C,D17*%
X339410000Y-88380000D03*
X339410000Y-85080000D03*
%TD*%
D43*
%TO.C,C18*%
X77110000Y-83570000D03*
X79010000Y-83570000D03*
%TD*%
D23*
%TO.C,SW34*%
X275907500Y-102393750D03*
D24*
X280987500Y-102393750D03*
D22*
X278447500Y-97313750D03*
X284797500Y-99853750D03*
D23*
X286067500Y-102393750D03*
D25*
X274891500Y-97313750D03*
X288353500Y-99853750D03*
%TD*%
D11*
%TO.C,D145*%
X285750000Y-145570000D03*
D18*
X288417000Y-144770000D03*
D19*
X288391600Y-146370000D03*
D20*
X283184600Y-146370000D03*
D21*
X283108400Y-144770000D03*
%TD*%
D24*
%TO.C,SW52*%
X219075000Y-121443750D03*
D22*
X222885000Y-118903750D03*
X216535000Y-116363750D03*
D23*
X213995000Y-121443750D03*
X224155000Y-121443750D03*
D25*
X212979000Y-116363750D03*
X226441000Y-118903750D03*
%TD*%
D24*
%TO.C,SW63*%
X266700000Y-140493750D03*
D23*
X261620000Y-140493750D03*
D22*
X270510000Y-137953750D03*
D23*
X271780000Y-140493750D03*
D22*
X264160000Y-135413750D03*
D25*
X260604000Y-135413750D03*
X274066000Y-137953750D03*
%TD*%
D17*
%TO.C,C21*%
X314010000Y-68570000D03*
X314010000Y-69530000D03*
%TD*%
D22*
%TO.C,SW45*%
X65722500Y-99853750D03*
D24*
X61912500Y-102393750D03*
D22*
X59372500Y-97313750D03*
D23*
X66992500Y-102393750D03*
X56832500Y-102393750D03*
D25*
X55816500Y-97313750D03*
X69278500Y-99853750D03*
%TD*%
D22*
%TO.C,SW20*%
X275272500Y-80803750D03*
D23*
X266382500Y-83343750D03*
X276542500Y-83343750D03*
D24*
X271462500Y-83343750D03*
D22*
X268922500Y-78263750D03*
D25*
X265366500Y-78263750D03*
X278828500Y-80803750D03*
%TD*%
D17*
%TO.C,R20*%
X258300000Y-68570000D03*
X258300000Y-69530000D03*
%TD*%
D27*
%TO.C,R88*%
X315530000Y-165420000D03*
X315530000Y-164460000D03*
%TD*%
D16*
%TO.C,D12*%
X185740000Y-69280000D03*
X185740000Y-65980000D03*
%TD*%
D11*
%TO.C,D153*%
X133350000Y-145570000D03*
D18*
X136017000Y-144770000D03*
D19*
X135991600Y-146370000D03*
D20*
X130784600Y-146370000D03*
D21*
X130708400Y-144770000D03*
%TD*%
D16*
%TO.C,D83*%
X90480000Y-164580000D03*
X90480000Y-161280000D03*
%TD*%
%TO.C,D27*%
X166690000Y-88390000D03*
X166690000Y-85090000D03*
%TD*%
D17*
%TO.C,C42*%
X171690000Y-88980000D03*
X171690000Y-89940000D03*
%TD*%
D16*
%TO.C,D4*%
X336860000Y-69280000D03*
X336860000Y-65980000D03*
%TD*%
D22*
%TO.C,SW4*%
X313372500Y-61753750D03*
D24*
X309562500Y-64293750D03*
D23*
X304482500Y-64293750D03*
D22*
X307022500Y-59213750D03*
D23*
X314642500Y-64293750D03*
D25*
X303466500Y-59213750D03*
X316928500Y-61753750D03*
%TD*%
D16*
%TO.C,D56*%
X171450000Y-126470000D03*
X171450000Y-123170000D03*
%TD*%
D17*
%TO.C,R16*%
X334510000Y-68570000D03*
X334510000Y-69530000D03*
%TD*%
D11*
%TO.C,D103*%
X271460000Y-88420000D03*
D12*
X268793000Y-89220000D03*
D21*
X268818400Y-87620000D03*
D28*
X274025400Y-87620000D03*
D19*
X274101600Y-89220000D03*
%TD*%
D27*
%TO.C,C96*%
X133480000Y-165420000D03*
X133480000Y-164460000D03*
%TD*%
D22*
%TO.C,SW42*%
X132397500Y-99853750D03*
D24*
X128587500Y-102393750D03*
D23*
X133667500Y-102393750D03*
X123507500Y-102393750D03*
D22*
X126047500Y-97313750D03*
D25*
X122491500Y-97313750D03*
X135953500Y-99853750D03*
%TD*%
D17*
%TO.C,C33*%
X343150000Y-88980000D03*
X343150000Y-89940000D03*
%TD*%
D57*
%TO.C,U5*%
X76160000Y-81527500D03*
D58*
X76160000Y-80577500D03*
X76160000Y-79627500D03*
X73960000Y-79627500D03*
X73960000Y-80577500D03*
X73960000Y-81527500D03*
%TD*%
D17*
%TO.C,R66*%
X194250000Y-127080000D03*
X194250000Y-128040000D03*
%TD*%
D16*
%TO.C,D6*%
X300040000Y-69280000D03*
X300040000Y-65980000D03*
%TD*%
D23*
%TO.C,SW76*%
X302736250Y-159543750D03*
D22*
X301466250Y-157003750D03*
X295116250Y-154463750D03*
D24*
X297656250Y-159543750D03*
D23*
X292576250Y-159543750D03*
D25*
X291560250Y-154463750D03*
X305022250Y-157003750D03*
%TD*%
D17*
%TO.C,R32*%
X284730000Y-88980000D03*
X284730000Y-89940000D03*
%TD*%
D47*
%TO.C,C15*%
X258850000Y-166030000D03*
X259810000Y-166030000D03*
%TD*%
D23*
%TO.C,SW38*%
X209867500Y-102393750D03*
X199707500Y-102393750D03*
D22*
X208597500Y-99853750D03*
X202247500Y-97313750D03*
D24*
X204787500Y-102393750D03*
D25*
X198691500Y-97313750D03*
X212153500Y-99853750D03*
%TD*%
D17*
%TO.C,C82*%
X233100000Y-144770000D03*
X233100000Y-145730000D03*
%TD*%
%TO.C,C66*%
X271720000Y-127080000D03*
X271720000Y-128040000D03*
%TD*%
%TO.C,C87*%
X137830000Y-144770000D03*
X137830000Y-145730000D03*
%TD*%
D54*
%TO.C,R12*%
X263880000Y-157417500D03*
X263880000Y-159242500D03*
%TD*%
D17*
%TO.C,R22*%
X220200000Y-68570000D03*
X220200000Y-69530000D03*
%TD*%
%TO.C,R53*%
X172580000Y-106670000D03*
X172580000Y-107630000D03*
%TD*%
D24*
%TO.C,SW58*%
X104806750Y-113188750D03*
D52*
X104806750Y-128428750D03*
D23*
X97948750Y-121443750D03*
X87788750Y-121443750D03*
D24*
X80930750Y-113188750D03*
X92868750Y-121443750D03*
D22*
X90328750Y-116363750D03*
D52*
X80930750Y-128428750D03*
D22*
X96678750Y-118903750D03*
D25*
X86772750Y-116363750D03*
X100234750Y-118903750D03*
%TD*%
D17*
%TO.C,R44*%
X348810000Y-106670000D03*
X348810000Y-107630000D03*
%TD*%
%TO.C,C46*%
X85930000Y-88980000D03*
X85930000Y-89940000D03*
%TD*%
D27*
%TO.C,R87*%
X339340000Y-165420000D03*
X339340000Y-164460000D03*
%TD*%
D11*
%TO.C,D152*%
X152400000Y-145570000D03*
D18*
X155067000Y-144770000D03*
D19*
X155041600Y-146370000D03*
D20*
X149834600Y-146370000D03*
D21*
X149758400Y-144770000D03*
%TD*%
D27*
%TO.C,C97*%
X114450000Y-165420000D03*
X114450000Y-164460000D03*
%TD*%
D11*
%TO.C,D106*%
X214310000Y-88420000D03*
D12*
X211643000Y-89220000D03*
D21*
X211668400Y-87620000D03*
D28*
X216875400Y-87620000D03*
D19*
X216951600Y-89220000D03*
%TD*%
D16*
%TO.C,D14*%
X147630000Y-69290000D03*
X147630000Y-65990000D03*
%TD*%
D17*
%TO.C,R39*%
X151380000Y-88980000D03*
X151380000Y-89940000D03*
%TD*%
%TO.C,R30*%
X322830000Y-88980000D03*
X322830000Y-89940000D03*
%TD*%
D59*
%TO.C,FB1*%
X81650000Y-67257500D03*
X81650000Y-69382500D03*
%TD*%
D22*
%TO.C,SW32*%
X322897500Y-99853750D03*
D23*
X324167500Y-102393750D03*
X314007500Y-102393750D03*
D22*
X316547500Y-97313750D03*
D24*
X319087500Y-102393750D03*
D25*
X312991500Y-97313750D03*
X326453500Y-99853750D03*
%TD*%
D17*
%TO.C,C31*%
X123590000Y-68570000D03*
X123590000Y-69530000D03*
%TD*%
D11*
%TO.C,D108*%
X176210000Y-88420000D03*
D12*
X173543000Y-89220000D03*
D21*
X173568400Y-87620000D03*
D28*
X178775400Y-87620000D03*
D19*
X178851600Y-89220000D03*
%TD*%
D17*
%TO.C,C68*%
X233620000Y-127080000D03*
X233620000Y-128040000D03*
%TD*%
%TO.C,R71*%
X87090000Y-127080000D03*
X87090000Y-128040000D03*
%TD*%
D16*
%TO.C,D23*%
X242890000Y-88380000D03*
X242890000Y-85080000D03*
%TD*%
D17*
%TO.C,R63*%
X251400000Y-127080000D03*
X251400000Y-128040000D03*
%TD*%
%TO.C,C51*%
X285500000Y-106670000D03*
X285500000Y-107630000D03*
%TD*%
D11*
%TO.C,D104*%
X252410000Y-88420000D03*
D12*
X249743000Y-89220000D03*
D21*
X249768400Y-87620000D03*
D28*
X254975400Y-87620000D03*
D19*
X255051600Y-89220000D03*
%TD*%
D17*
%TO.C,C47*%
X57400000Y-88980000D03*
X57400000Y-89940000D03*
%TD*%
%TO.C,R52*%
X191630000Y-106670000D03*
X191630000Y-107630000D03*
%TD*%
%TO.C,R77*%
X253550000Y-144770000D03*
X253550000Y-145730000D03*
%TD*%
%TO.C,R37*%
X189490000Y-88980000D03*
X189490000Y-89940000D03*
%TD*%
D52*
%TO.C,SW29*%
X102425500Y-76358750D03*
D23*
X85407500Y-83343750D03*
D24*
X102425500Y-91598750D03*
D23*
X95567500Y-83343750D03*
D22*
X94297500Y-80803750D03*
D52*
X78549500Y-76358750D03*
D22*
X87947500Y-78263750D03*
D24*
X78549500Y-91598750D03*
X90487500Y-83343750D03*
D25*
X84391500Y-78263750D03*
X97853500Y-80803750D03*
%TD*%
D11*
%TO.C,D105*%
X233360000Y-88420000D03*
D12*
X230693000Y-89220000D03*
D21*
X230718400Y-87620000D03*
D28*
X235925400Y-87620000D03*
D19*
X236001600Y-89220000D03*
%TD*%
D27*
%TO.C,C94*%
X221590000Y-165420000D03*
X221590000Y-164460000D03*
%TD*%
D23*
%TO.C,SW68*%
X176530000Y-140493750D03*
D24*
X171450000Y-140493750D03*
D22*
X168910000Y-135413750D03*
X175260000Y-137953750D03*
D23*
X166370000Y-140493750D03*
D25*
X165354000Y-135413750D03*
X178816000Y-137953750D03*
%TD*%
D27*
%TO.C,C98*%
X95410000Y-165420000D03*
X95410000Y-164460000D03*
%TD*%
D17*
%TO.C,R35*%
X227580000Y-88980000D03*
X227580000Y-89940000D03*
%TD*%
%TO.C,R56*%
X115430000Y-106670000D03*
X115430000Y-107630000D03*
%TD*%
D16*
%TO.C,D38*%
X233370000Y-107480000D03*
X233370000Y-104180000D03*
%TD*%
D22*
%TO.C,SW53*%
X197485000Y-116363750D03*
X203835000Y-118903750D03*
D23*
X194945000Y-121443750D03*
X205105000Y-121443750D03*
D24*
X200025000Y-121443750D03*
D25*
X193929000Y-116363750D03*
X207391000Y-118903750D03*
%TD*%
D27*
%TO.C,R89*%
X291730000Y-165420000D03*
X291730000Y-164460000D03*
%TD*%
D11*
%TO.C,D132*%
X276220000Y-126520000D03*
D12*
X273553000Y-127320000D03*
D21*
X273578400Y-125720000D03*
D28*
X278785400Y-125720000D03*
D19*
X278861600Y-127320000D03*
%TD*%
D17*
%TO.C,R17*%
X315440000Y-68570000D03*
X315440000Y-69530000D03*
%TD*%
D23*
%TO.C,SW79*%
X133032500Y-159543750D03*
X143192500Y-159543750D03*
D22*
X141922500Y-157003750D03*
D24*
X138112500Y-159543750D03*
D22*
X135572500Y-154463750D03*
D25*
X132016500Y-154463750D03*
X145478500Y-157003750D03*
%TD*%
D17*
%TO.C,C44*%
X133590000Y-88980000D03*
X133590000Y-89940000D03*
%TD*%
D22*
%TO.C,SW10*%
X192722500Y-59213750D03*
D23*
X200342500Y-64293750D03*
X190182500Y-64293750D03*
D22*
X199072500Y-61753750D03*
D24*
X195262500Y-64293750D03*
D25*
X189166500Y-59213750D03*
X202628500Y-61753750D03*
%TD*%
D17*
%TO.C,R49*%
X248770000Y-106670000D03*
X248770000Y-107630000D03*
%TD*%
D11*
%TO.C,D115*%
X319090000Y-107470000D03*
D18*
X321757000Y-106670000D03*
D19*
X321731600Y-108270000D03*
D20*
X316524600Y-108270000D03*
D21*
X316448400Y-106670000D03*
%TD*%
D17*
%TO.C,C25*%
X237840000Y-68570000D03*
X237840000Y-69530000D03*
%TD*%
D60*
%TO.C,Y1*%
X196610000Y-157360000D03*
X198810000Y-157360000D03*
X198810000Y-155660000D03*
X196610000Y-155660000D03*
%TD*%
D22*
%TO.C,SW80*%
X116522500Y-154463750D03*
D23*
X124142500Y-159543750D03*
D24*
X119062500Y-159543750D03*
D22*
X122872500Y-157003750D03*
D23*
X113982500Y-159543750D03*
D25*
X112966500Y-154463750D03*
X126428500Y-157003750D03*
%TD*%
D11*
%TO.C,D129*%
X340520000Y-126520000D03*
D12*
X337853000Y-127320000D03*
D21*
X337878400Y-125720000D03*
D28*
X343085400Y-125720000D03*
D19*
X343161600Y-127320000D03*
%TD*%
D53*
%TO.C,R10*%
X219490000Y-149330000D03*
X220510000Y-149330000D03*
%TD*%
D22*
%TO.C,SW13*%
X135572500Y-59213750D03*
X141922500Y-61753750D03*
D23*
X133032500Y-64293750D03*
X143192500Y-64293750D03*
D24*
X138112500Y-64293750D03*
D25*
X132016500Y-59213750D03*
X145478500Y-61753750D03*
%TD*%
D24*
%TO.C,SW62*%
X285750000Y-140493750D03*
D23*
X290830000Y-140493750D03*
D22*
X289560000Y-137953750D03*
D23*
X280670000Y-140493750D03*
D22*
X283210000Y-135413750D03*
D25*
X279654000Y-135413750D03*
X293116000Y-137953750D03*
%TD*%
D11*
%TO.C,D164*%
X100010000Y-164620000D03*
D12*
X97343000Y-165420000D03*
D21*
X97368400Y-163820000D03*
D28*
X102575400Y-163820000D03*
D19*
X102651600Y-165420000D03*
%TD*%
D22*
%TO.C,SW77*%
X230028750Y-157003750D03*
D24*
X176180750Y-151288750D03*
D22*
X223678750Y-154463750D03*
D23*
X231298750Y-159543750D03*
D24*
X276256750Y-151288750D03*
D23*
X221138750Y-159543750D03*
D24*
X226218750Y-159543750D03*
D52*
X176180750Y-166528750D03*
X276256750Y-166528750D03*
D25*
X220122750Y-154463750D03*
X233584750Y-157003750D03*
%TD*%
D22*
%TO.C,SW28*%
X122872500Y-80803750D03*
D24*
X119062500Y-83343750D03*
D22*
X116522500Y-78263750D03*
D23*
X124142500Y-83343750D03*
X113982500Y-83343750D03*
D25*
X112966500Y-78263750D03*
X126428500Y-80803750D03*
%TD*%
D11*
%TO.C,D121*%
X204790000Y-107470000D03*
D18*
X207457000Y-106670000D03*
D19*
X207431600Y-108270000D03*
D20*
X202224600Y-108270000D03*
D21*
X202148400Y-106670000D03*
%TD*%
D11*
%TO.C,D120*%
X223840000Y-107470000D03*
D18*
X226507000Y-106670000D03*
D19*
X226481600Y-108270000D03*
D20*
X221274600Y-108270000D03*
D21*
X221198400Y-106670000D03*
%TD*%
D61*
%TO.C,M1*%
X169370000Y-161730000D03*
%TD*%
D17*
%TO.C,C24*%
X256900000Y-68570000D03*
X256900000Y-69530000D03*
%TD*%
D62*
%TO.C,C1*%
X354280000Y-111830000D03*
X352380000Y-111830000D03*
%TD*%
D11*
%TO.C,D101*%
X309560000Y-88420000D03*
D12*
X306893000Y-89220000D03*
D21*
X306918400Y-87620000D03*
D28*
X312125400Y-87620000D03*
D19*
X312201600Y-89220000D03*
%TD*%
D63*
%TO.C,U4*%
X246957500Y-155752500D03*
D64*
X246957500Y-156252500D03*
X246957500Y-156752500D03*
X246957500Y-157252500D03*
X246957500Y-157752500D03*
X246957500Y-158252500D03*
X246957500Y-158752500D03*
X246957500Y-159252500D03*
X246957500Y-159752500D03*
X246957500Y-160252500D03*
X246957500Y-160752500D03*
X246957500Y-161252500D03*
X246957500Y-161752500D03*
X246957500Y-162252500D03*
X246957500Y-162752500D03*
X246957500Y-163252500D03*
D65*
X248882500Y-165177500D03*
X249382500Y-165177500D03*
X249882500Y-165177500D03*
X250382500Y-165177500D03*
X250882500Y-165177500D03*
X251382500Y-165177500D03*
X251882500Y-165177500D03*
X252382500Y-165177500D03*
X252882500Y-165177500D03*
X253382500Y-165177500D03*
X253882500Y-165177500D03*
X254382500Y-165177500D03*
X254882500Y-165177500D03*
X255382500Y-165177500D03*
X255882500Y-165177500D03*
X256382500Y-165177500D03*
D64*
X258307500Y-163252500D03*
X258307500Y-162752500D03*
X258307500Y-162252500D03*
X258307500Y-161752500D03*
X258307500Y-161252500D03*
X258307500Y-160752500D03*
X258307500Y-160252500D03*
X258307500Y-159752500D03*
X258307500Y-159252500D03*
X258307500Y-158752500D03*
X258307500Y-158252500D03*
X258307500Y-157752500D03*
X258307500Y-157252500D03*
X258307500Y-156752500D03*
X258307500Y-156252500D03*
X258307500Y-155752500D03*
D65*
X256382500Y-153827500D03*
X255882500Y-153827500D03*
X255382500Y-153827500D03*
X254882500Y-153827500D03*
X254382500Y-153827500D03*
X253882500Y-153827500D03*
X253382500Y-153827500D03*
X252882500Y-153827500D03*
X252382500Y-153827500D03*
X251882500Y-153827500D03*
X251382500Y-153827500D03*
X250882500Y-153827500D03*
X250382500Y-153827500D03*
X249882500Y-153827500D03*
X249382500Y-153827500D03*
X248882500Y-153827500D03*
%TD*%
D11*
%TO.C,D91*%
X233360000Y-69370000D03*
D18*
X236027000Y-68570000D03*
D19*
X236001600Y-70170000D03*
D20*
X230794600Y-70170000D03*
D21*
X230718400Y-68570000D03*
%TD*%
D17*
%TO.C,R78*%
X234470000Y-144770000D03*
X234470000Y-145730000D03*
%TD*%
D16*
%TO.C,D43*%
X138110000Y-107480000D03*
X138110000Y-104180000D03*
%TD*%
%TO.C,D8*%
X261780000Y-69280000D03*
X261780000Y-65980000D03*
%TD*%
D23*
%TO.C,SW23*%
X209232500Y-83343750D03*
D24*
X214312500Y-83343750D03*
D22*
X218122500Y-80803750D03*
X211772500Y-78263750D03*
D23*
X219392500Y-83343750D03*
D25*
X208216500Y-78263750D03*
X221678500Y-80803750D03*
%TD*%
D17*
%TO.C,C26*%
X218800000Y-68570000D03*
X218800000Y-69530000D03*
%TD*%
D22*
%TO.C,SW66*%
X207010000Y-135413750D03*
D23*
X214630000Y-140493750D03*
D22*
X213360000Y-137953750D03*
D24*
X209550000Y-140493750D03*
D23*
X204470000Y-140493750D03*
D25*
X203454000Y-135413750D03*
X216916000Y-137953750D03*
%TD*%
D17*
%TO.C,C52*%
X266470000Y-106670000D03*
X266470000Y-107630000D03*
%TD*%
D11*
%TO.C,D160*%
X226220000Y-164620000D03*
D12*
X223553000Y-165420000D03*
D21*
X223578400Y-163820000D03*
D28*
X228785400Y-163820000D03*
D19*
X228861600Y-165420000D03*
%TD*%
D27*
%TO.C,R94*%
X94090000Y-165420000D03*
X94090000Y-164460000D03*
%TD*%
D11*
%TO.C,D133*%
X257170000Y-126520000D03*
D12*
X254503000Y-127320000D03*
D21*
X254528400Y-125720000D03*
D28*
X259735400Y-125720000D03*
D19*
X259811600Y-127320000D03*
%TD*%
D66*
%TO.C,R9*%
X224580000Y-149330000D03*
X223560000Y-149330000D03*
%TD*%
D23*
%TO.C,SW19*%
X295592500Y-83343750D03*
D22*
X294322500Y-80803750D03*
D24*
X290512500Y-83343750D03*
D22*
X287972500Y-78263750D03*
D23*
X285432500Y-83343750D03*
D25*
X284416500Y-78263750D03*
X297878500Y-80803750D03*
%TD*%
D67*
%TO.C,J4*%
X108280000Y-59469000D03*
D68*
X108280000Y-62009000D03*
X108280000Y-64549000D03*
X108280000Y-67089000D03*
D69*
X101930000Y-59850000D03*
X75260000Y-66200000D03*
%TD*%
D70*
%TO.C,SW84*%
X54430000Y-66830000D03*
D71*
X54430000Y-61830000D03*
X54430000Y-64330000D03*
D72*
X61930000Y-58730000D03*
X61930000Y-69930000D03*
D71*
X68930000Y-61830000D03*
X68930000Y-66830000D03*
%TD*%
D73*
%TO.C,J1*%
X93380000Y-54131500D03*
X87600000Y-54131500D03*
D74*
X94790000Y-54682500D03*
D75*
X86190000Y-50482500D03*
D74*
X86190000Y-54682500D03*
D75*
X94790000Y-50482500D03*
%TD*%
M02*
