M48
INCH
T1C0.0118
T2C0.0118
T3C0.0157
T4C0.0236
T5C0.0300
T6C0.0394
T7C0.0591
T8C0.0870
T9C0.0984
T10C0.1181
T11C0.1575
%
G90
G05
T1
X2.1272Y-2.7933
X2.1498Y-2.3423
X2.1697Y-3.5409
X2.1697Y-5.0409
X2.1972Y-6.2028
X2.2031Y-6.4343
X2.2555Y-6.4343
X2.2559Y-6.3583
X2.2984Y-3.5587
X2.2984Y-5.0587
X2.3331Y-2.8181
X2.6154Y-4.2728
X2.6157Y-5.7724
X2.6165Y-2.7728
X2.6697Y-2.7728
X2.6697Y-5.7724
X2.6701Y-4.2728
X2.7138Y-2.287
X2.7138Y-2.3209
X2.7138Y-2.3531
X2.7394Y-5.713
X2.7394Y-6.4795
X2.7406Y-4.2319
X2.7409Y-3.4799
X2.7421Y-4.9795
X2.7433Y-2.9917
X2.9445Y-2.8724
X2.9457Y-2.9047
X2.9543Y-6.4339
X2.9606Y-3.2902
X3.0059Y-6.4343
X3.0346Y-5.4528
X3.0346Y-5.8087
X3.0831Y-5.8087
X3.1823Y-2.9917
X3.2224Y-3.9531
X3.2224Y-4.3087
X3.2949Y-3.5409
X3.3362Y-4.8232
X3.3362Y-5.0591
X3.365Y-5.7724
X3.3886Y-5.0409
X3.4193Y-5.7724
X3.4236Y-3.5587
X3.4583Y-3.2028
X3.4583Y-3.5587
X3.4756Y-2.2909
X3.5075Y-2.3173
X3.5173Y-5.0587
X3.5472Y-2.2803
X3.552Y-4.7028
X3.552Y-5.0587
X3.5543Y-4.2728
X3.5626Y-2.3406
X3.5831Y-2.3039
X3.6075Y-4.2728
X3.615Y-5.8256
X3.615Y-6.0335
X3.6181Y-2.3165
X3.6524Y-2.2929
X3.6669Y-3.3992
X3.7043Y-6.4335
X3.7563Y-6.4343
X3.7606Y-4.8996
X4.0665Y-5.4528
X4.0665Y-5.8087
X4.102Y-2.9193
X4.1354Y-2.9193
X4.1598Y-3.9524
X4.1598Y-4.3087
X4.1602Y-2.6524
X4.1724Y-2.9193
X4.398Y-5.7724
X4.4004Y-2.9917
X4.4197Y-3.5409
X4.4504Y-5.7724
X4.4555Y-6.4343
X4.4878Y-4.2728
X4.5051Y-2.7626
X4.5059Y-6.4343
X4.535Y-2.4531
X4.535Y-2.8087
X4.5445Y-4.2728
X4.5484Y-3.5587
X4.5831Y-3.2028
X4.5831Y-3.5587
X4.6071Y-5.0409
X4.7358Y-5.0587
X4.7705Y-4.7031
X4.7705Y-5.0587
X4.7917Y-3.3996
X4.8657Y-2.7728
X4.9098Y-3.9531
X4.9098Y-4.3087
X4.9185Y-2.7728
X4.9791Y-4.8996
X5.0972Y-5.4528
X5.0972Y-5.8087
X5.1697Y-3.5409
X5.2031Y-6.4339
X5.2398Y-4.2728
X5.2551Y-6.4343
X5.2835Y-2.4531
X5.2846Y-2.8087
X5.2949Y-4.2728
X5.2984Y-3.5587
X5.3331Y-3.2031
X5.3331Y-3.5587
X5.3571Y-5.0409
X5.4264Y-5.7724
X5.4823Y-5.7724
X5.4858Y-5.0587
X5.5205Y-4.7028
X5.5205Y-5.0587
X5.5417Y-3.3996
X5.6146Y-2.7728
X5.6598Y-3.9531
X5.6598Y-4.3087
X5.6697Y-2.7728
X5.7291Y-4.8996
X5.8476Y-5.4528
X5.8476Y-5.8087
X5.9197Y-3.5409
X5.9583Y-6.4346
X5.9902Y-4.2728
X6.011Y-6.4343
X6.0346Y-2.4528
X6.0346Y-2.8087
X6.0437Y-4.2728
X6.0484Y-3.5587
X6.0831Y-3.2028
X6.0831Y-3.5587
X6.1071Y-5.0409
X6.1787Y-5.7724
X6.2323Y-5.7724
X6.2358Y-5.0587
X6.2705Y-4.7028
X6.2705Y-5.0587
X6.2917Y-3.3996
X6.363Y-2.7728
X6.4102Y-3.9528
X6.4102Y-4.3087
X6.4197Y-2.7728
X6.4791Y-4.8996
X6.5972Y-5.452
X6.5972Y-5.8087
X6.6697Y-3.5409
X6.7402Y-4.2728
X6.7846Y-2.4528
X6.7846Y-2.8087
X6.7945Y-4.2728
X6.7984Y-3.5587
X6.8331Y-3.2028
X6.8331Y-3.5587
X6.8571Y-5.0409
X6.9272Y-5.7724
X6.9823Y-5.7724
X6.9858Y-5.0587
X7.0205Y-4.7031
X7.0205Y-5.0587
X7.0417Y-3.3996
X7.1142Y-2.7728
X7.1602Y-3.9535
X7.1602Y-4.3087
X7.1693Y-2.7728
X7.2291Y-4.8996
X7.2693Y-6.3193
X7.4197Y-3.5409
X7.4882Y-4.2728
X7.5035Y-6.4748
X7.5344Y-2.8085
X7.5346Y-2.4528
X7.5445Y-4.2728
X7.5484Y-3.5587
X7.5669Y-5.9295
X7.5831Y-3.2031
X7.5831Y-3.5587
X7.6071Y-5.0409
X7.6783Y-5.7724
X7.6854Y-5.9071
X7.709Y-5.9308
X7.7319Y-5.7724
X7.7358Y-5.0587
X7.7705Y-4.7028
X7.7705Y-5.0587
X7.7917Y-3.3996
X7.8642Y-2.7728
X7.9098Y-3.9528
X7.9098Y-4.3087
X7.9189Y-2.7728
X7.9583Y-4.3087
X7.9791Y-4.8996
X8.1697Y-3.5409
X8.2402Y-4.2728
X8.285Y-2.4528
X8.285Y-2.8087
X8.2941Y-4.2728
X8.2984Y-3.5587
X8.3331Y-3.2028
X8.3331Y-3.5587
X8.3571Y-5.0409
X8.4075Y-5.8791
X8.4287Y-5.7724
X8.4823Y-5.7724
X8.4858Y-5.0587
X8.5205Y-4.7028
X8.5205Y-5.0587
X8.5417Y-3.3996
X8.5799Y-6.4748
X8.6142Y-2.7728
X8.6598Y-3.9528
X8.6598Y-4.3087
X8.6693Y-2.7728
X8.6878Y-5.2016
X8.724Y-6.4343
X8.7291Y-4.8992
X8.7425Y-5.4528
X8.7425Y-5.8791
X8.8472Y-5.4528
X8.8957Y-5.8836
X8.9197Y-3.5409
X8.9906Y-4.2728
X9.0106Y-6.3996
X9.035Y-2.4535
X9.035Y-2.8087
X9.0445Y-4.2728
X9.0484Y-3.5587
X9.0831Y-3.2028
X9.0831Y-3.5587
X9.1071Y-5.0409
X9.1772Y-5.7724
X9.2079Y-5.2051
X9.2311Y-5.7724
X9.2358Y-5.0587
X9.2705Y-4.7028
X9.2705Y-5.0587
X9.2917Y-3.3996
X9.3638Y-2.7728
X9.3937Y-5.8874
X9.3937Y-5.9189
X9.3937Y-5.9504
X9.3937Y-5.9818
X9.3937Y-6.0133
X9.3937Y-6.0448
X9.3937Y-6.0763
X9.3937Y-6.1077
X9.3937Y-6.1392
X9.3937Y-6.1707
X9.3937Y-6.2022
X9.3937Y-6.2336
X9.3937Y-6.2651
X9.3937Y-6.2966
X9.3937Y-6.3281
X9.3937Y-6.3595
X9.3937Y-6.391
X9.3937Y-6.4225
X9.3937Y-6.454
X9.3937Y-6.4855
X9.3937Y-6.5169
X9.3937Y-6.5484
X9.3937Y-6.5799
X9.4098Y-3.9531
X9.4098Y-4.3087
X9.4197Y-2.7728
X9.4791Y-4.8996
X9.4957Y-6.3252
X9.5409Y-5.9598
X9.5795Y-5.7626
X9.602Y-6.4945
X9.6386Y-5.4528
X9.6386Y-5.9787
X9.6697Y-3.5409
X9.7303Y-6.4945
X9.735Y-5.9976
X9.7398Y-4.2728
X9.7846Y-2.4531
X9.785Y-2.8087
X9.7941Y-4.2728
X9.7984Y-3.5587
X9.8331Y-3.2028
X9.8331Y-3.5591
X9.8571Y-5.0409
X9.9268Y-5.7724
X9.9823Y-5.7724
X9.9858Y-5.0587
X10.0051Y-5.2382
X10.0205Y-4.7028
X10.0205Y-5.0587
X10.0417Y-3.3996
X10.1142Y-2.7728
X10.1598Y-3.9528
X10.1598Y-4.3083
X10.1693Y-2.7728
X10.1807Y-6.0366
X10.1992Y-6.0957
X10.2291Y-4.8996
X10.2732Y-6.5366
X10.4197Y-3.5409
X10.4528Y-6.2701
X10.4909Y-4.2728
X10.5346Y-2.4531
X10.5346Y-2.8087
X10.5445Y-4.2728
X10.5484Y-3.5587
X10.5831Y-3.2028
X10.5831Y-3.5591
X10.6063Y-6.2327
X10.6071Y-5.0409
X10.6791Y-5.7724
X10.7319Y-5.7724
X10.7358Y-5.0587
X10.7539Y-5.2772
X10.7705Y-4.7028
X10.7705Y-5.0587
X10.7913Y-3.3996
X10.8642Y-2.7728
X10.9098Y-3.9528
X10.9098Y-4.3087
X10.9193Y-2.7728
X10.9791Y-4.8996
X11.1697Y-3.5409
X11.1752Y-5.8784
X11.1752Y-5.9099
X11.1752Y-5.9414
X11.1752Y-5.9728
X11.1752Y-6.0043
X11.1752Y-6.0358
X11.1752Y-6.0673
X11.1752Y-6.0987
X11.1752Y-6.1302
X11.1752Y-6.1617
X11.1752Y-6.1932
X11.1752Y-6.2246
X11.1752Y-6.2561
X11.1752Y-6.2876
X11.1752Y-6.3191
X11.1752Y-6.3506
X11.1752Y-6.382
X11.1752Y-6.4135
X11.1752Y-6.4765
X11.1752Y-6.5079
X11.1752Y-6.5394
X11.1752Y-6.5709
X11.1752Y-6.6024
X11.1752Y-6.445
X11.2402Y-4.2728
X11.2846Y-2.4528
X11.2846Y-2.8083
X11.2945Y-4.2728
X11.2984Y-3.5587
X11.3331Y-3.2031
X11.3331Y-3.5587
X11.3571Y-5.0409
X11.4276Y-5.7724
X11.4787Y-6.2024
X11.4819Y-5.7724
X11.4854Y-6.4339
X11.4858Y-5.0587
X11.5205Y-4.7024
X11.5205Y-5.0587
X11.537Y-6.4343
X11.5417Y-3.3996
X11.613Y-2.7728
X11.6598Y-3.9528
X11.6598Y-4.3091
X11.6693Y-2.7728
X11.7287Y-4.8996
X11.8476Y-5.4528
X11.8476Y-5.8087
X11.9197Y-3.5409
X11.9909Y-4.2728
X12.0346Y-2.4531
X12.0346Y-2.8087
X12.0441Y-4.2728
X12.048Y-6.3748
X12.048Y-6.4661
X12.0484Y-3.5587
X12.0831Y-3.2031
X12.0831Y-3.5591
X12.1071Y-5.0409
X12.1776Y-5.7724
X12.2323Y-5.7724
X12.2358Y-5.0587
X12.2705Y-4.7031
X12.2705Y-5.0591
X12.2917Y-3.3996
X12.3626Y-2.7728
X12.4098Y-3.9528
X12.4098Y-4.3087
X12.4161Y-6.2024
X12.4189Y-2.7728
X12.4224Y-6.4343
X12.4736Y-6.4343
X12.5835Y-5.3807
X12.5839Y-5.2913
X12.6697Y-3.5409
X12.7394Y-4.2728
X12.7858Y-2.4531
X12.7858Y-2.8087
X12.7949Y-4.2728
X12.7984Y-3.5587
X12.8331Y-3.2031
X12.8331Y-3.5587
X13.0417Y-3.3996
X13.1154Y-2.7728
X13.1386Y-5.0409
X13.1697Y-2.7728
X13.2673Y-5.0587
X13.3598Y-6.4343
X13.3976Y-5.7724
X13.4118Y-6.4343
X13.4197Y-3.5409
X13.4504Y-5.7724
X13.5484Y-3.5587
X13.6768Y-4.2728
X13.7327Y-4.2728
X13.7961Y-4.7516
X13.8646Y-2.7728
X13.8839Y-6.3134
X13.9055Y-5.7358
X13.9209Y-2.7728
X13.948Y-4.3051
X14.015Y-6.1913
T2
X3.4252Y-2.6988
X3.4252Y-2.7539
X3.4272Y-2.7264
X3.4547Y-2.7264
X3.4567Y-2.6988
X3.4567Y-2.7539
X3.6693Y-2.6988
X3.6693Y-2.7539
X3.6713Y-2.7264
X3.6988Y-2.7264
X3.7008Y-2.6988
X3.7008Y-2.7539
X7.1512Y-6.035
X7.1512Y-6.0902
X7.1531Y-6.0626
X7.1807Y-6.0626
X7.1827Y-6.035
X7.1827Y-6.0902
X7.3953Y-6.035
X7.3953Y-6.0902
X7.3972Y-6.0626
X7.4248Y-6.0626
X7.4268Y-6.035
X7.4268Y-6.0902
T3
X2.774Y-2.7819
T5
X3.4126Y-2.9138
X3.5126Y-2.9138
X3.6126Y-2.9138
X3.7126Y-2.9138
T6
X2.1427Y-2.4328
X2.1427Y-2.5312
X2.1427Y-2.6297
X2.7136Y-2.4328
X2.7136Y-2.6297
X4.263Y-2.3413
X4.263Y-2.4413
X4.263Y-2.5413
X4.263Y-2.6413
T7
X2.5359Y-2.3738
X2.5832Y-2.4289
T8
X2.963Y-2.6063
X4.013Y-2.3563
T9
X3.8646Y-2.5783
T10
X3.2146Y-2.4217
X3.8661Y-3.8815
X4.4335Y-4.6524
X12.9287Y-4.6516
X13.0543Y-3.8795
T4
G00X3.3933Y-2.0103
M15
G01X3.3933Y-2.034
M16
G05
G00X3.3933Y-2.1658
M15
G01X3.3933Y-2.2092
M16
G05
G00X3.7319Y-2.0103
M15
G01X3.7319Y-2.034
M16
G05
G00X3.7319Y-2.1658
M15
G01X3.7319Y-2.2092
M16
G05
T7
G00X2.3391Y-2.3324
M15
G01X2.3391Y-2.3521
M16
G05
G00X2.4124Y-2.3108
M15
G01X2.4636Y-2.3108
M16
G05
G00X2.4124Y-2.7517
M15
G01X2.4636Y-2.7517
M16
G05
T11
G00X6.6681Y-6.2886
M15
G01X6.6681Y-6.4461
M16
G05
T0
M30
