G04 #@! TF.GenerationSoftware,KiCad,Pcbnew,(6.0.2-0)*
G04 #@! TF.CreationDate,2022-05-10T15:32:32+07:00*
G04 #@! TF.ProjectId,kb-lone,6b622d6c-6f6e-4652-9e6b-696361645f70,rev?*
G04 #@! TF.SameCoordinates,Original*
G04 #@! TF.FileFunction,Legend,Bot*
G04 #@! TF.FilePolarity,Positive*
%FSLAX46Y46*%
G04 Gerber Fmt 4.6, Leading zero omitted, Abs format (unit mm)*
G04 Created by KiCad (PCBNEW (6.0.2-0)) date 2022-05-10 15:32:32*
%MOMM*%
%LPD*%
G01*
G04 APERTURE LIST*
%ADD10C,0.150000*%
%ADD11C,0.120000*%
G04 APERTURE END LIST*
D10*
X172050476Y-167552380D02*
X172050476Y-166552380D01*
X172050476Y-167028571D02*
X171479047Y-167028571D01*
X171479047Y-167552380D02*
X171479047Y-166552380D01*
X171002857Y-167552380D02*
X171002857Y-166885714D01*
X171002857Y-166552380D02*
X171050476Y-166600000D01*
X171002857Y-166647619D01*
X170955238Y-166600000D01*
X171002857Y-166552380D01*
X171002857Y-166647619D01*
X170145714Y-167504761D02*
X170240952Y-167552380D01*
X170431428Y-167552380D01*
X170526666Y-167504761D01*
X170574285Y-167409523D01*
X170574285Y-167028571D01*
X170526666Y-166933333D01*
X170431428Y-166885714D01*
X170240952Y-166885714D01*
X170145714Y-166933333D01*
X170098095Y-167028571D01*
X170098095Y-167123809D01*
X170574285Y-167219047D01*
X169240952Y-166885714D02*
X169240952Y-167552380D01*
X169669523Y-166885714D02*
X169669523Y-167409523D01*
X169621904Y-167504761D01*
X169526666Y-167552380D01*
X169383809Y-167552380D01*
X169288571Y-167504761D01*
X169240952Y-167457142D01*
X168145714Y-166552380D02*
X167574285Y-166552380D01*
X167860000Y-167552380D02*
X167860000Y-166552380D01*
X167240952Y-167552380D02*
X167240952Y-166552380D01*
X166669523Y-167552380D01*
X166669523Y-166552380D01*
D11*
X55825000Y-70193750D02*
X55825000Y-58393750D01*
X54725000Y-68393750D02*
X54425000Y-68093750D01*
X68025000Y-60793750D02*
X68025000Y-58393750D01*
X54125000Y-68393750D02*
X54725000Y-68393750D01*
X54425000Y-68093750D02*
X54125000Y-68393750D01*
X61425000Y-64293750D02*
X62425000Y-64293750D01*
X68025000Y-65593750D02*
X68025000Y-62993750D01*
X63925000Y-70193750D02*
X68025000Y-70193750D01*
X68025000Y-58393750D02*
X63925000Y-58393750D01*
X68025000Y-70193750D02*
X68025000Y-67793750D01*
X59925000Y-58393750D02*
X55825000Y-58393750D01*
X61925000Y-64793750D02*
X61925000Y-63793750D01*
X59925000Y-70193750D02*
X55825000Y-70193750D01*
X64925000Y-64293750D02*
G75*
G03*
X64925000Y-64293750I-3000000J0D01*
G01*
M02*
