%TF.GenerationSoftware,KiCad,Pcbnew,(6.0.2-0)*%
%TF.CreationDate,2022-04-22T07:40:38+07:00*%
%TF.ProjectId,kb-lone,6b622d6c-6f6e-4652-9e6b-696361645f70,rev?*%
%TF.SameCoordinates,Original*%
%TF.FileFunction,Legend,Bot*%
%TF.FilePolarity,Positive*%
%FSLAX46Y46*%
G04 Gerber Fmt 4.6, Leading zero omitted, Abs format (unit mm)*
G04 Created by KiCad (PCBNEW (6.0.2-0)) date 2022-04-22 07:40:38*
%MOMM*%
%LPD*%
G01*
G04 APERTURE LIST*
%TA.AperFunction,Profile*%
%ADD10C,0.100000*%
%TD*%
%ADD11C,0.150000*%
%ADD12C,0.120000*%
G04 APERTURE END LIST*
D10*
X311943750Y-169068750D02*
X330993750Y-169068750D01*
X92868750Y-169068750D02*
X307181250Y-169068750D01*
X126206250Y-54768750D02*
G75*
G03*
X130968750Y-54768750I2381250J0D01*
G01*
X95690000Y-54768842D02*
G75*
G03*
X96880626Y-54768796I595313J0D01*
G01*
X357187500Y-164306250D02*
X357187500Y-152400000D01*
X95692892Y-51087104D02*
X95690000Y-54768842D01*
X57150000Y-169068750D02*
X69056250Y-169068750D01*
X73818750Y-169068750D02*
X88106250Y-169068750D01*
X357187500Y-71437500D02*
G75*
G03*
X357187500Y-76200000I0J-2381250D01*
G01*
X335756250Y-169068750D02*
G75*
G03*
X330993750Y-169068750I-2381250J0D01*
G01*
X52387500Y-59531250D02*
X52387500Y-71437500D01*
X52387500Y-164306250D02*
G75*
G03*
X57150000Y-169068750I4762500J0D01*
G01*
X126206250Y-54768750D02*
X96880626Y-54768796D01*
X352425000Y-54768750D02*
X283368750Y-54768750D01*
X357187500Y-147637500D02*
X357187500Y-76200000D01*
X86287104Y-50087108D02*
X94692896Y-50087108D01*
X85287108Y-51087104D02*
X85287108Y-54768750D01*
X57150000Y-54768750D02*
G75*
G03*
X52387500Y-59531250I0J-4762500D01*
G01*
X202406250Y-54768750D02*
G75*
G03*
X207168750Y-54768750I2381250J0D01*
G01*
X278606250Y-54768750D02*
G75*
G03*
X283368750Y-54768750I2381250J0D01*
G01*
X352425000Y-169068750D02*
G75*
G03*
X357187500Y-164306250I0J4762500D01*
G01*
X95692892Y-51087104D02*
G75*
G03*
X94692896Y-50087108I-999996J0D01*
G01*
X84096482Y-54768796D02*
G75*
G03*
X85287108Y-54768750I595313J0D01*
G01*
X311943750Y-169068750D02*
G75*
G03*
X307181250Y-169068750I-2381250J0D01*
G01*
X84096482Y-54768796D02*
X57150000Y-54768750D01*
X335756250Y-169068750D02*
X352425000Y-169068750D01*
X357187500Y-59531250D02*
G75*
G03*
X352425000Y-54768750I-4762500J0D01*
G01*
X278606250Y-54768750D02*
X207168750Y-54768750D01*
X357187500Y-71437500D02*
X357187500Y-59531250D01*
X357187500Y-147637500D02*
G75*
G03*
X357187500Y-152400000I0J-2381250D01*
G01*
X73818750Y-169068750D02*
G75*
G03*
X69056250Y-169068750I-2381250J0D01*
G01*
X86287104Y-50087108D02*
G75*
G03*
X85287108Y-51087104I0J-999996D01*
G01*
X52387500Y-76200000D02*
X52387500Y-147637500D01*
X52387500Y-152400000D02*
G75*
G03*
X52387500Y-147637500I0J2381250D01*
G01*
X52387500Y-76200000D02*
G75*
G03*
X52387500Y-71437500I0J2381250D01*
G01*
X52387500Y-152400000D02*
X52387500Y-164306250D01*
X92868750Y-169068750D02*
G75*
G03*
X88106250Y-169068750I-2381250J0D01*
G01*
X202406250Y-54768750D02*
X130968750Y-54768750D01*
D11*
X172050476Y-167552380D02*
X172050476Y-166552380D01*
X172050476Y-167028571D02*
X171479047Y-167028571D01*
X171479047Y-167552380D02*
X171479047Y-166552380D01*
X171002857Y-167552380D02*
X171002857Y-166885714D01*
X171002857Y-166552380D02*
X171050476Y-166600000D01*
X171002857Y-166647619D01*
X170955238Y-166600000D01*
X171002857Y-166552380D01*
X171002857Y-166647619D01*
X170145714Y-167504761D02*
X170240952Y-167552380D01*
X170431428Y-167552380D01*
X170526666Y-167504761D01*
X170574285Y-167409523D01*
X170574285Y-167028571D01*
X170526666Y-166933333D01*
X170431428Y-166885714D01*
X170240952Y-166885714D01*
X170145714Y-166933333D01*
X170098095Y-167028571D01*
X170098095Y-167123809D01*
X170574285Y-167219047D01*
X169240952Y-166885714D02*
X169240952Y-167552380D01*
X169669523Y-166885714D02*
X169669523Y-167409523D01*
X169621904Y-167504761D01*
X169526666Y-167552380D01*
X169383809Y-167552380D01*
X169288571Y-167504761D01*
X169240952Y-167457142D01*
X168145714Y-166552380D02*
X167574285Y-166552380D01*
X167860000Y-167552380D02*
X167860000Y-166552380D01*
X167240952Y-167552380D02*
X167240952Y-166552380D01*
X166669523Y-167552380D01*
X166669523Y-166552380D01*
D12*
%TO.C,SW84*%
X55825000Y-70193750D02*
X55825000Y-58393750D01*
X54725000Y-68393750D02*
X54425000Y-68093750D01*
X68025000Y-60793750D02*
X68025000Y-58393750D01*
X54125000Y-68393750D02*
X54725000Y-68393750D01*
X54425000Y-68093750D02*
X54125000Y-68393750D01*
X61425000Y-64293750D02*
X62425000Y-64293750D01*
X68025000Y-65593750D02*
X68025000Y-62993750D01*
X63925000Y-70193750D02*
X68025000Y-70193750D01*
X68025000Y-58393750D02*
X63925000Y-58393750D01*
X68025000Y-70193750D02*
X68025000Y-67793750D01*
X59925000Y-58393750D02*
X55825000Y-58393750D01*
X61925000Y-64793750D02*
X61925000Y-63793750D01*
X59925000Y-70193750D02*
X55825000Y-70193750D01*
X64925000Y-64293750D02*
G75*
G03*
X64925000Y-64293750I-3000000J0D01*
G01*
%TD*%
M02*
