G04 #@! TF.GenerationSoftware,KiCad,Pcbnew,(6.0.2-0)*
G04 #@! TF.CreationDate,2022-05-10T15:32:32+07:00*
G04 #@! TF.ProjectId,kb-lone,6b622d6c-6f6e-4652-9e6b-696361645f70,rev?*
G04 #@! TF.SameCoordinates,Original*
G04 #@! TF.FileFunction,Paste,Top*
G04 #@! TF.FilePolarity,Positive*
%FSLAX46Y46*%
G04 Gerber Fmt 4.6, Leading zero omitted, Abs format (unit mm)*
G04 Created by KiCad (PCBNEW (6.0.2-0)) date 2022-05-10 15:32:32*
%MOMM*%
%LPD*%
G01*
G04 APERTURE LIST*
G04 Aperture macros list*
%AMRoundRect*
0 Rectangle with rounded corners*
0 $1 Rounding radius*
0 $2 $3 $4 $5 $6 $7 $8 $9 X,Y pos of 4 corners*
0 Add a 4 corners polygon primitive as box body*
4,1,4,$2,$3,$4,$5,$6,$7,$8,$9,$2,$3,0*
0 Add four circle primitives for the rounded corners*
1,1,$1+$1,$2,$3*
1,1,$1+$1,$4,$5*
1,1,$1+$1,$6,$7*
1,1,$1+$1,$8,$9*
0 Add four rect primitives between the rounded corners*
20,1,$1+$1,$2,$3,$4,$5,0*
20,1,$1+$1,$4,$5,$6,$7,0*
20,1,$1+$1,$6,$7,$8,$9,0*
20,1,$1+$1,$8,$9,$2,$3,0*%
%AMOutline4P*
0 Free polygon, 4 corners , with rotation*
0 The origin of the aperture is its center*
0 number of corners: always 4*
0 $1 to $8 corner X, Y*
0 $9 Rotation angle, in degrees counterclockwise*
0 create outline with 4 corners*
4,1,4,$1,$2,$3,$4,$5,$6,$7,$8,$1,$2,$9*%
%AMFreePoly0*
4,1,34,0.539142,0.394142,0.545000,0.380000,0.545000,-0.380000,0.542091,-0.387023,0.539183,-0.394101,0.539154,-0.394113,0.539142,-0.394142,0.532183,-0.397025,0.525059,-0.400000,-0.345813,-0.402541,-0.359972,-0.396724,-0.365871,-0.382599,-0.363699,-0.377313,-0.368760,-0.369759,-0.367711,-0.364454,-0.414942,-0.174744,-0.481229,0.014483,-0.564791,0.196743,-0.661662,0.364831,-0.664142,0.365858,
-0.665002,0.367933,-0.666846,0.369219,-0.667839,0.374782,-0.670000,0.380000,-0.669140,0.382076,-0.669535,0.384289,-0.666303,0.388925,-0.664142,0.394142,-0.662067,0.395002,-0.660781,0.396846,-0.655218,0.397839,-0.650000,0.400000,0.525000,0.400000,0.539142,0.394142,0.539142,0.394142,$1*%
%AMFreePoly1*
4,1,32,0.525059,0.400000,0.532183,0.397025,0.539142,0.394142,0.539154,0.394113,0.539183,0.394101,0.542091,0.387023,0.545000,0.380000,0.545000,-0.380000,0.539142,-0.394142,0.525000,-0.400000,-0.650000,-0.400000,-0.664142,-0.394142,-0.670000,-0.380000,-0.664142,-0.365858,-0.650000,-0.360000,-0.639861,-0.360000,-0.627372,-0.335022,-0.633486,-0.326813,-0.631272,-0.311667,-0.627376,-0.308765,
-0.540607,-0.147827,-0.466341,0.024153,-0.407269,0.201926,-0.364878,0.379782,-0.365041,0.380580,-0.365871,0.382599,-0.365592,0.383267,-0.365853,0.384541,-0.363693,0.387815,-0.359972,0.396724,-0.345813,0.402541,0.525059,0.400000,0.525059,0.400000,$1*%
%AMFreePoly2*
4,1,41,0.319736,0.407785,0.429772,0.357533,0.521194,0.278316,0.586594,0.176551,0.620674,0.060484,0.620674,-0.060484,0.586594,-0.176551,0.521194,-0.278316,0.429772,-0.357533,0.319736,-0.407785,0.200000,-0.425000,-0.275000,-0.425000,-0.292678,-0.417678,-0.300000,-0.400000,-0.292678,-0.382322,-0.278880,-0.376607,-0.284170,-0.360736,-0.300823,-0.357521,-0.311542,-0.341671,-0.310592,-0.336750,
-0.357127,-0.150581,-0.420980,0.035288,-0.500554,0.214989,-0.592538,0.382243,-0.592678,0.382301,-0.593008,0.383097,-0.593027,0.383132,-0.597072,0.386095,-0.598748,0.396955,-0.600000,0.399978,-0.599427,0.401360,-0.599990,0.405006,-0.595222,0.411514,-0.592678,0.417657,-0.589869,0.418820,-0.588682,0.420441,-0.584339,0.421111,-0.575001,0.424979,0.199999,0.425000,0.200000,0.425000,
0.319736,0.407785,0.319736,0.407785,$1*%
%AMFreePoly3*
4,1,32,0.525059,0.400000,0.532183,0.397025,0.539142,0.394142,0.539154,0.394113,0.539183,0.394101,0.542091,0.387023,0.545000,0.380000,0.545000,-0.380000,0.539142,-0.394142,0.525000,-0.400000,-0.650000,-0.400000,-0.664142,-0.394142,-0.670000,-0.380000,-0.664142,-0.365858,-0.650000,-0.360000,-0.639861,-0.360000,-0.627370,-0.335018,-0.633484,-0.326810,-0.631270,-0.311664,-0.627374,-0.308762,
-0.540606,-0.147825,-0.466340,0.024155,-0.407269,0.201927,-0.364878,0.379782,-0.365041,0.380580,-0.365871,0.382599,-0.365592,0.383267,-0.365853,0.384541,-0.363693,0.387815,-0.359972,0.396724,-0.345813,0.402541,0.525059,0.400000,0.525059,0.400000,$1*%
%AMFreePoly4*
4,1,41,0.319736,0.407785,0.429772,0.357533,0.521194,0.278316,0.586594,0.176551,0.620674,0.060484,0.620674,-0.060484,0.586594,-0.176551,0.521194,-0.278316,0.429772,-0.357533,0.319736,-0.407785,0.200000,-0.425000,-0.275000,-0.425000,-0.292678,-0.417678,-0.300000,-0.400000,-0.292678,-0.382322,-0.278880,-0.376607,-0.284171,-0.360733,-0.300823,-0.357518,-0.311543,-0.341668,-0.310592,-0.336745,
-0.357128,-0.150579,-0.420980,0.035289,-0.500554,0.214990,-0.592538,0.382243,-0.592678,0.382301,-0.593008,0.383097,-0.593027,0.383132,-0.597072,0.386095,-0.598748,0.396955,-0.600000,0.399978,-0.599427,0.401360,-0.599990,0.405006,-0.595222,0.411514,-0.592678,0.417657,-0.589869,0.418820,-0.588682,0.420441,-0.584339,0.421111,-0.575001,0.424979,0.199999,0.425000,0.200000,0.425000,
0.319736,0.407785,0.319736,0.407785,$1*%
G04 Aperture macros list end*
%ADD10FreePoly0,180.000000*%
%ADD11FreePoly1,180.000000*%
%ADD12FreePoly2,0.000000*%
%ADD13FreePoly1,0.000000*%
%ADD14RoundRect,0.250000X0.350000X-0.250000X0.350000X0.250000X-0.350000X0.250000X-0.350000X-0.250000X0*%
%ADD15RoundRect,0.140000X-0.170000X0.140000X-0.170000X-0.140000X0.170000X-0.140000X0.170000X0.140000X0*%
%ADD16FreePoly0,0.000000*%
%ADD17FreePoly3,0.000000*%
%ADD18FreePoly4,180.000000*%
%ADD19FreePoly3,180.000000*%
%ADD20RoundRect,0.140000X0.140000X0.170000X-0.140000X0.170000X-0.140000X-0.170000X0.140000X-0.170000X0*%
%ADD21RoundRect,0.140000X0.170000X-0.140000X0.170000X0.140000X-0.170000X0.140000X-0.170000X-0.140000X0*%
%ADD22FreePoly4,0.000000*%
%ADD23RoundRect,0.200000X-0.537500X0.000000X0.537500X0.000000X0.537500X0.000000X-0.537500X0.000000X0*%
%ADD24R,1.475000X0.400000*%
%ADD25R,0.600000X1.550000*%
%ADD26R,1.200000X1.800000*%
%ADD27R,1.100000X1.800000*%
%ADD28RoundRect,0.150000X0.587500X0.150000X-0.587500X0.150000X-0.587500X-0.150000X0.587500X-0.150000X0*%
%ADD29RoundRect,0.250000X0.450000X-0.262500X0.450000X0.262500X-0.450000X0.262500X-0.450000X-0.262500X0*%
%ADD30RoundRect,0.150000X0.150000X-0.512500X0.150000X0.512500X-0.150000X0.512500X-0.150000X-0.512500X0*%
%ADD31RoundRect,0.250000X0.475000X-0.250000X0.475000X0.250000X-0.475000X0.250000X-0.475000X-0.250000X0*%
%ADD32RoundRect,0.250000X-0.250000X-0.475000X0.250000X-0.475000X0.250000X0.475000X-0.250000X0.475000X0*%
%ADD33RoundRect,0.250000X-0.425000X0.537500X-0.425000X-0.537500X0.425000X-0.537500X0.425000X0.537500X0*%
%ADD34RoundRect,0.250000X-0.262500X-0.450000X0.262500X-0.450000X0.262500X0.450000X-0.262500X0.450000X0*%
%ADD35RoundRect,0.250000X0.250000X0.350000X-0.250000X0.350000X-0.250000X-0.350000X0.250000X-0.350000X0*%
%ADD36RoundRect,0.218750X0.218750X0.381250X-0.218750X0.381250X-0.218750X-0.381250X0.218750X-0.381250X0*%
%ADD37RoundRect,0.150000X0.150000X-0.587500X0.150000X0.587500X-0.150000X0.587500X-0.150000X-0.587500X0*%
%ADD38RoundRect,0.135000X-0.135000X-0.185000X0.135000X-0.185000X0.135000X0.185000X-0.135000X0.185000X0*%
%ADD39RoundRect,0.250000X-0.450000X0.262500X-0.450000X-0.262500X0.450000X-0.262500X0.450000X0.262500X0*%
%ADD40RoundRect,0.140000X-0.140000X-0.170000X0.140000X-0.170000X0.140000X0.170000X-0.140000X0.170000X0*%
%ADD41RoundRect,0.250000X0.262500X0.450000X-0.262500X0.450000X-0.262500X-0.450000X0.262500X-0.450000X0*%
%ADD42RoundRect,0.250000X-1.450000X0.312500X-1.450000X-0.312500X1.450000X-0.312500X1.450000X0.312500X0*%
%ADD43RoundRect,0.325000X0.205000X0.000000X-0.205000X0.000000X-0.205000X0.000000X0.205000X0.000000X0*%
%ADD44R,1.060000X0.650000*%
%ADD45RoundRect,0.218750X-0.381250X0.218750X-0.381250X-0.218750X0.381250X-0.218750X0.381250X0.218750X0*%
%ADD46R,1.400000X1.200000*%
%ADD47RoundRect,0.250000X0.250000X0.475000X-0.250000X0.475000X-0.250000X-0.475000X0.250000X-0.475000X0*%
%ADD48RoundRect,0.150000X-0.625000X0.000000X0.625000X0.000000X0.625000X0.000000X-0.625000X0.000000X0*%
%ADD49Outline4P,-0.775000X-0.150000X0.775000X-0.150000X0.775000X0.150000X-0.775000X0.150000X0.000000*%
%ADD50Outline4P,-0.150000X-0.775000X0.150000X-0.775000X0.150000X0.775000X-0.150000X0.775000X0.000000*%
%ADD51RoundRect,0.135000X0.135000X0.185000X-0.135000X0.185000X-0.135000X-0.185000X0.135000X-0.185000X0*%
G04 APERTURE END LIST*
D10*
X292608000Y-127320000D03*
D11*
X292633400Y-125720000D03*
D12*
X297840400Y-125720000D03*
D13*
X297916600Y-127320000D03*
D14*
X300040000Y-87230000D03*
X300040000Y-83930000D03*
X161930000Y-145580000D03*
X161930000Y-142280000D03*
D15*
X196390000Y-144770000D03*
X196390000Y-145730000D03*
X296400000Y-68570000D03*
X296400000Y-69530000D03*
D14*
X195260000Y-107490000D03*
X195260000Y-104190000D03*
D16*
X338423250Y-144770000D03*
D17*
X338397850Y-146370000D03*
D18*
X333190850Y-146370000D03*
D19*
X333114650Y-144770000D03*
D14*
X71430000Y-164580000D03*
X71430000Y-161280000D03*
D16*
X140779500Y-68570000D03*
D17*
X140754100Y-70170000D03*
D18*
X135547100Y-70170000D03*
D19*
X135470900Y-68570000D03*
D14*
X176200000Y-107490000D03*
X176200000Y-104190000D03*
D20*
X199560000Y-159350000D03*
X198600000Y-159350000D03*
D21*
X293040000Y-165420000D03*
X293040000Y-164460000D03*
D10*
X318801750Y-165420000D03*
D19*
X318827150Y-163820000D03*
D22*
X324034150Y-163820000D03*
D17*
X324110350Y-165420000D03*
D15*
X209300000Y-106670000D03*
X209300000Y-107630000D03*
X324090000Y-88410000D03*
X324090000Y-89370000D03*
X156150000Y-127080000D03*
X156150000Y-128040000D03*
D14*
X252410000Y-107490000D03*
X252410000Y-104190000D03*
D15*
X214550000Y-127080000D03*
X214550000Y-128040000D03*
D14*
X148920000Y-164580000D03*
X148920000Y-161280000D03*
D15*
X208540000Y-88410000D03*
X208540000Y-89370000D03*
D14*
X166690000Y-69300000D03*
X166690000Y-66000000D03*
D10*
X135445500Y-89220000D03*
D19*
X135470900Y-87620000D03*
D22*
X140677900Y-87620000D03*
D17*
X140754100Y-89220000D03*
D23*
X204907500Y-153287500D03*
D24*
X204907500Y-153937500D03*
X204907500Y-154587500D03*
X204907500Y-155237500D03*
X210632500Y-155237500D03*
X210632500Y-154587500D03*
X210632500Y-153937500D03*
X210632500Y-153287500D03*
D15*
X157410000Y-127080000D03*
X157410000Y-128040000D03*
D21*
X242330000Y-153810000D03*
X242330000Y-152850000D03*
D15*
X209800000Y-88410000D03*
X209800000Y-89370000D03*
D14*
X147640000Y-87230000D03*
X147640000Y-83930000D03*
D15*
X175190000Y-127080000D03*
X175190000Y-128040000D03*
X57380000Y-127080000D03*
X57380000Y-128040000D03*
X138350000Y-127080000D03*
X138350000Y-128040000D03*
D14*
X123820000Y-145110000D03*
X123820000Y-141810000D03*
D16*
X283654500Y-106670000D03*
D17*
X283629100Y-108270000D03*
D18*
X278422100Y-108270000D03*
D19*
X278345900Y-106670000D03*
D16*
X231267000Y-144770000D03*
D17*
X231241600Y-146370000D03*
D18*
X226034600Y-146370000D03*
D19*
X225958400Y-144770000D03*
D15*
X252660000Y-127080000D03*
X252660000Y-128040000D03*
X272590000Y-144770000D03*
X272590000Y-145730000D03*
X304570000Y-106670000D03*
X304570000Y-107630000D03*
D14*
X280990000Y-69280000D03*
X280990000Y-65980000D03*
D25*
X89000000Y-65375000D03*
X90000000Y-65375000D03*
X91000000Y-65375000D03*
X92000000Y-65375000D03*
D26*
X93600000Y-69250000D03*
X87400000Y-69250000D03*
D14*
X223830000Y-69280000D03*
X223830000Y-65980000D03*
D15*
X324990000Y-106670000D03*
X324990000Y-107630000D03*
D16*
X245554500Y-106670000D03*
D17*
X245529100Y-108270000D03*
D18*
X240322100Y-108270000D03*
D19*
X240245900Y-106670000D03*
D14*
X109540000Y-87230000D03*
X109540000Y-83930000D03*
D10*
X116395500Y-89220000D03*
D19*
X116420900Y-87620000D03*
D22*
X121627900Y-87620000D03*
D17*
X121704100Y-89220000D03*
D14*
X128580000Y-164580000D03*
X128580000Y-161280000D03*
D16*
X169354500Y-106670000D03*
D17*
X169329100Y-108270000D03*
D18*
X164122100Y-108270000D03*
D19*
X164045900Y-106670000D03*
D15*
X182100000Y-68570000D03*
X182100000Y-69530000D03*
X111710000Y-144770000D03*
X111710000Y-145730000D03*
X247390000Y-106670000D03*
X247390000Y-107630000D03*
X190200000Y-106670000D03*
X190200000Y-107630000D03*
D14*
X133350000Y-126480000D03*
X133350000Y-123180000D03*
X128580000Y-87230000D03*
X128580000Y-83930000D03*
X71430000Y-145110000D03*
X71430000Y-141810000D03*
D16*
X212217000Y-144770000D03*
D17*
X212191600Y-146370000D03*
D18*
X206984600Y-146370000D03*
D19*
X206908400Y-144770000D03*
D10*
X294989250Y-165420000D03*
D19*
X295014650Y-163820000D03*
D22*
X300221650Y-163820000D03*
D17*
X300297850Y-165420000D03*
D15*
X229730000Y-106670000D03*
X229730000Y-107630000D03*
D14*
X339420000Y-69280000D03*
X339420000Y-65980000D03*
D15*
X239260000Y-68570000D03*
X239260000Y-69530000D03*
X142610000Y-68570000D03*
X142610000Y-69530000D03*
X170430000Y-88410000D03*
X170430000Y-89370000D03*
D14*
X336860000Y-87230000D03*
X336860000Y-83930000D03*
X190500000Y-126480000D03*
X190500000Y-123180000D03*
X247650000Y-126480000D03*
X247650000Y-123180000D03*
D15*
X177350000Y-144770000D03*
X177350000Y-145730000D03*
D10*
X197358000Y-127320000D03*
D19*
X197383400Y-125720000D03*
D22*
X202590400Y-125720000D03*
D17*
X202666600Y-127320000D03*
D15*
X265680000Y-88410000D03*
X265680000Y-89370000D03*
D21*
X243890000Y-162350000D03*
X243890000Y-161390000D03*
X220280000Y-165420000D03*
X220280000Y-164460000D03*
D16*
X293179500Y-68570000D03*
D17*
X293154100Y-70170000D03*
D18*
X287947100Y-70170000D03*
D19*
X287870900Y-68570000D03*
D15*
X66460000Y-68570000D03*
X66460000Y-69530000D03*
D14*
X332100000Y-161920000D03*
X332100000Y-158620000D03*
D15*
X303780000Y-88410000D03*
X303780000Y-89370000D03*
D14*
X152400000Y-126480000D03*
X152400000Y-123180000D03*
D10*
X344995500Y-89220000D03*
D19*
X345020900Y-87620000D03*
D22*
X350227900Y-87620000D03*
D17*
X350304100Y-89220000D03*
D15*
X353590000Y-68570000D03*
X353590000Y-69530000D03*
D16*
X88392000Y-106670000D03*
D17*
X88366600Y-108270000D03*
D18*
X83159600Y-108270000D03*
D19*
X83083400Y-106670000D03*
D16*
X159829500Y-68570000D03*
D17*
X159804100Y-70170000D03*
D18*
X154597100Y-70170000D03*
D19*
X154520900Y-68570000D03*
D15*
X341890000Y-88410000D03*
X341890000Y-89370000D03*
X163060000Y-68570000D03*
X163060000Y-69530000D03*
D27*
X350420000Y-128820000D03*
X350420000Y-122620000D03*
X354120000Y-122620000D03*
X354120000Y-128820000D03*
D14*
X319090000Y-69280000D03*
X319090000Y-65980000D03*
D28*
X205277500Y-166100000D03*
X205277500Y-164200000D03*
X203402500Y-165150000D03*
D15*
X56140000Y-88410000D03*
X56140000Y-89370000D03*
D14*
X142880000Y-145110000D03*
X142880000Y-141810000D03*
D10*
X235458000Y-127320000D03*
D19*
X235483400Y-125720000D03*
D22*
X240690400Y-125720000D03*
D17*
X240766600Y-127320000D03*
D15*
X133090000Y-106670000D03*
X133090000Y-107630000D03*
X275950000Y-68570000D03*
X275950000Y-69530000D03*
X195510000Y-127080000D03*
X195510000Y-128040000D03*
D14*
X90480000Y-145110000D03*
X90480000Y-141810000D03*
D10*
X116395500Y-165420000D03*
D19*
X116420900Y-163820000D03*
D22*
X121627900Y-163820000D03*
D17*
X121704100Y-165420000D03*
D15*
X67820000Y-106670000D03*
X67820000Y-107630000D03*
D29*
X93810000Y-62352500D03*
X93810000Y-60527500D03*
D15*
X305920000Y-106670000D03*
X305920000Y-107630000D03*
X232360000Y-127080000D03*
X232360000Y-128040000D03*
D21*
X55960000Y-165420000D03*
X55960000Y-164460000D03*
D14*
X280980000Y-87230000D03*
X280980000Y-83930000D03*
D15*
X210670000Y-106670000D03*
X210670000Y-107630000D03*
D30*
X89540000Y-63027500D03*
X90490000Y-63027500D03*
X91440000Y-63027500D03*
X91440000Y-60752500D03*
X90490000Y-60752500D03*
X89540000Y-60752500D03*
D15*
X156940000Y-144770000D03*
X156940000Y-145730000D03*
D14*
X295270000Y-145110000D03*
X295270000Y-141810000D03*
X209550000Y-126470000D03*
X209550000Y-123170000D03*
D15*
X67810000Y-68570000D03*
X67810000Y-69530000D03*
X175950000Y-144770000D03*
X175950000Y-145730000D03*
X114530000Y-88410000D03*
X114530000Y-89370000D03*
D16*
X274129500Y-68570000D03*
D17*
X274104100Y-70170000D03*
D18*
X268897100Y-70170000D03*
D19*
X268820900Y-68570000D03*
D15*
X195030000Y-144770000D03*
X195030000Y-145730000D03*
X199300000Y-152940000D03*
X199300000Y-153900000D03*
D10*
X90201750Y-127320000D03*
D19*
X90227150Y-125720000D03*
D22*
X95434150Y-125720000D03*
D17*
X95510350Y-127320000D03*
D25*
X186640000Y-157865000D03*
X185640000Y-157865000D03*
X184640000Y-157865000D03*
X183640000Y-157865000D03*
D26*
X188240000Y-153990000D03*
X182040000Y-153990000D03*
D15*
X214090000Y-144770000D03*
X214090000Y-145730000D03*
D10*
X178308000Y-127320000D03*
D19*
X178333400Y-125720000D03*
D22*
X183540400Y-125720000D03*
D17*
X183616600Y-127320000D03*
D16*
X83629500Y-144770000D03*
D17*
X83604100Y-146370000D03*
D18*
X78397100Y-146370000D03*
D19*
X78320900Y-144770000D03*
D15*
X190750000Y-88410000D03*
X190750000Y-89370000D03*
X347390000Y-106670000D03*
X347390000Y-107630000D03*
D21*
X75040000Y-165420000D03*
X75040000Y-164460000D03*
D15*
X213290000Y-127080000D03*
X213290000Y-128040000D03*
D14*
X157160000Y-107490000D03*
X157160000Y-104190000D03*
D10*
X325945500Y-89220000D03*
D19*
X325970900Y-87620000D03*
D22*
X331177900Y-87620000D03*
D17*
X331254100Y-89220000D03*
D15*
X144010000Y-68570000D03*
X144010000Y-69530000D03*
X88350000Y-127080000D03*
X88350000Y-128040000D03*
X91630000Y-106670000D03*
X91630000Y-107630000D03*
D14*
X204790000Y-87230000D03*
X204790000Y-83930000D03*
X334650000Y-161920000D03*
X334650000Y-158620000D03*
D15*
X180700000Y-68570000D03*
X180700000Y-69530000D03*
D14*
X238120000Y-145110000D03*
X238120000Y-141810000D03*
X214310000Y-107480000D03*
X214310000Y-104180000D03*
D21*
X244470000Y-153810000D03*
X244470000Y-152850000D03*
D15*
X90280000Y-106670000D03*
X90280000Y-107630000D03*
D31*
X78660000Y-81527500D03*
X78660000Y-79627500D03*
D15*
X176450000Y-127080000D03*
X176450000Y-128040000D03*
D14*
X119060000Y-107480000D03*
X119060000Y-104180000D03*
D15*
X67810000Y-144770000D03*
X67810000Y-145730000D03*
X290260000Y-144770000D03*
X290260000Y-145730000D03*
X290780000Y-127080000D03*
X290780000Y-128040000D03*
D32*
X208970000Y-160220000D03*
X210870000Y-160220000D03*
D33*
X201690000Y-153570000D03*
X201690000Y-156445000D03*
D16*
X64579500Y-144770000D03*
D17*
X64554100Y-146370000D03*
D18*
X59347100Y-146370000D03*
D19*
X59270900Y-144770000D03*
D10*
X78295500Y-165420000D03*
D19*
X78320900Y-163820000D03*
D22*
X83527900Y-163820000D03*
D17*
X83604100Y-165420000D03*
D15*
X86850000Y-144770000D03*
X86850000Y-145730000D03*
D14*
X185740000Y-87230000D03*
X185740000Y-83930000D03*
X204780000Y-69280000D03*
X204780000Y-65980000D03*
D15*
X215450000Y-144770000D03*
X215450000Y-145730000D03*
D16*
X174117000Y-144770000D03*
D17*
X174091600Y-146370000D03*
D18*
X168884600Y-146370000D03*
D19*
X168808400Y-144770000D03*
D21*
X57290000Y-165420000D03*
X57290000Y-164460000D03*
D15*
X113990000Y-106670000D03*
X113990000Y-107630000D03*
D14*
X329890000Y-107480000D03*
X329890000Y-104180000D03*
X276230000Y-145110000D03*
X276230000Y-141810000D03*
D34*
X209027500Y-157630000D03*
X210852500Y-157630000D03*
X352447500Y-114600000D03*
X354272500Y-114600000D03*
D15*
X56130000Y-127080000D03*
X56130000Y-128040000D03*
D21*
X152680000Y-165440000D03*
X152680000Y-164480000D03*
D16*
X197929500Y-68570000D03*
D17*
X197904100Y-70170000D03*
D18*
X192697100Y-70170000D03*
D19*
X192620900Y-68570000D03*
D15*
X139250000Y-144770000D03*
X139250000Y-145730000D03*
D21*
X316830000Y-165420000D03*
X316830000Y-164460000D03*
D14*
X322570000Y-126470000D03*
X322570000Y-123170000D03*
D16*
X131254500Y-106670000D03*
D17*
X131229100Y-108270000D03*
D18*
X126022100Y-108270000D03*
D19*
X125945900Y-106670000D03*
D14*
X100010000Y-107480000D03*
X100010000Y-104180000D03*
D10*
X59245500Y-89220000D03*
D19*
X59270900Y-87620000D03*
D22*
X64477900Y-87620000D03*
D17*
X64554100Y-89220000D03*
D10*
X121158000Y-127320000D03*
D19*
X121183400Y-125720000D03*
D22*
X126390400Y-125720000D03*
D17*
X126466600Y-127320000D03*
D16*
X188404500Y-106670000D03*
D17*
X188379100Y-108270000D03*
D18*
X183172100Y-108270000D03*
D19*
X183095900Y-106670000D03*
D35*
X69110000Y-72700000D03*
X65810000Y-72700000D03*
D15*
X85470000Y-144770000D03*
X85470000Y-145730000D03*
X333130000Y-68570000D03*
X333130000Y-69530000D03*
X132330000Y-88410000D03*
X132330000Y-89370000D03*
X341640000Y-144770000D03*
X341640000Y-145730000D03*
D14*
X180980000Y-145110000D03*
X180980000Y-141810000D03*
D21*
X76350000Y-165420000D03*
X76350000Y-164460000D03*
D10*
X135445500Y-165420000D03*
D19*
X135470900Y-163820000D03*
D22*
X140677900Y-163820000D03*
D17*
X140754100Y-165420000D03*
D10*
X192595500Y-89220000D03*
D19*
X192620900Y-87620000D03*
D22*
X197827900Y-87620000D03*
D17*
X197904100Y-89220000D03*
D15*
X323580000Y-106670000D03*
X323580000Y-107630000D03*
D14*
X290510000Y-107480000D03*
X290510000Y-104180000D03*
D15*
X285980000Y-88410000D03*
X285980000Y-89370000D03*
D20*
X247510000Y-165670000D03*
X246550000Y-165670000D03*
D14*
X319090000Y-87230000D03*
X319090000Y-83930000D03*
D16*
X331279500Y-68570000D03*
D17*
X331254100Y-70170000D03*
D18*
X326047100Y-70170000D03*
D19*
X325970900Y-68570000D03*
D15*
X305030000Y-88410000D03*
X305030000Y-89370000D03*
D10*
X59245500Y-127320000D03*
D19*
X59270900Y-125720000D03*
D22*
X64477900Y-125720000D03*
D17*
X64554100Y-127320000D03*
D15*
X199750000Y-68570000D03*
X199750000Y-69530000D03*
X66440000Y-144770000D03*
X66440000Y-145730000D03*
D14*
X271410000Y-107480000D03*
X271410000Y-104180000D03*
X71440000Y-107490000D03*
X71440000Y-104190000D03*
D16*
X269367000Y-144770000D03*
D17*
X269341600Y-146370000D03*
D18*
X264134600Y-146370000D03*
D19*
X264058400Y-144770000D03*
D31*
X213550000Y-155190000D03*
X213550000Y-153290000D03*
D36*
X104272500Y-65490000D03*
X102147500Y-65490000D03*
D21*
X132160000Y-165420000D03*
X132160000Y-164460000D03*
D34*
X353207500Y-143830000D03*
X355032500Y-143830000D03*
D15*
X291640000Y-144770000D03*
X291640000Y-145730000D03*
D16*
X345567000Y-106670000D03*
D17*
X345541600Y-108270000D03*
D18*
X340334600Y-108270000D03*
D19*
X340258400Y-106670000D03*
D21*
X340660000Y-165420000D03*
X340660000Y-164460000D03*
D15*
X286880000Y-106670000D03*
X286880000Y-107630000D03*
X113040000Y-144770000D03*
X113040000Y-145730000D03*
D14*
X128590000Y-69280000D03*
X128590000Y-65980000D03*
X228600000Y-126480000D03*
X228600000Y-123180000D03*
D32*
X353140000Y-140710000D03*
X355040000Y-140710000D03*
D15*
X266950000Y-88410000D03*
X266950000Y-89370000D03*
X252140000Y-144770000D03*
X252140000Y-145730000D03*
D14*
X315600000Y-145110000D03*
X315600000Y-141810000D03*
D16*
X150304500Y-106670000D03*
D17*
X150279100Y-108270000D03*
D18*
X145072100Y-108270000D03*
D19*
X144995900Y-106670000D03*
D15*
X228830000Y-88410000D03*
X228830000Y-89370000D03*
D14*
X114300000Y-126470000D03*
X114300000Y-123170000D03*
D37*
X352420000Y-119237500D03*
X354320000Y-119237500D03*
X353370000Y-117362500D03*
D10*
X342614250Y-165420000D03*
D19*
X342639650Y-163820000D03*
D22*
X347846650Y-163820000D03*
D17*
X347922850Y-165420000D03*
D16*
X109823250Y-144770000D03*
D17*
X109797850Y-146370000D03*
D18*
X104590850Y-146370000D03*
D19*
X104514650Y-144770000D03*
D15*
X66430000Y-106670000D03*
X66430000Y-107630000D03*
X246640000Y-88410000D03*
X246640000Y-89370000D03*
D10*
X159258000Y-127320000D03*
D19*
X159283400Y-125720000D03*
D22*
X164490400Y-125720000D03*
D17*
X164566600Y-127320000D03*
D10*
X140208000Y-127320000D03*
D19*
X140233400Y-125720000D03*
D22*
X145440400Y-125720000D03*
D17*
X145516600Y-127320000D03*
D10*
X87820500Y-89220000D03*
D19*
X87845900Y-87620000D03*
D22*
X93052900Y-87620000D03*
D17*
X93129100Y-89220000D03*
D32*
X202330000Y-161060000D03*
X204230000Y-161060000D03*
D16*
X264604500Y-106670000D03*
D17*
X264579100Y-108270000D03*
D18*
X259372100Y-108270000D03*
D19*
X259295900Y-106670000D03*
D15*
X309310000Y-144770000D03*
X309310000Y-145730000D03*
D10*
X154495500Y-165440000D03*
D19*
X154520900Y-163840000D03*
D22*
X159727900Y-163840000D03*
D17*
X159804100Y-165440000D03*
D16*
X307467000Y-144770000D03*
D17*
X307441600Y-146370000D03*
D18*
X302234600Y-146370000D03*
D19*
X302158400Y-144770000D03*
D14*
X242890000Y-69290000D03*
X242890000Y-65990000D03*
D15*
X118050000Y-127080000D03*
X118050000Y-128040000D03*
X352160000Y-68570000D03*
X352160000Y-69530000D03*
X336010000Y-127080000D03*
X336010000Y-128040000D03*
D16*
X178879500Y-68570000D03*
D17*
X178854100Y-70170000D03*
D18*
X173647100Y-70170000D03*
D19*
X173570900Y-68570000D03*
D14*
X71440000Y-126480000D03*
X71440000Y-123180000D03*
X261930000Y-87230000D03*
X261930000Y-83930000D03*
D38*
X262230000Y-154750000D03*
X263250000Y-154750000D03*
D14*
X200020000Y-145110000D03*
X200020000Y-141810000D03*
X71430000Y-87230000D03*
X71430000Y-83930000D03*
D15*
X340300000Y-144770000D03*
X340300000Y-145730000D03*
X171200000Y-106670000D03*
X171200000Y-107630000D03*
D14*
X309520000Y-107480000D03*
X309520000Y-104180000D03*
X309560000Y-161920000D03*
X309560000Y-158620000D03*
D15*
X153510000Y-106670000D03*
X153510000Y-107630000D03*
D39*
X267120000Y-157927500D03*
X267120000Y-159752500D03*
D15*
X119300000Y-127080000D03*
X119300000Y-128040000D03*
D16*
X255079500Y-68570000D03*
D17*
X255054100Y-70170000D03*
D18*
X249847100Y-70170000D03*
D19*
X249770900Y-68570000D03*
D35*
X210890000Y-163050000D03*
X207590000Y-163050000D03*
D10*
X216408000Y-127320000D03*
D19*
X216433400Y-125720000D03*
D22*
X221640400Y-125720000D03*
D17*
X221716600Y-127320000D03*
D15*
X267830000Y-106670000D03*
X267830000Y-107630000D03*
D21*
X151340000Y-165440000D03*
X151340000Y-164480000D03*
D15*
X152150000Y-106670000D03*
X152150000Y-107630000D03*
D10*
X59245500Y-165420000D03*
D19*
X59270900Y-163820000D03*
D22*
X64477900Y-163820000D03*
D17*
X64554100Y-165420000D03*
D21*
X113130000Y-165420000D03*
X113130000Y-164460000D03*
D16*
X312229500Y-68570000D03*
D17*
X312204100Y-70170000D03*
D18*
X306997100Y-70170000D03*
D19*
X306920900Y-68570000D03*
D14*
X216710000Y-161920000D03*
X216710000Y-158620000D03*
D15*
X289520000Y-127080000D03*
X289520000Y-128040000D03*
D14*
X304800000Y-126480000D03*
X304800000Y-123180000D03*
D16*
X193167000Y-144770000D03*
D17*
X193141600Y-146370000D03*
D18*
X187934600Y-146370000D03*
D19*
X187858400Y-144770000D03*
D15*
X228360000Y-106670000D03*
X228360000Y-107630000D03*
D20*
X263740000Y-165890000D03*
X262780000Y-165890000D03*
D34*
X265867500Y-165380000D03*
X267692500Y-165380000D03*
D16*
X121729500Y-68570000D03*
D17*
X121704100Y-70170000D03*
D18*
X116497100Y-70170000D03*
D19*
X116420900Y-68570000D03*
D40*
X262250000Y-153520000D03*
X263210000Y-153520000D03*
D14*
X109530000Y-164580000D03*
X109530000Y-161280000D03*
X353730000Y-135020000D03*
X353730000Y-131720000D03*
X285750000Y-126480000D03*
X285750000Y-123180000D03*
D34*
X353207500Y-137830000D03*
X355032500Y-137830000D03*
D16*
X64579500Y-106670000D03*
D17*
X64554100Y-108270000D03*
D18*
X59347100Y-108270000D03*
D19*
X59270900Y-106670000D03*
D15*
X134490000Y-106670000D03*
X134490000Y-107630000D03*
X247890000Y-88410000D03*
X247890000Y-89370000D03*
D14*
X266700000Y-126490000D03*
X266700000Y-123190000D03*
D10*
X287845500Y-89220000D03*
D19*
X287870900Y-87620000D03*
D22*
X293077900Y-87620000D03*
D17*
X293154100Y-89220000D03*
D16*
X64579500Y-68570000D03*
D17*
X64554100Y-70170000D03*
D18*
X59347100Y-70170000D03*
D19*
X59270900Y-68570000D03*
D14*
X313050000Y-145110000D03*
X313050000Y-141810000D03*
D16*
X216979500Y-68570000D03*
D17*
X216954100Y-70170000D03*
D18*
X211747100Y-70170000D03*
D19*
X211670900Y-68570000D03*
D14*
X325130000Y-126470000D03*
X325130000Y-123170000D03*
D15*
X161630000Y-68570000D03*
X161630000Y-69530000D03*
X271250000Y-144770000D03*
X271250000Y-145730000D03*
D41*
X210892500Y-165880000D03*
X209067500Y-165880000D03*
D15*
X124930000Y-68570000D03*
X124930000Y-69530000D03*
X152620000Y-88410000D03*
X152620000Y-89370000D03*
D16*
X250317000Y-144770000D03*
D17*
X250291600Y-146370000D03*
D18*
X245084600Y-146370000D03*
D19*
X245008400Y-144770000D03*
D16*
X112204500Y-106670000D03*
D17*
X112179100Y-108270000D03*
D18*
X106972100Y-108270000D03*
D19*
X106895900Y-106670000D03*
D14*
X223840000Y-87230000D03*
X223840000Y-83930000D03*
D15*
X113280000Y-88410000D03*
X113280000Y-89370000D03*
X84670000Y-88410000D03*
X84670000Y-89370000D03*
X310700000Y-144770000D03*
X310700000Y-145730000D03*
X158300000Y-144770000D03*
X158300000Y-145730000D03*
X294970000Y-68570000D03*
X294970000Y-69530000D03*
D14*
X327340000Y-107480000D03*
X327340000Y-104180000D03*
X219080000Y-145110000D03*
X219080000Y-141810000D03*
D15*
X309820000Y-127080000D03*
X309820000Y-128040000D03*
X308560000Y-127080000D03*
X308560000Y-128040000D03*
X201140000Y-68570000D03*
X201140000Y-69530000D03*
D10*
X154495500Y-89220000D03*
D19*
X154520900Y-87620000D03*
D22*
X159727900Y-87620000D03*
D17*
X159804100Y-89220000D03*
D15*
X277350000Y-68570000D03*
X277350000Y-69530000D03*
D42*
X192200000Y-153332500D03*
X192200000Y-157607500D03*
D21*
X242460000Y-162350000D03*
X242460000Y-161390000D03*
D15*
X334750000Y-127080000D03*
X334750000Y-128040000D03*
X137090000Y-127080000D03*
X137090000Y-128040000D03*
D14*
X257180000Y-145110000D03*
X257180000Y-141810000D03*
D16*
X350329500Y-68570000D03*
D17*
X350304100Y-70170000D03*
D18*
X345097100Y-70170000D03*
D19*
X345020900Y-68570000D03*
D10*
X311658000Y-127320000D03*
D19*
X311683400Y-125720000D03*
D22*
X316890400Y-125720000D03*
D17*
X316966600Y-127320000D03*
D14*
X146360000Y-164580000D03*
X146360000Y-161280000D03*
D16*
X302704500Y-106670000D03*
D17*
X302679100Y-108270000D03*
D18*
X297472100Y-108270000D03*
D19*
X297395900Y-106670000D03*
D15*
X270460000Y-127080000D03*
X270460000Y-128040000D03*
D39*
X81050000Y-79627500D03*
X81050000Y-81452500D03*
D29*
X87140000Y-62322500D03*
X87140000Y-60497500D03*
D14*
X339410000Y-87230000D03*
X339410000Y-83930000D03*
D32*
X77110000Y-83570000D03*
X79010000Y-83570000D03*
D16*
X288417000Y-144770000D03*
D17*
X288391600Y-146370000D03*
D18*
X283184600Y-146370000D03*
D19*
X283108400Y-144770000D03*
D15*
X314010000Y-68570000D03*
X314010000Y-69530000D03*
X258300000Y-68570000D03*
X258300000Y-69530000D03*
D21*
X315530000Y-165420000D03*
X315530000Y-164460000D03*
D14*
X185740000Y-69280000D03*
X185740000Y-65980000D03*
D16*
X136017000Y-144770000D03*
D17*
X135991600Y-146370000D03*
D18*
X130784600Y-146370000D03*
D19*
X130708400Y-144770000D03*
D14*
X90480000Y-164580000D03*
X90480000Y-161280000D03*
X166690000Y-87230000D03*
X166690000Y-83930000D03*
D15*
X171690000Y-88410000D03*
X171690000Y-89370000D03*
D14*
X336860000Y-69280000D03*
X336860000Y-65980000D03*
X171450000Y-126470000D03*
X171450000Y-123170000D03*
D15*
X334510000Y-68570000D03*
X334510000Y-69530000D03*
D10*
X268795500Y-89220000D03*
D19*
X268820900Y-87620000D03*
D22*
X274027900Y-87620000D03*
D17*
X274104100Y-89220000D03*
D21*
X133480000Y-165420000D03*
X133480000Y-164460000D03*
D15*
X343150000Y-88410000D03*
X343150000Y-89370000D03*
D43*
X76160000Y-81527500D03*
D44*
X76160000Y-80577500D03*
X76160000Y-79627500D03*
X73960000Y-79627500D03*
X73960000Y-80577500D03*
X73960000Y-81527500D03*
D15*
X194250000Y-127080000D03*
X194250000Y-128040000D03*
D14*
X300040000Y-69280000D03*
X300040000Y-65980000D03*
D15*
X284730000Y-88410000D03*
X284730000Y-89370000D03*
D20*
X260460000Y-165900000D03*
X259500000Y-165900000D03*
D15*
X233100000Y-144770000D03*
X233100000Y-145730000D03*
X271720000Y-127080000D03*
X271720000Y-128040000D03*
X137830000Y-144770000D03*
X137830000Y-145730000D03*
D39*
X263880000Y-157927500D03*
X263880000Y-159752500D03*
D15*
X220200000Y-68570000D03*
X220200000Y-69530000D03*
X172580000Y-106670000D03*
X172580000Y-107630000D03*
X348810000Y-106670000D03*
X348810000Y-107630000D03*
X85930000Y-88410000D03*
X85930000Y-89370000D03*
D21*
X339340000Y-165420000D03*
X339340000Y-164460000D03*
D16*
X155067000Y-144770000D03*
D17*
X155041600Y-146370000D03*
D18*
X149834600Y-146370000D03*
D19*
X149758400Y-144770000D03*
D21*
X114450000Y-165420000D03*
X114450000Y-164460000D03*
D10*
X211645500Y-89220000D03*
D19*
X211670900Y-87620000D03*
D22*
X216877900Y-87620000D03*
D17*
X216954100Y-89220000D03*
D14*
X147630000Y-69290000D03*
X147630000Y-65990000D03*
D15*
X151370000Y-88410000D03*
X151370000Y-89370000D03*
X322830000Y-88410000D03*
X322830000Y-89370000D03*
D45*
X81650000Y-67257500D03*
X81650000Y-69382500D03*
D15*
X123590000Y-68570000D03*
X123590000Y-69530000D03*
D10*
X173545500Y-89220000D03*
D19*
X173570900Y-87620000D03*
D22*
X178777900Y-87620000D03*
D17*
X178854100Y-89220000D03*
D15*
X233620000Y-127080000D03*
X233620000Y-128040000D03*
X87090000Y-127080000D03*
X87090000Y-128040000D03*
D14*
X242890000Y-87230000D03*
X242890000Y-83930000D03*
D15*
X251400000Y-127080000D03*
X251400000Y-128040000D03*
X285500000Y-106670000D03*
X285500000Y-107630000D03*
D10*
X249745500Y-89220000D03*
D19*
X249770900Y-87620000D03*
D22*
X254977900Y-87620000D03*
D17*
X255054100Y-89220000D03*
D15*
X57400000Y-88410000D03*
X57400000Y-89370000D03*
X191630000Y-106670000D03*
X191630000Y-107630000D03*
X253550000Y-144770000D03*
X253550000Y-145730000D03*
X189490000Y-88410000D03*
X189490000Y-89370000D03*
D10*
X230695500Y-89220000D03*
D19*
X230720900Y-87620000D03*
D22*
X235927900Y-87620000D03*
D17*
X236004100Y-89220000D03*
D21*
X221590000Y-165420000D03*
X221590000Y-164460000D03*
X95410000Y-165420000D03*
X95410000Y-164460000D03*
D15*
X227580000Y-88410000D03*
X227580000Y-89370000D03*
X115430000Y-106670000D03*
X115430000Y-107630000D03*
D14*
X233370000Y-107480000D03*
X233370000Y-104180000D03*
D21*
X291730000Y-165420000D03*
X291730000Y-164460000D03*
D10*
X273558000Y-127320000D03*
D19*
X273583400Y-125720000D03*
D22*
X278790400Y-125720000D03*
D17*
X278866600Y-127320000D03*
D15*
X315440000Y-68570000D03*
X315440000Y-69530000D03*
X133590000Y-88410000D03*
X133590000Y-89370000D03*
X248770000Y-106670000D03*
X248770000Y-107630000D03*
D16*
X321754500Y-106670000D03*
D17*
X321729100Y-108270000D03*
D18*
X316522100Y-108270000D03*
D19*
X316445900Y-106670000D03*
D15*
X237840000Y-68570000D03*
X237840000Y-69530000D03*
D46*
X196610000Y-157360000D03*
X198810000Y-157360000D03*
X198810000Y-155660000D03*
X196610000Y-155660000D03*
D10*
X337851750Y-127320000D03*
D19*
X337877150Y-125720000D03*
D22*
X343084150Y-125720000D03*
D17*
X343160350Y-127320000D03*
D38*
X228550000Y-149200000D03*
X229570000Y-149200000D03*
D10*
X97345500Y-165420000D03*
D19*
X97370900Y-163820000D03*
D22*
X102577900Y-163820000D03*
D17*
X102654100Y-165420000D03*
D16*
X207454500Y-106670000D03*
D17*
X207429100Y-108270000D03*
D18*
X202222100Y-108270000D03*
D19*
X202145900Y-106670000D03*
D16*
X226504500Y-106670000D03*
D17*
X226479100Y-108270000D03*
D18*
X221272100Y-108270000D03*
D19*
X221195900Y-106670000D03*
D15*
X256900000Y-68570000D03*
X256900000Y-69530000D03*
D47*
X354280000Y-111830000D03*
X352380000Y-111830000D03*
D10*
X306895500Y-89220000D03*
D19*
X306920900Y-87620000D03*
D22*
X312127900Y-87620000D03*
D17*
X312204100Y-89220000D03*
D48*
X246957500Y-155752500D03*
D49*
X246957500Y-156252500D03*
X246957500Y-156752500D03*
X246957500Y-157252500D03*
X246957500Y-157752500D03*
X246957500Y-158252500D03*
X246957500Y-158752500D03*
X246957500Y-159252500D03*
X246957500Y-159752500D03*
X246957500Y-160252500D03*
X246957500Y-160752500D03*
X246957500Y-161252500D03*
X246957500Y-161752500D03*
X246957500Y-162252500D03*
X246957500Y-162752500D03*
X246957500Y-163252500D03*
D50*
X248882500Y-165177500D03*
X249382500Y-165177500D03*
X249882500Y-165177500D03*
X250382500Y-165177500D03*
X250882500Y-165177500D03*
X251382500Y-165177500D03*
X251882500Y-165177500D03*
X252382500Y-165177500D03*
X252882500Y-165177500D03*
X253382500Y-165177500D03*
X253882500Y-165177500D03*
X254382500Y-165177500D03*
X254882500Y-165177500D03*
X255382500Y-165177500D03*
X255882500Y-165177500D03*
X256382500Y-165177500D03*
D49*
X258307500Y-163252500D03*
X258307500Y-162752500D03*
X258307500Y-162252500D03*
X258307500Y-161752500D03*
X258307500Y-161252500D03*
X258307500Y-160752500D03*
X258307500Y-160252500D03*
X258307500Y-159752500D03*
X258307500Y-159252500D03*
X258307500Y-158752500D03*
X258307500Y-158252500D03*
X258307500Y-157752500D03*
X258307500Y-157252500D03*
X258307500Y-156752500D03*
X258307500Y-156252500D03*
X258307500Y-155752500D03*
D50*
X256382500Y-153827500D03*
X255882500Y-153827500D03*
X255382500Y-153827500D03*
X254882500Y-153827500D03*
X254382500Y-153827500D03*
X253882500Y-153827500D03*
X253382500Y-153827500D03*
X252882500Y-153827500D03*
X252382500Y-153827500D03*
X251882500Y-153827500D03*
X251382500Y-153827500D03*
X250882500Y-153827500D03*
X250382500Y-153827500D03*
X249882500Y-153827500D03*
X249382500Y-153827500D03*
X248882500Y-153827500D03*
D16*
X236029500Y-68570000D03*
D17*
X236004100Y-70170000D03*
D18*
X230797100Y-70170000D03*
D19*
X230720900Y-68570000D03*
D15*
X234470000Y-144770000D03*
X234470000Y-145730000D03*
D14*
X138110000Y-107480000D03*
X138110000Y-104180000D03*
X261940000Y-69280000D03*
X261940000Y-65980000D03*
D15*
X218800000Y-68570000D03*
X218800000Y-69530000D03*
X266470000Y-106670000D03*
X266470000Y-107630000D03*
D10*
X223551750Y-165420000D03*
D19*
X223577150Y-163820000D03*
D22*
X228784150Y-163820000D03*
D17*
X228860350Y-165420000D03*
D21*
X94090000Y-165420000D03*
X94090000Y-164460000D03*
D10*
X254508000Y-127320000D03*
D19*
X254533400Y-125720000D03*
D22*
X259740400Y-125720000D03*
D17*
X259816600Y-127320000D03*
D51*
X232700000Y-149200000D03*
X231680000Y-149200000D03*
M02*
