G04 #@! TF.GenerationSoftware,KiCad,Pcbnew,(6.0.2-0)*
G04 #@! TF.CreationDate,2022-05-10T15:32:33+07:00*
G04 #@! TF.ProjectId,kb-lone,6b622d6c-6f6e-4652-9e6b-696361645f70,rev?*
G04 #@! TF.SameCoordinates,Original*
G04 #@! TF.FileFunction,Profile,NP*
%FSLAX46Y46*%
G04 Gerber Fmt 4.6, Leading zero omitted, Abs format (unit mm)*
G04 Created by KiCad (PCBNEW (6.0.2-0)) date 2022-05-10 15:32:33*
%MOMM*%
%LPD*%
G01*
G04 APERTURE LIST*
G04 #@! TA.AperFunction,Profile*
%ADD10C,0.100000*%
G04 #@! TD*
G04 APERTURE END LIST*
D10*
X311943750Y-169068750D02*
X330993750Y-169068750D01*
X92868750Y-169068750D02*
X307181250Y-169068750D01*
X52982857Y-152400128D02*
G75*
G03*
X52982857Y-147637624I0J2381252D01*
G01*
X356592487Y-72032513D02*
G75*
G03*
X356592487Y-75604751I0J-1786119D01*
G01*
X97690000Y-54767108D02*
G75*
G03*
X96690000Y-55767106I-1J-999999D01*
G01*
X357187500Y-164306250D02*
X357187500Y-152400000D01*
X356592487Y-148232637D02*
G75*
G03*
X357187500Y-147637500I1J595012D01*
G01*
X52982857Y-75604707D02*
G75*
G03*
X52387500Y-76200000I0J-595357D01*
G01*
X95692892Y-51087104D02*
X95690000Y-55767110D01*
X130968750Y-54768906D02*
G75*
G03*
X130373547Y-55364109I0J-595203D01*
G01*
X57150000Y-169068750D02*
X69056250Y-169068750D01*
X73818750Y-169068750D02*
X88106250Y-169068750D01*
X73223499Y-168473579D02*
G75*
G03*
X69651621Y-168473579I-1785939J0D01*
G01*
X52387500Y-59531250D02*
X52387500Y-71437500D01*
X52387500Y-164306250D02*
G75*
G03*
X57150000Y-169068750I4762500J0D01*
G01*
X84292892Y-55767106D02*
G75*
G03*
X83292895Y-54767107I-999998J1D01*
G01*
X335161219Y-168473579D02*
G75*
G03*
X331589341Y-168473579I-1785939J0D01*
G01*
X126206250Y-54768750D02*
X97690000Y-54767108D01*
X88106250Y-169068892D02*
G75*
G03*
X88701637Y-168473579I74J595313D01*
G01*
X352425000Y-54768750D02*
X283368750Y-54768750D01*
X92273515Y-168473579D02*
G75*
G03*
X88701637Y-168473579I-1785939J0D01*
G01*
X69056250Y-169068892D02*
G75*
G03*
X69651621Y-168473579I57J595314D01*
G01*
X357187500Y-147637500D02*
X357187800Y-76200000D01*
X86287104Y-50087108D02*
X94692896Y-50087108D01*
X85287108Y-51087104D02*
X85292892Y-55767110D01*
X356592487Y-72032513D02*
G75*
G03*
X357187500Y-71437500I1J595012D01*
G01*
X203001733Y-55364109D02*
G75*
G03*
X206573611Y-55364109I1785939J0D01*
G01*
X57150000Y-54768750D02*
G75*
G03*
X52387500Y-59531250I0J-4762500D01*
G01*
X311348841Y-168473579D02*
G75*
G03*
X311943750Y-169068750I595171J0D01*
G01*
X203001779Y-55364109D02*
G75*
G03*
X202406250Y-54768750I-595359J0D01*
G01*
X352425000Y-169068750D02*
G75*
G03*
X357187500Y-164306250I0J4762500D01*
G01*
X95692892Y-51087104D02*
G75*
G03*
X94692896Y-50087108I-999996J0D01*
G01*
X126801715Y-55364109D02*
G75*
G03*
X126206250Y-54768750I-595359J0D01*
G01*
X92273579Y-168473579D02*
G75*
G03*
X92868750Y-169068750I595173J2D01*
G01*
X83292895Y-54767107D02*
X57150000Y-54768750D01*
X279201843Y-55364109D02*
G75*
G03*
X278606250Y-54768750I-595359J0D01*
G01*
X52982857Y-75604751D02*
G75*
G03*
X52982857Y-72032873I0J1785939D01*
G01*
X279201797Y-55364109D02*
G75*
G03*
X282773675Y-55364109I1785939J0D01*
G01*
X335756250Y-169068750D02*
X352425000Y-169068750D01*
X52387544Y-147042311D02*
G75*
G03*
X52982857Y-147637624I595313J0D01*
G01*
X357187500Y-59531250D02*
G75*
G03*
X352425000Y-54768750I-4762500J0D01*
G01*
X357187800Y-76200000D02*
G75*
G03*
X356592487Y-75604751I-595314J-65D01*
G01*
X278606250Y-54768750D02*
X207168750Y-54768750D01*
X357187500Y-71437500D02*
X357187500Y-59531250D01*
X84292892Y-55767106D02*
G75*
G03*
X85292892Y-55767110I500000J-2D01*
G01*
X52982857Y-152400128D02*
G75*
G03*
X52387544Y-152995441I0J-595313D01*
G01*
X330993750Y-169068892D02*
G75*
G03*
X331589341Y-168473579I278J595313D01*
G01*
X356592487Y-148232637D02*
G75*
G03*
X356592487Y-151804815I0J-1786089D01*
G01*
X207168750Y-54768796D02*
G75*
G03*
X206573611Y-55364109I175J-595314D01*
G01*
X86287104Y-50087108D02*
G75*
G03*
X85287108Y-51087104I0J-999996D01*
G01*
X52387500Y-76200000D02*
X52387544Y-147042311D01*
X357187500Y-152400000D02*
G75*
G03*
X356592487Y-151804815I-595012J173D01*
G01*
X126801669Y-55364109D02*
G75*
G03*
X130373547Y-55364109I1785939J0D01*
G01*
X95690000Y-55767110D02*
G75*
G03*
X96690000Y-55767106I500000J2D01*
G01*
X52387544Y-71437500D02*
G75*
G03*
X52982857Y-72032873I595313J-60D01*
G01*
X335161361Y-168473579D02*
G75*
G03*
X335756250Y-169068750I595171J0D01*
G01*
X52387544Y-152995441D02*
X52387500Y-164306250D01*
X283368750Y-54768796D02*
G75*
G03*
X282773675Y-55364109I238J-595313D01*
G01*
X73223641Y-168473579D02*
G75*
G03*
X73818750Y-169068750I595171J0D01*
G01*
X311348699Y-168473579D02*
G75*
G03*
X307776821Y-168473579I-1785939J0D01*
G01*
X202406250Y-54768750D02*
X130968750Y-54768750D01*
X307181250Y-169068892D02*
G75*
G03*
X307776821Y-168473579I258J595313D01*
G01*
M02*
