M48
INCH
T1C0.0118
T2C0.0118
T3C0.0157
T4C0.0197
T5C0.0236
T6C0.0300
T7C0.0394
T8C0.0591
T9C0.0870
T10C0.0984
T11C0.1181
T12C0.1575
%
G90
G05
T1
X3.0831Y-5.8087
X4.1602Y-2.6524
X5.0983Y-5.4538
X7.2693Y-6.3193
X9.0799Y-5.874
X9.1957Y-5.1894
X9.6386Y-5.4528
X10.0051Y-5.2382
X10.1618Y-6.5315
X10.1957Y-6.0441
X10.7539Y-5.2772
X13.9055Y-5.7347
T2
X3.4252Y-2.6988
X3.4252Y-2.7539
X3.4272Y-2.7264
X3.4547Y-2.7264
X3.4567Y-2.6988
X3.4567Y-2.7539
X3.6693Y-2.6988
X3.6693Y-2.7539
X3.6713Y-2.7264
X3.6988Y-2.7264
X3.7008Y-2.6988
X3.7008Y-2.7539
X7.1512Y-6.035
X7.1512Y-6.0902
X7.1531Y-6.0626
X7.1807Y-6.0626
X7.1827Y-6.035
X7.1827Y-6.0902
X7.3953Y-6.035
X7.3953Y-6.0902
X7.3972Y-6.0626
X7.4248Y-6.0626
X7.4268Y-6.035
X7.4268Y-6.0902
T3
X2.1272Y-2.7933
X2.1559Y-2.3421
X2.1697Y-3.5185
X2.1697Y-5.0409
X2.1972Y-6.2028
X2.2031Y-6.4343
X2.2555Y-6.4343
X2.2559Y-6.3583
X2.2598Y-3.563
X2.2965Y-5.0579
X2.6154Y-4.2811
X2.6157Y-5.7811
X2.6165Y-2.7811
X2.6697Y-2.7811
X2.6697Y-5.7811
X2.6701Y-4.2811
X2.7138Y-2.2724
X2.7138Y-2.313
X2.7138Y-2.3531
X2.7394Y-5.713
X2.7394Y-6.4795
X2.7406Y-4.2319
X2.7409Y-3.4343
X2.7421Y-4.9795
X2.7429Y-2.9886
X2.774Y-2.7819
X2.9451Y-2.8647
X2.9456Y-2.9047
X2.9543Y-6.4339
X2.9606Y-3.2902
X3.0059Y-6.4343
X3.0358Y-5.4539
X3.0358Y-5.8083
X3.1823Y-2.9917
X3.2236Y-3.9531
X3.2236Y-4.3079
X3.2949Y-3.5185
X3.3362Y-4.8232
X3.3362Y-5.0591
X3.365Y-5.7811
X3.3831Y-3.563
X3.3886Y-5.0409
X3.4193Y-5.7811
X3.4374Y-3.2028
X3.4374Y-3.563
X3.452Y-2.3134
X3.4925Y-2.3135
X3.515Y-5.0579
X3.5528Y-4.7028
X3.5528Y-5.0686
X3.5543Y-4.2811
X3.5559Y-2.2837
X3.5626Y-2.3421
X3.5953Y-2.3123
X3.6075Y-4.2811
X3.615Y-5.8122
X3.615Y-6.0335
X3.6346Y-2.3135
X3.6748Y-2.3122
X3.7043Y-6.4335
X3.7524Y-3.4496
X3.7563Y-6.4343
X3.8366Y-4.9496
X4.0671Y-5.4533
X4.0671Y-5.8079
X4.0937Y-2.9193
X4.115Y-2.7248
X4.1331Y-2.9193
X4.161Y-3.9524
X4.161Y-4.3079
X4.1724Y-2.9193
X4.398Y-5.7811
X4.4197Y-3.5185
X4.4504Y-5.7811
X4.4539Y-6.4343
X4.4878Y-4.2811
X4.5059Y-6.4343
X4.5091Y-3.563
X4.5358Y-2.4529
X4.5358Y-2.8031
X4.5445Y-4.2811
X4.5622Y-3.2028
X4.5622Y-3.563
X4.6071Y-5.0409
X4.7339Y-5.0579
X4.7722Y-4.7028
X4.7722Y-5.0667
X4.8657Y-2.7811
X4.8811Y-3.4496
X4.911Y-3.9531
X4.911Y-4.3079
X4.9185Y-2.7811
X5.0571Y-4.9496
X5.0983Y-5.8079
X5.1697Y-3.5185
X5.2031Y-6.4339
X5.2398Y-4.2811
X5.2551Y-6.4343
X5.2594Y-3.563
X5.2862Y-2.4529
X5.2862Y-2.8035
X5.2949Y-4.2811
X5.3122Y-3.2028
X5.3122Y-3.563
X5.3571Y-5.0409
X5.4264Y-5.7811
X5.4823Y-5.7811
X5.4839Y-5.0579
X5.5222Y-4.7028
X5.5222Y-5.0668
X5.6146Y-2.7811
X5.6264Y-3.4496
X5.661Y-3.9531
X5.661Y-4.3079
X5.6697Y-2.7811
X5.8165Y-4.9496
X5.8483Y-5.4521
X5.8483Y-5.8079
X5.9197Y-3.5185
X5.9583Y-6.4346
X5.9902Y-4.2811
X6.0087Y-3.563
X6.011Y-6.4343
X6.0362Y-2.4529
X6.0362Y-2.8035
X6.0437Y-4.2811
X6.0622Y-3.2028
X6.0622Y-3.563
X6.1071Y-5.0409
X6.1787Y-5.7811
X6.2323Y-5.7811
X6.2339Y-5.0579
X6.2722Y-4.7031
X6.2722Y-5.0668
X6.3634Y-2.7811
X6.3776Y-3.4496
X6.4114Y-3.9528
X6.4114Y-4.3079
X6.4197Y-2.7811
X6.5591Y-4.9496
X6.5983Y-5.4521
X6.5983Y-5.8079
X6.6697Y-3.5185
X6.7402Y-4.2811
X6.7594Y-3.563
X6.7862Y-2.4529
X6.7862Y-2.8035
X6.7945Y-4.2811
X6.8122Y-3.2028
X6.8122Y-3.563
X6.8571Y-5.0409
X6.9272Y-5.7811
X6.9823Y-5.7811
X6.9839Y-5.0579
X7.0222Y-4.7028
X7.0222Y-5.0669
X7.1142Y-2.7811
X7.1283Y-3.4496
X7.161Y-3.9528
X7.161Y-4.3079
X7.1693Y-2.7811
X7.3118Y-4.9496
X7.4197Y-3.5185
X7.4882Y-4.2811
X7.5098Y-3.563
X7.5362Y-2.4531
X7.5362Y-2.8035
X7.5445Y-4.2811
X7.5622Y-3.2028
X7.5622Y-3.563
X7.5669Y-5.9295
X7.6071Y-5.0409
X7.6783Y-5.7811
X7.6854Y-5.9023
X7.714Y-5.9309
X7.7319Y-5.7811
X7.7339Y-5.0579
X7.7721Y-4.7028
X7.7721Y-5.0669
X7.8642Y-2.7811
X7.8736Y-3.4496
X7.911Y-3.9528
X7.911Y-4.3079
X7.9189Y-2.7811
X8.0606Y-4.9496
X8.1697Y-3.5185
X8.2402Y-4.2811
X8.2598Y-3.563
X8.2858Y-2.4528
X8.2858Y-2.8031
X8.2941Y-4.2811
X8.3122Y-3.2028
X8.3122Y-3.563
X8.3571Y-5.0409
X8.4075Y-5.8791
X8.4287Y-5.7811
X8.4823Y-5.7811
X8.4839Y-5.0579
X8.5222Y-4.7028
X8.5222Y-5.0667
X8.5776Y-6.4748
X8.6142Y-2.7811
X8.6228Y-3.4496
X8.661Y-3.9528
X8.661Y-4.3079
X8.6693Y-2.7811
X8.6878Y-5.1894
X8.724Y-6.4343
X8.7425Y-5.4528
X8.8098Y-4.9496
X8.8346Y-5.8598
X8.8472Y-5.4528
X8.9197Y-3.5185
X8.9906Y-4.2811
X9.0091Y-3.563
X9.0358Y-2.4535
X9.0358Y-2.8031
X9.0445Y-4.2811
X9.0622Y-3.2028
X9.0622Y-3.563
X9.1071Y-5.0409
X9.1772Y-5.7811
X9.2311Y-5.7811
X9.2339Y-5.0579
X9.2722Y-4.7028
X9.2722Y-5.0669
X9.3638Y-2.7811
X9.372Y-3.4496
X9.3933Y-6.5138
X9.3934Y-6.4733
X9.3936Y-6.4326
X9.3937Y-5.9095
X9.3937Y-5.9488
X9.3937Y-6.0037
X9.3937Y-6.0431
X9.3937Y-6.0824
X9.3937Y-6.1218
X9.3937Y-6.1611
X9.3937Y-6.2005
X9.3937Y-6.2398
X9.3937Y-6.2792
X9.3937Y-6.3185
X9.3937Y-6.3579
X9.411Y-3.9531
X9.411Y-4.3079
X9.4197Y-2.7811
X9.4984Y-6.3539
X9.5673Y-4.9496
X9.5768Y-5.7626
X9.5839Y-6.0374
X9.6547Y-6.5224
X9.6697Y-3.5185
X9.7398Y-4.2811
X9.7594Y-3.563
X9.7858Y-2.4533
X9.7858Y-2.8031
X9.7941Y-4.2811
X9.8122Y-3.2028
X9.8122Y-3.563
X9.8571Y-5.0409
X9.9268Y-5.7811
X9.9823Y-5.7811
X9.9839Y-5.0579
X10.0222Y-4.7028
X10.0222Y-5.0668
X10.1142Y-2.7811
X10.122Y-3.4496
X10.161Y-3.9528
X10.161Y-4.3079
X10.1693Y-2.7811
X10.3126Y-4.9496
X10.4197Y-3.5185
X10.4531Y-6.2894
X10.4909Y-4.2811
X10.5098Y-3.563
X10.5358Y-2.4533
X10.5358Y-2.8035
X10.5445Y-4.2811
X10.5622Y-3.2028
X10.5622Y-3.563
X10.605Y-6.2895
X10.6071Y-5.0409
X10.6228Y-6.511
X10.6791Y-5.7811
X10.7319Y-5.7811
X10.7339Y-5.0583
X10.7723Y-4.7028
X10.7723Y-5.0668
X10.8642Y-2.7811
X10.8764Y-3.4496
X10.911Y-3.9528
X10.911Y-4.3079
X10.9193Y-2.7811
X11.063Y-4.9496
X11.1697Y-3.5185
X11.1744Y-6.1868
X11.1752Y-6.1081
X11.1752Y-6.0294
X11.1752Y-5.9507
X11.1752Y-5.872
X11.1752Y-5.9114
X11.1752Y-6.2655
X11.1752Y-6.3049
X11.1752Y-6.3442
X11.1752Y-6.3836
X11.1752Y-6.4229
X11.1752Y-6.4623
X11.1752Y-6.5016
X11.1752Y-6.541
X11.1752Y-6.5803
X11.1752Y-5.9901
X11.1752Y-6.0688
X11.1754Y-6.1475
X11.1758Y-6.2262
X11.2402Y-4.2811
X11.2591Y-3.563
X11.2858Y-2.4529
X11.2858Y-2.8031
X11.2945Y-4.2811
X11.3122Y-3.2028
X11.3122Y-3.563
X11.3571Y-5.0409
X11.4276Y-5.7811
X11.4787Y-6.2024
X11.4819Y-5.7811
X11.4839Y-5.0579
X11.4854Y-6.4339
X11.5222Y-4.7024
X11.5222Y-5.0667
X11.537Y-6.4343
X11.613Y-2.7811
X11.624Y-3.4496
X11.661Y-3.9528
X11.661Y-4.3079
X11.6693Y-2.7811
X11.8114Y-4.9496
X11.8483Y-5.4528
X11.8483Y-5.8079
X11.9197Y-3.5185
X11.9909Y-4.2811
X12.0091Y-3.563
X12.0358Y-2.4531
X12.0358Y-2.8031
X12.0441Y-4.2811
X12.048Y-6.3748
X12.048Y-6.4717
X12.0622Y-3.2028
X12.0622Y-3.563
X12.1071Y-5.0409
X12.1776Y-5.7811
X12.2323Y-5.7811
X12.2339Y-5.0583
X12.2722Y-4.7028
X12.2722Y-5.067
X12.3626Y-2.7811
X12.3732Y-3.4496
X12.411Y-3.9528
X12.411Y-4.3079
X12.4162Y-6.2023
X12.4189Y-2.7811
X12.4224Y-6.4343
X12.4736Y-6.4343
X12.5594Y-4.9496
X12.5839Y-5.2866
X12.5839Y-5.3937
X12.6697Y-3.5185
X12.7394Y-4.2811
X12.7594Y-3.563
X12.7862Y-2.4531
X12.7862Y-2.8031
X12.7949Y-4.2811
X12.8122Y-3.2028
X12.8122Y-3.563
X13.1154Y-2.7811
X13.1209Y-3.4496
X13.1386Y-5.0409
X13.1697Y-2.7811
X13.265Y-5.0579
X13.3598Y-6.4343
X13.3976Y-5.7811
X13.4118Y-6.4343
X13.4197Y-3.5185
X13.4504Y-5.7811
X13.4882Y-2.6276
X13.5098Y-3.563
X13.5173Y-2.7626
X13.6768Y-4.2811
X13.7327Y-4.2811
X13.7961Y-4.7516
X13.8646Y-2.7811
X13.8839Y-6.3134
X13.9209Y-2.7811
X13.948Y-4.3051
T4
X7.5035Y-6.4748
T6
X3.4126Y-2.9004
X3.5126Y-2.9004
X3.6126Y-2.9004
X3.7126Y-2.9004
T7
X2.1427Y-2.4328
X2.1427Y-2.5312
X2.1427Y-2.6297
X2.7136Y-2.4328
X2.7136Y-2.6297
X4.263Y-2.3413
X4.263Y-2.4413
X4.263Y-2.5413
X4.263Y-2.6413
T8
X2.5359Y-2.3738
X2.5832Y-2.4289
T9
X2.963Y-2.6063
X4.013Y-2.3563
T10
X3.8646Y-2.5783
T11
X3.2146Y-2.4217
X3.8661Y-3.8815
X4.4335Y-4.6524
X12.9287Y-4.6516
X13.0543Y-3.8795
T5
G00X3.3933Y-2.0103
M15
G01X3.3933Y-2.034
M16
G05
G00X3.3933Y-2.1658
M15
G01X3.3933Y-2.2092
M16
G05
G00X3.7319Y-2.0103
M15
G01X3.7319Y-2.034
M16
G05
G00X3.7319Y-2.1658
M15
G01X3.7319Y-2.2092
M16
G05
T8
G00X2.3391Y-2.3324
M15
G01X2.3391Y-2.3521
M16
G05
G00X2.4124Y-2.3108
M15
G01X2.4636Y-2.3108
M16
G05
G00X2.4124Y-2.7517
M15
G01X2.4636Y-2.7517
M16
G05
T12
G00X6.6681Y-6.2886
M15
G01X6.6681Y-6.4461
M16
G05
T0
M30
