M48
; DRILL file {KiCad (6.0.2-0)} date Tuesday, May 10, 2022 at 03:32:41 pm
; FORMAT={-:-/ absolute / inch / decimal}
; #@! TF.CreationDate,2022-05-10T15:32:41+07:00
; #@! TF.GenerationSoftware,Kicad,Pcbnew,(6.0.2-0)
; #@! TF.FileFunction,NonPlated,1,2,NPTH
FMAT,2
INCH
; #@! TA.AperFunction,NonPlated,NPTH,ComponentDrill
T1C0.0256
; #@! TA.AperFunction,NonPlated,NPTH,ComponentDrill
T2C0.0670
; #@! TA.AperFunction,NonPlated,NPTH,ComponentDrill
T3C0.1200
; #@! TA.AperFunction,NonPlated,NPTH,ComponentDrill
T4C0.1570
; #@! TA.AperFunction,NonPlated,NPTH,ComponentDrill
T5C0.1673
%
G90
G05
T1
X3.4488Y-2.1658
X3.6764Y-2.1658
T2
X2.2375Y-2.5312
X2.2375Y-3.2812
X2.2375Y-4.0312
X2.2375Y-4.7812
X2.2375Y-5.5312
X2.2375Y-6.2812
X2.6375Y-2.5312
X2.6375Y-3.2812
X2.6375Y-4.0312
X2.6375Y-4.7812
X2.6375Y-5.5312
X2.6375Y-6.2812
X2.9875Y-5.5312
X2.9875Y-6.2812
X3.175Y-4.0312
X3.3625Y-3.2812
X3.3875Y-5.5312
X3.3875Y-6.2812
X3.4562Y-4.7812
X3.575Y-4.0312
X3.7375Y-6.2812
X3.7625Y-3.2812
X3.8562Y-4.7812
X4.0187Y-5.5312
X4.1125Y-4.0312
X4.1375Y-6.2812
X4.4188Y-5.5312
X4.4875Y-2.5312
X4.4875Y-3.2812
X4.4875Y-6.2812
X4.5125Y-4.0312
X4.675Y-4.7812
X4.8625Y-4.0312
X4.8875Y-2.5312
X4.8875Y-3.2812
X4.8875Y-6.2812
X5.05Y-5.5312
X5.075Y-4.7812
X5.2375Y-2.5312
X5.2375Y-3.2812
X5.2375Y-6.2812
X5.2625Y-4.0312
X5.425Y-4.7812
X5.45Y-5.5312
X5.6125Y-4.0312
X5.6375Y-2.5312
X5.6375Y-3.2812
X5.6375Y-6.2812
X5.8Y-5.5312
X5.825Y-4.7812
X5.9875Y-2.5312
X5.9875Y-3.2812
X5.9875Y-6.2812
X6.0125Y-4.0312
X6.175Y-4.7812
X6.2Y-5.5312
X6.3625Y-4.0312
X6.3875Y-2.5312
X6.3875Y-3.2812
X6.3875Y-6.2812
X6.55Y-5.5312
X6.575Y-4.7812
X6.7375Y-2.5312
X6.7375Y-3.2812
X6.7625Y-4.0312
X6.925Y-4.7812
X6.95Y-5.5312
X7.1125Y-4.0312
X7.1375Y-2.5312
X7.1375Y-3.2812
X7.3Y-5.5312
X7.325Y-4.7812
X7.4875Y-2.5312
X7.4875Y-3.2812
X7.5125Y-4.0312
X7.675Y-4.7812
X7.7Y-5.5312
X7.8625Y-4.0312
X7.8875Y-2.5312
X7.8875Y-3.2812
X8.05Y-5.5312
X8.075Y-4.7812
X8.2375Y-2.5312
X8.2375Y-3.2812
X8.2625Y-4.0312
X8.425Y-4.7812
X8.45Y-5.5312
X8.6125Y-4.0312
X8.6375Y-2.5312
X8.6375Y-3.2812
X8.7062Y-6.2812
X8.8Y-5.5312
X8.825Y-4.7812
X8.9875Y-2.5312
X8.9875Y-3.2812
X9.0125Y-4.0312
X9.1062Y-6.2812
X9.175Y-4.7812
X9.2Y-5.5312
X9.3625Y-4.0312
X9.3875Y-2.5312
X9.3875Y-3.2812
X9.55Y-5.5312
X9.575Y-4.7812
X9.7375Y-2.5312
X9.7375Y-3.2812
X9.7625Y-4.0312
X9.925Y-4.7812
X9.95Y-5.5312
X10.1125Y-4.0312
X10.1375Y-2.5312
X10.1375Y-3.2812
X10.3Y-5.5312
X10.325Y-4.7812
X10.4875Y-2.5312
X10.4875Y-3.2812
X10.5125Y-4.0312
X10.675Y-4.7812
X10.7Y-5.5312
X10.8625Y-4.0312
X10.8875Y-2.5312
X10.8875Y-3.2812
X11.05Y-5.5312
X11.075Y-4.7812
X11.2375Y-2.5312
X11.2375Y-3.2812
X11.2625Y-4.0312
X11.425Y-4.7812
X11.45Y-5.5312
X11.5187Y-6.2812
X11.6125Y-4.0312
X11.6375Y-2.5312
X11.6375Y-3.2812
X11.8Y-5.5312
X11.825Y-4.7812
X11.9187Y-6.2812
X11.9875Y-2.5312
X11.9875Y-3.2812
X12.0125Y-4.0312
X12.175Y-4.7812
X12.2Y-5.5312
X12.3625Y-4.0312
X12.3875Y-2.5312
X12.3875Y-3.2812
X12.4562Y-6.2812
X12.575Y-4.7812
X12.7375Y-2.5312
X12.7375Y-3.2812
X12.7625Y-4.0312
X12.8562Y-6.2812
X13.0187Y-5.5312
X13.1375Y-2.5312
X13.1375Y-3.2812
X13.2062Y-4.7812
X13.3Y-4.0312
X13.3937Y-6.2812
X13.4187Y-5.5312
X13.4875Y-2.5312
X13.4875Y-3.2812
X13.6062Y-4.7812
X13.7Y-4.0312
X13.7937Y-6.2812
X13.8875Y-2.5312
X13.8875Y-3.2812
T3
X2.3375Y-3.0812
X2.3375Y-3.8312
X2.3375Y-4.5812
X2.3375Y-5.3312
X2.3375Y-6.0812
X2.5875Y-3.1812
X2.5875Y-3.9312
X2.5875Y-4.6812
X2.5875Y-5.4312
X2.5875Y-6.1812
X3.0875Y-5.3312
X3.0875Y-6.0812
X3.0925Y-3.0063
X3.1862Y-5.0562
X3.275Y-3.8312
X3.3375Y-5.4312
X3.3375Y-6.1812
X3.4625Y-3.0812
X3.525Y-3.9312
X3.5562Y-4.5812
X3.7125Y-3.1812
X3.8062Y-4.6812
X3.8375Y-6.0812
X4.0325Y-3.0063
X4.0875Y-6.1812
X4.1187Y-5.3312
X4.1262Y-5.0562
X4.2125Y-3.8312
X4.3687Y-5.4312
X4.4625Y-3.9312
X4.5875Y-2.3312
X4.5875Y-3.0812
X4.5875Y-6.0812
X4.775Y-4.5812
X4.8375Y-2.4312
X4.8375Y-3.1812
X4.8375Y-6.1812
X4.9625Y-3.8312
X5.025Y-4.6812
X5.15Y-5.3312
X5.2125Y-3.9312
X5.3375Y-2.3312
X5.3375Y-3.0812
X5.3375Y-6.0812
X5.4Y-5.4312
X5.525Y-4.5812
X5.5875Y-2.4312
X5.5875Y-3.1812
X5.5875Y-6.1812
X5.7125Y-3.8312
X5.775Y-4.6812
X5.9Y-5.3312
X5.9625Y-3.9312
X6.0875Y-2.3312
X6.0875Y-3.0812
X6.0875Y-6.0812
X6.15Y-5.4312
X6.275Y-4.5812
X6.3375Y-2.4312
X6.3375Y-3.1812
X6.3375Y-6.1812
X6.4625Y-3.8312
X6.525Y-4.6812
X6.65Y-5.3312
X6.7125Y-3.9312
X6.8375Y-2.3312
X6.8375Y-3.0812
X6.9Y-5.4312
X6.9363Y-6.5562
X7.025Y-4.5812
X7.0875Y-2.4312
X7.0875Y-3.1812
X7.2125Y-3.8312
X7.275Y-4.6812
X7.4Y-5.3312
X7.4625Y-3.9312
X7.5875Y-2.3312
X7.5875Y-3.0812
X7.65Y-5.4312
X7.775Y-4.5812
X7.8375Y-2.4312
X7.8375Y-3.1812
X7.9625Y-3.8312
X8.025Y-4.6812
X8.15Y-5.3312
X8.2125Y-3.9312
X8.3375Y-2.3312
X8.3375Y-3.0812
X8.4Y-5.4312
X8.525Y-4.5812
X8.5875Y-2.4312
X8.5875Y-3.1812
X8.7125Y-3.8312
X8.775Y-4.6812
X8.8063Y-6.0812
X8.9Y-5.3312
X8.9625Y-3.9312
X9.0563Y-6.1812
X9.0875Y-2.3312
X9.0875Y-3.0812
X9.15Y-5.4312
X9.275Y-4.5812
X9.3375Y-2.4312
X9.3375Y-3.1812
X9.4625Y-3.8312
X9.525Y-4.6812
X9.65Y-5.3312
X9.7125Y-3.9312
X9.8375Y-2.3312
X9.8375Y-3.0812
X9.9Y-5.4312
X10.025Y-4.5812
X10.0875Y-2.4312
X10.0875Y-3.1812
X10.2125Y-3.8312
X10.275Y-4.6812
X10.4Y-5.3312
X10.4625Y-3.9312
X10.5875Y-2.3312
X10.5875Y-3.0812
X10.65Y-5.4312
X10.775Y-4.5812
X10.8375Y-2.4312
X10.8375Y-3.1812
X10.8763Y-6.5562
X10.9625Y-3.8312
X11.025Y-4.6812
X11.15Y-5.3312
X11.2125Y-3.9312
X11.3375Y-2.3312
X11.3375Y-3.0812
X11.4Y-5.4312
X11.525Y-4.5812
X11.5875Y-2.4312
X11.5875Y-3.1812
X11.6188Y-6.0812
X11.7125Y-3.8312
X11.775Y-4.6812
X11.8688Y-6.1812
X11.9Y-5.3312
X11.9625Y-3.9312
X12.0875Y-2.3312
X12.0875Y-3.0812
X12.15Y-5.4312
X12.275Y-4.5812
X12.3375Y-2.4312
X12.3375Y-3.1812
X12.4625Y-3.8312
X12.525Y-4.6812
X12.5563Y-6.0812
X12.7125Y-3.9312
X12.7487Y-5.2562
X12.8063Y-6.1812
X12.8375Y-2.3312
X12.8375Y-3.0812
X13.0875Y-2.4312
X13.0875Y-3.1812
X13.1188Y-5.3312
X13.3063Y-4.5812
X13.3688Y-5.4312
X13.4Y-3.8312
X13.4938Y-6.0812
X13.5563Y-4.6812
X13.5875Y-2.3312
X13.5875Y-3.0812
X13.65Y-3.9312
X13.6887Y-5.2562
X13.7438Y-6.1812
X13.8375Y-2.4312
X13.8375Y-3.1812
T4
X2.4375Y-2.5312
X2.4375Y-3.2812
X2.4375Y-4.0312
X2.4375Y-4.7812
X2.4375Y-5.5312
X2.4375Y-6.2812
X3.0925Y-3.6062
X3.1862Y-4.4562
X3.1875Y-5.5312
X3.1875Y-6.2812
X3.375Y-4.0312
X3.5625Y-3.2812
X3.6562Y-4.7812
X3.9375Y-6.2812
X4.0325Y-3.6062
X4.1262Y-4.4562
X4.2188Y-5.5312
X4.3125Y-4.0312
X4.6875Y-2.5312
X4.6875Y-3.2812
X4.6875Y-6.2812
X4.875Y-4.7812
X5.0625Y-4.0312
X5.25Y-5.5312
X5.4375Y-2.5312
X5.4375Y-3.2812
X5.4375Y-6.2812
X5.625Y-4.7812
X5.8125Y-4.0312
X6.0Y-5.5312
X6.1875Y-2.5312
X6.1875Y-3.2812
X6.1875Y-6.2812
X6.375Y-4.7812
X6.5625Y-4.0312
X6.75Y-5.5312
X6.9363Y-5.9562
X6.9375Y-2.5312
X6.9375Y-3.2812
X7.125Y-4.7812
X7.3125Y-4.0312
X7.5Y-5.5312
X7.6875Y-2.5312
X7.6875Y-3.2812
X7.875Y-4.7812
X8.0625Y-4.0312
X8.25Y-5.5312
X8.4375Y-2.5312
X8.4375Y-3.2812
X8.625Y-4.7812
X8.8125Y-4.0312
X8.9062Y-6.2812
X9.0Y-5.5312
X9.1875Y-2.5312
X9.1875Y-3.2812
X9.375Y-4.7812
X9.5625Y-4.0312
X9.75Y-5.5312
X9.9375Y-2.5312
X9.9375Y-3.2812
X10.125Y-4.7812
X10.3125Y-4.0312
X10.5Y-5.5312
X10.6875Y-2.5312
X10.6875Y-3.2812
X10.875Y-4.7812
X10.8763Y-5.9562
X11.0625Y-4.0312
X11.25Y-5.5312
X11.4375Y-2.5312
X11.4375Y-3.2812
X11.625Y-4.7812
X11.7188Y-6.2812
X11.8125Y-4.0312
X12.0Y-5.5312
X12.1875Y-2.5312
X12.1875Y-3.2812
X12.375Y-4.7812
X12.5625Y-4.0312
X12.6562Y-6.2812
X12.7487Y-5.8563
X12.9375Y-2.5312
X12.9375Y-3.2812
X13.2188Y-5.5312
X13.4062Y-4.7812
X13.5Y-4.0312
X13.5938Y-6.2812
X13.6875Y-2.5312
X13.6875Y-3.2812
X13.6887Y-5.8563
T5
X2.4375Y-2.7311
X2.4375Y-3.4811
X2.4375Y-4.2311
X2.4375Y-4.9811
X2.4375Y-5.7311
X2.4375Y-6.4811
X3.1875Y-5.7311
X3.1875Y-6.4811
X3.375Y-4.2311
X3.5625Y-3.4811
X3.6562Y-4.9811
X3.9375Y-6.4811
X4.2188Y-5.7311
X4.3125Y-4.2311
X4.6875Y-2.7311
X4.6875Y-3.4811
X4.6875Y-6.4811
X4.875Y-4.9811
X5.0625Y-4.2311
X5.25Y-5.7311
X5.4375Y-2.7311
X5.4375Y-3.4811
X5.4375Y-6.4811
X5.625Y-4.9811
X5.8125Y-4.2311
X6.0Y-5.7311
X6.1875Y-2.7311
X6.1875Y-3.4811
X6.1875Y-6.4819
X6.375Y-4.9811
X6.5625Y-4.2311
X6.75Y-5.7311
X6.9375Y-2.7311
X6.9375Y-3.4811
X7.125Y-4.9811
X7.3125Y-4.2311
X7.5Y-5.7311
X7.6875Y-2.7311
X7.6875Y-3.4811
X7.875Y-4.9811
X8.0625Y-4.2311
X8.25Y-5.7311
X8.4375Y-2.7311
X8.4375Y-3.4811
X8.625Y-4.9811
X8.8125Y-4.2311
X8.9062Y-6.4811
X9.0Y-5.7311
X9.1875Y-2.7311
X9.1875Y-3.4811
X9.375Y-4.9811
X9.5625Y-4.2311
X9.75Y-5.7311
X9.9375Y-2.7311
X9.9375Y-3.4811
X10.125Y-4.9811
X10.3125Y-4.2311
X10.5Y-5.7311
X10.6875Y-2.7311
X10.6875Y-3.4811
X10.875Y-4.9811
X11.0625Y-4.2311
X11.25Y-5.7311
X11.4375Y-2.7311
X11.4375Y-3.4811
X11.625Y-4.9811
X11.7188Y-6.4811
X11.8125Y-4.2311
X12.0Y-5.7311
X12.1875Y-2.7311
X12.1875Y-3.4811
X12.375Y-4.9811
X12.5625Y-4.2311
X12.6562Y-6.4811
X12.9375Y-2.7311
X12.9375Y-3.4811
X13.2188Y-5.7311
X13.4062Y-4.9811
X13.5Y-4.2311
X13.5938Y-6.4811
X13.6875Y-2.7311
X13.6875Y-3.4811
T0
M30
